<svg width="24" height="24" viewBox="0 0 12 8" fill="none" xmlns="http://www.w3.org/2000/svg">
<defs>
<path id="arrow-down" d="M2.12459 1.00002L6.00459 4.88002L9.88459 1.00002C10.2746 0.61002 10.9046 0.61002 11.2946 1.00002C11.6846 1.39002 11.6846 2.02002 11.2946 2.41002L6.7046 7.00002C6.3146 7.39002 5.68459 7.39002 5.29459 7.00002L0.704595 2.41002C0.517342 2.22319 0.412109 1.96954 0.412109 1.70502C0.412109 1.4405 0.517342 1.18685 0.704595 1.00002C1.09459 0.62002 1.73459 0.61002 2.12459 1.00002Z" fill="#144B84"/>
<path id="copyright-logo" fill-rule="evenodd" clip-rule="evenodd" d="M12 2C6.48 2 2 6.48 2 12C2 17.52 6.48 22 12 22C17.52 22 22 17.52 22 12C22 6.48 17.52 2 12 2ZM10.08 10.86C10.13 10.53 10.24 10.24 10.38 9.99C10.52 9.74 10.72 9.53 10.97 9.37C11.21 9.22 11.51 9.15 11.88 9.14C12.11 9.15 12.32 9.19 12.51 9.27C12.71 9.36 12.89 9.48 13.03 9.63C13.17 9.78 13.28 9.96 13.37 10.16C13.46 10.36 13.5 10.58 13.51 10.8H15.3C15.28 10.33 15.19 9.9 15.02 9.51C14.85 9.12 14.62 8.78 14.32 8.5C14.02 8.22 13.66 8 13.24 7.84C12.82 7.68 12.36 7.61 11.85 7.61C11.2 7.61 10.63 7.72 10.15 7.95C9.67 8.18 9.27 8.48 8.95 8.87C8.63 9.26 8.39 9.71 8.24 10.23C8.09 10.75 8 11.29 8 11.87V12.14C8 12.72 8.08 13.26 8.23 13.78C8.38 14.3 8.62 14.75 8.94 15.13C9.26 15.51 9.66 15.82 10.14 16.04C10.62 16.26 11.19 16.38 11.84 16.38C12.31 16.38 12.75 16.3 13.16 16.15C13.57 16 13.93 15.79 14.24 15.52C14.55 15.25 14.8 14.94 14.98 14.58C15.16 14.22 15.27 13.84 15.28 13.43H13.49C13.48 13.64 13.43 13.83 13.34 14.01C13.25 14.19 13.13 14.34 12.98 14.47C12.83 14.6 12.66 14.7 12.46 14.77C12.27 14.84 12.07 14.86 11.86 14.87C11.5 14.86 11.2 14.79 10.97 14.64C10.72 14.48 10.52 14.27 10.38 14.02C10.24 13.77 10.13 13.47 10.08 13.14C10.03 12.81 10 12.47 10 12.14V11.87C10 11.52 10.03 11.19 10.08 10.86ZM4 12C4 16.41 7.59 20 12 20C16.41 20 20 16.41 20 12C20 7.59 16.41 4 12 4C7.59 4 4 7.59 4 12Z" fill="#373435"/>
<path id="edit-icon" fill-rule="evenodd" clip-rule="evenodd" d="M20.709 5.63053C21.099 6.02053 21.099 6.65053 20.709 7.04053L18.879 8.87053L15.129 5.12053L16.959 3.29053C17.1459 3.10328 17.3995 2.99805 17.664 2.99805C17.9285 2.99805 18.1822 3.10328 18.369 3.29053L20.709 5.63053ZM2.99902 20.5005V17.4605C2.99902 17.3205 3.04902 17.2005 3.14902 17.1005L14.059 6.19053L17.809 9.94053L6.88902 20.8505C6.79902 20.9505 6.66902 21.0005 6.53902 21.0005H3.49902C3.21902 21.0005 2.99902 20.7805 2.99902 20.5005Z" fill="black" fill-opacity="0.54"/>
<path id="error-msg" fill-rule="evenodd" clip-rule="evenodd" d="M10 0C4.48 0 0 4.48 0 10C0 15.52 4.48 20 10 20C15.52 20 20 15.52 20 10C20 4.48 15.52 0 10 0ZM10 11C9.45 11 9 10.55 9 10V6C9 5.45 9.45 5 10 5C10.55 5 11 5.45 11 6V10C11 10.55 10.55 11 10 11ZM9 13V15H11V13H9Z" fill="black"/>
<path id="facebook-logo" d="M20 3H4C3.447 3 3 3.448 3 4V20C3 20.552 3.447 21 4 21H12.615V14.04H10.277V11.315H12.615V9.315C12.615 6.99 14.035 5.723 16.115 5.723C16.814 5.721 17.514 5.757 18.21 5.83V8.25H16.775C15.647 8.25 15.427 8.788 15.427 9.575V11.31H18.124L17.774 14.035H15.426V21H20C20.553 21 21 20.552 21 20V4C21 3.448 20.553 3 20 3Z" fill="#666666"/>
<path id="instagram-logo" d="M21.6143 8.30545C21.6033 7.54845 21.4633 6.79745 21.1953 6.08945C20.7263 4.88045 19.7713 3.92445 18.5623 3.45645C17.8633 3.19345 17.1243 3.05245 16.3763 3.03645C15.4143 2.99345 15.1093 2.98145 12.6673 2.98145C10.2253 2.98145 9.91231 2.98145 8.95731 3.03645C8.21031 3.05245 7.47131 3.19345 6.77231 3.45645C5.56331 3.92445 4.60731 4.88045 4.13931 6.08945C3.87631 6.78845 3.73431 7.52745 3.72031 8.27445C3.67731 9.23745 3.66431 9.54245 3.66431 11.9844C3.66431 14.4264 3.66431 14.7384 3.72031 15.6944C3.73531 16.4424 3.87631 17.1804 4.13931 17.8814C4.60831 19.0894 5.56331 20.0454 6.77331 20.5134C7.46931 20.7854 8.20831 20.9394 8.95831 20.9634C9.92131 21.0064 10.2263 21.0194 12.6683 21.0194C15.1103 21.0194 15.4233 21.0194 16.3783 20.9634C17.1253 20.9484 17.8643 20.8074 18.5643 20.5444C19.7733 20.0754 20.7283 19.1194 21.1973 17.9114C21.4603 17.2114 21.6013 16.4734 21.6163 15.7244C21.6593 14.7624 21.6723 14.4574 21.6723 12.0144C21.6703 9.57245 21.6703 9.26245 21.6143 8.30545ZM12.6613 16.6024C10.1073 16.6024 8.03831 14.5334 8.03831 11.9794C8.03831 9.42545 10.1073 7.35645 12.6613 7.35645C15.2133 7.35645 17.2843 9.42545 17.2843 11.9794C17.2843 14.5334 15.2133 16.6024 12.6613 16.6024ZM17.4683 8.26344C16.8713 8.26344 16.3903 7.78145 16.3903 7.18545C16.3903 6.58945 16.8713 6.10745 17.4683 6.10745C18.0633 6.10745 18.5453 6.58945 18.5453 7.18545C18.5453 7.78145 18.0633 8.26344 17.4683 8.26344Z" fill="#666666"/>
<path id="line-logo" d="M21.6469 10.343V10.1525V10.0192C21.3836 8.61414 20.7166 7.31445 19.7262 6.27634C18.6595 5.15892 17.344 4.30443 15.8848 3.78113C14.5879 3.28484 13.2125 3.02043 11.8225 3.00018C9.9903 2.98981 8.18339 3.4247 6.5598 4.26683C5.13815 4.92642 3.94481 5.988 3.12976 7.31818C2.31472 8.64836 1.91433 10.1878 1.97891 11.7429C2.12343 13.2805 2.72883 14.74 3.71715 15.9334C4.70495 17.1135 5.97185 18.0329 7.40491 18.6095C8.29223 18.9481 9.21275 19.1938 10.1515 19.3429H10.2572C10.5261 19.3429 10.5933 19.4571 10.6125 19.4857C10.6317 19.5543 10.6317 19.6267 10.6125 19.6952C10.6125 19.7524 10.6125 19.8 10.6125 19.8476C10.4738 20.268 10.4311 20.7137 10.4876 21.1524C10.5138 21.3864 10.6263 21.6025 10.8037 21.759C10.981 21.9156 11.2106 22.0014 11.448 22C12.0045 21.9322 12.5356 21.7294 12.9942 21.4095H13.0422C14.0025 20.8571 14.9053 20.219 15.5871 19.7333C17.2327 18.6642 18.7279 17.3832 20.0336 15.9239C21.293 14.3476 21.873 12.3415 21.6469 10.343ZM8.11557 13.3239H6.41574C6.35485 13.3252 6.29432 13.3142 6.2378 13.2917C6.18128 13.2692 6.12994 13.2356 6.08687 13.1929C6.0438 13.1502 6.0099 13.0993 5.9872 13.0432C5.96449 12.9872 5.95346 12.9271 5.95477 12.8667V9.32392C5.95346 9.26354 5.96449 9.20351 5.9872 9.14746C6.0099 9.09141 6.0438 9.0405 6.08687 8.99779C6.12994 8.95507 6.18128 8.92145 6.2378 8.89894C6.29432 8.87642 6.35485 8.86549 6.41574 8.86679C6.47708 8.86552 6.53806 8.87641 6.5951 8.89881C6.65214 8.92122 6.7041 8.95469 6.74793 8.99726C6.79175 9.03984 6.82657 9.09066 6.85033 9.14676C6.8741 9.20285 6.88633 9.26308 6.88632 9.32392V12.4001H8.11557C8.24037 12.4001 8.36006 12.4492 8.44831 12.5368C8.53656 12.6243 8.58614 12.743 8.58614 12.8667C8.58616 12.9276 8.57392 12.9878 8.55016 13.0439C8.52639 13.1 8.49158 13.1508 8.44775 13.1934C8.40392 13.236 8.35197 13.2695 8.29493 13.2919C8.23788 13.3143 8.17691 13.3251 8.11557 13.3239ZM9.89222 12.8572C9.89222 12.9835 9.84163 13.1046 9.75158 13.1939C9.66153 13.2832 9.5394 13.3334 9.41205 13.3334C9.2847 13.3334 9.16256 13.2832 9.07251 13.1939C8.98246 13.1046 8.93187 12.9835 8.93187 12.8572V9.3144C8.93187 9.18811 8.98246 9.06699 9.07251 8.97769C9.16256 8.88838 9.2847 8.83821 9.41205 8.83821C9.5394 8.83821 9.66153 8.88838 9.75158 8.97769C9.84163 9.06699 9.89222 9.18811 9.89222 9.3144V12.8572ZM14.0986 12.8572C14.0973 12.955 14.065 13.0498 14.0065 13.1284C13.9479 13.207 13.8659 13.2654 13.772 13.2953H13.628C13.5547 13.2961 13.4822 13.2792 13.417 13.246C13.3517 13.2128 13.2956 13.1644 13.2535 13.1048L11.5824 10.8382V12.8572C11.5799 12.9793 11.5292 13.0956 11.4413 13.1811C11.3533 13.2665 11.235 13.3144 11.1119 13.3144C11.049 13.3183 10.9859 13.3093 10.9266 13.2881C10.8673 13.2669 10.813 13.2338 10.7671 13.191C10.7212 13.1482 10.6847 13.0964 10.6597 13.039C10.6348 12.9816 10.622 12.9197 10.6221 12.8572V9.41916C10.6221 9.3213 10.6526 9.22582 10.7093 9.14573C10.766 9.06564 10.8462 9.00482 10.939 8.97155C11.0327 8.94301 11.133 8.9442 11.226 8.97493C11.3189 9.00566 11.3999 9.06441 11.4576 9.14297L13.1382 11.4287V9.3144C13.1382 9.18811 13.1888 9.06699 13.2789 8.97769C13.3689 8.88838 13.491 8.83821 13.6184 8.83821C13.7457 8.83821 13.8679 8.88838 13.9579 8.97769C14.048 9.06699 14.0986 9.18811 14.0986 9.3144V12.8572ZM17.4886 13.2382H15.1838C15.1229 13.2395 15.0623 13.2285 15.0058 13.206C14.9493 13.1835 14.898 13.1499 14.8549 13.1072C14.8118 13.0645 14.7779 13.0135 14.7552 12.9575C14.7325 12.9014 14.7215 12.8414 14.7228 12.781V9.23821C14.7228 9.11697 14.7714 9.0007 14.8578 8.91497C14.9443 8.82924 15.0615 8.78107 15.1838 8.78107H17.4118C17.5391 8.78107 17.6613 8.83124 17.7513 8.92054C17.8414 9.00985 17.892 9.13097 17.892 9.25726C17.892 9.38355 17.8414 9.50467 17.7513 9.59397C17.6613 9.68327 17.5391 9.73344 17.4118 9.73344H15.6447V10.5811H17.0853C17.2075 10.5811 17.3248 10.6292 17.4112 10.7149C17.4977 10.8007 17.5462 10.917 17.5462 11.0382C17.5463 11.1603 17.498 11.2776 17.4118 11.3649C17.3256 11.4521 17.2084 11.5024 17.0853 11.5049H15.6447V12.3525H17.4886C17.616 12.3525 17.7381 12.4026 17.8282 12.4919C17.9182 12.5812 17.9688 12.7024 17.9688 12.8286C17.9688 12.9549 17.9182 13.0761 17.8282 13.1654C17.7381 13.2547 17.616 13.3048 17.4886 13.3048V13.2382Z" fill="#666666"/>
<path id="linkedin-logo" d="M20.6672 3H4.66724C4.11424 3 3.66724 3.448 3.66724 4V20C3.66724 20.552 4.11424 21 4.66724 21H20.6672C21.2202 21 21.6672 20.552 21.6672 20V4C21.6672 3.448 21.2202 3 20.6672 3ZM9.00624 18.337H6.33424V9.747H9.00624V18.337ZM7.67024 8.574C6.81424 8.574 6.12224 7.88 6.12224 7.026C6.12224 6.172 6.81324 5.478 7.67024 5.478C8.52424 5.478 9.21824 6.171 9.21824 7.026C9.21824 7.881 8.52424 8.574 7.67024 8.574ZM19.0052 18.337H16.3362V14.16C16.3362 13.164 16.3182 11.883 14.9482 11.883C13.5582 11.883 13.3472 12.969 13.3472 14.09V18.338H10.6802V9.748H13.2402V10.922H13.2772C13.6322 10.247 14.5042 9.535 15.8012 9.535C18.5052 9.535 19.0042 11.313 19.0042 13.627V18.337H19.0052Z" fill="#666666"/>
<path id="search-icon" d="M10 18C11.846 18 13.543 17.365 14.897 16.312L19.293 20.708L20.707 19.294L16.311 14.898C17.365 13.543 18 11.846 18 10C18 5.589 14.411 2 10 2C5.589 2 2 5.589 2 10C2 14.411 5.589 18 10 18ZM10 4C13.309 4 16 6.691 16 10C16 13.309 13.309 16 10 16C6.691 16 4 13.309 4 10C4 6.691 6.691 4 10 4Z" fill="#999999"/>
<path id="spotify-logo" d="M12.6773 2.01855C7.18228 2.01855 2.68628 6.51455 2.68628 12.0096C2.68628 17.5036 7.18228 21.9996 12.6773 21.9996C18.1713 21.9996 22.6673 17.5036 22.6673 12.0096C22.6673 6.51455 18.2213 2.01855 12.6773 2.01855ZM17.2723 16.4546C17.0733 16.7536 16.7233 16.8546 16.4223 16.6556C14.0733 15.2056 11.1263 14.9056 7.62928 15.7046C7.28128 15.8066 6.98128 15.5566 6.88128 15.2556C6.78028 14.9056 7.03028 14.6076 7.33128 14.5066C11.1263 13.6566 14.4243 14.0076 17.0213 15.6066C17.3713 15.7556 17.4213 16.1546 17.2723 16.4546ZM18.4723 13.7076C18.2213 14.0566 17.7723 14.2066 17.4213 13.9566C14.7243 12.3106 10.6293 11.8086 7.48228 12.8086C7.08428 12.9096 6.63228 12.7086 6.53328 12.3106C6.43228 11.9086 6.63328 11.4586 7.03228 11.3586C10.6783 10.2606 15.1753 10.8106 18.2713 12.7096C18.5713 12.8586 18.7213 13.3576 18.4723 13.7076ZM18.5713 10.9086C15.3743 9.01156 10.0293 8.81155 6.98128 9.76255C6.48228 9.91055 5.98128 9.61155 5.83328 9.16255C5.68328 8.66055 5.98128 8.16155 6.43228 8.01155C9.97928 6.96255 15.8243 7.16155 19.5213 9.36255C19.9703 9.61155 20.1203 10.2116 19.8703 10.6606C19.6203 11.0106 19.0213 11.1586 18.5713 10.9086Z" fill="#666666"/>
<path id="success-msg" d="M10 0C4.486 0 0 4.486 0 10C0 15.514 4.486 20 10 20C15.514 20 20 15.514 20 10C20 4.486 15.514 0 10 0ZM8.001 14.413L4.288 10.708L5.7 9.292L7.999 11.587L13.293 6.293L14.707 7.707L8.001 14.413Z" fill="black"/>
<path id="twitter-logo" d="M20.3002 7.99655C20.3132 8.17156 20.3132 8.34556 20.3132 8.51956C20.3132 13.8446 16.2602 19.9806 8.85324 19.9806C6.57124 19.9806 4.45124 19.3196 2.66724 18.1716C2.99124 18.2086 3.30324 18.2216 3.64024 18.2216C5.52324 18.2216 7.25624 17.5856 8.64124 16.5006C6.87024 16.4636 5.38624 15.3036 4.87424 13.7076C5.12324 13.7446 5.37324 13.7696 5.63524 13.7696C5.99624 13.7696 6.35924 13.7196 6.69624 13.6326C4.84924 13.2586 3.46624 11.6376 3.46624 9.67955V9.62955C4.00324 9.92855 4.62624 10.1156 5.28624 10.1406C4.20124 9.41855 3.49024 8.18355 3.49024 6.78655C3.49024 6.03855 3.68924 5.35255 4.03824 4.75455C6.02124 7.19755 9.00224 8.79455 12.3442 8.96955C12.2822 8.66955 12.2442 8.35855 12.2442 8.04655C12.2442 5.82655 14.0402 4.01855 16.2722 4.01855C17.4322 4.01855 18.4792 4.50455 19.2152 5.29055C20.1252 5.11555 20.9972 4.77855 21.7712 4.31755C21.4722 5.25255 20.8352 6.03855 20.0002 6.53755C20.8112 6.44955 21.5972 6.22555 22.3192 5.91355C21.7712 6.71155 21.0862 7.42255 20.3002 7.99655Z" fill="#666666"/>
<path id="youtube-logo" d="M22.2603 7.20301C22.0303 6.34501 21.3553 5.66801 20.4983 5.43701C18.9323 5.00701 12.6673 5.00001 12.6673 5.00001C12.6673 5.00001 6.40332 4.99301 4.83632 5.40401C3.99632 5.63301 3.30232 6.32501 3.07032 7.18201C2.65732 8.74801 2.65332 11.996 2.65332 11.996C2.65332 11.996 2.64932 15.26 3.05932 16.81C3.28932 17.667 3.96432 18.344 4.82232 18.575C6.40432 19.005 12.6523 19.012 12.6523 19.012C12.6523 19.012 18.9173 19.019 20.4833 18.609C21.3393 18.379 22.0173 17.703 22.2503 16.846C22.6643 15.281 22.6673 12.034 22.6673 12.034C22.6673 12.034 22.6873 8.76901 22.2603 7.20301ZM10.6633 15.005L10.6683 9.00501L15.8753 12.01L10.6633 15.005Z" fill="#666666"/>
<path id="person_pp" fill-rule="evenodd" clip-rule="evenodd" d="M57.333 19.6654C57.333 30.0708 48.9051 38.4987 38.4997 38.4987C28.0943 38.4987 19.6663 30.0708 19.6663 19.6654C19.6663 9.25995 28.0943 0.832031 38.4997 0.832031C48.9051 0.832031 57.333 9.25995 57.333 19.6654ZM0.833008 66.7487C0.833008 54.2245 25.9284 47.9154 38.4997 47.9154C51.0709 47.9154 76.1663 54.2245 76.1663 66.7487V71.457C76.1663 74.0466 74.0476 76.1654 71.458 76.1654H5.54134C2.95176 76.1654 0.833008 74.0466 0.833008 71.457V66.7487Z" fill="#E2E7EE"/>
<path id="person-2" d="M10.6665 7.33203C11.7732 7.33203 12.6598 6.4387 12.6598 5.33203C12.6598 4.22536 11.7732 3.33203 10.6665 3.33203C9.55984 3.33203 8.6665 4.22536 8.6665 5.33203C8.6665 6.4387 9.55984 7.33203 10.6665 7.33203ZM5.33317 7.33203C6.43984 7.33203 7.3265 6.4387 7.3265 5.33203C7.3265 4.22536 6.43984 3.33203 5.33317 3.33203C4.2265 3.33203 3.33317 4.22536 3.33317 5.33203C3.33317 6.4387 4.2265 7.33203 5.33317 7.33203ZM5.33317 8.66536C3.77984 8.66536 0.666504 9.44536 0.666504 10.9987V11.9987C0.666504 12.3654 0.966504 12.6654 1.33317 12.6654H9.33317C9.69984 12.6654 9.99984 12.3654 9.99984 11.9987V10.9987C9.99984 9.44536 6.8865 8.66536 5.33317 8.66536ZM10.6665 8.66536C10.4732 8.66536 10.2532 8.6787 10.0198 8.6987C10.0332 8.70536 10.0398 8.7187 10.0465 8.72536C10.8065 9.2787 11.3332 10.0187 11.3332 10.9987V11.9987C11.3332 12.232 11.2865 12.4587 11.2132 12.6654H14.6665C15.0332 12.6654 15.3332 12.3654 15.3332 11.9987V10.9987C15.3332 9.44536 12.2198 8.66536 10.6665 8.66536Z" fill="black" fill-opacity="0.54"/>
<path id="linkedin-logo-filled" d="M11.3333 0H0.666667C0.298 0 0 0.298667 0 0.666667V11.3333C0 11.7013 0.298 12 0.666667 12H11.3333C11.702 12 12 11.7013 12 11.3333V0.666667C12 0.298667 11.702 0 11.3333 0ZM3.55933 10.2247H1.778V4.498H3.55933V10.2247ZM2.66867 3.716C2.098 3.716 1.63667 3.25333 1.63667 2.684C1.63667 2.11467 2.09733 1.652 2.66867 1.652C3.238 1.652 3.70067 2.114 3.70067 2.684C3.70067 3.254 3.238 3.716 2.66867 3.716ZM10.2253 10.2247H8.446V7.44C8.446 6.776 8.434 5.922 7.52067 5.922C6.594 5.922 6.45333 6.646 6.45333 7.39333V10.2253H4.67533V4.49867H6.382V5.28133H6.40667C6.64333 4.83133 7.22467 4.35667 8.08933 4.35667C9.892 4.35667 10.2247 5.542 10.2247 7.08467V10.2247H10.2253Z" fill="#144B84"/>
<path id="checkmark-filled" fill-rule="evenodd" clip-rule="evenodd" d="M3 18C3 9.72 9.72 3 18 3C26.28 3 33 9.72 33 18C33 26.28 26.28 33 18 33C9.72 33 3 26.28 3 18ZM8.55 19.05L13.935 24.435C14.52 25.02 15.48 25.02 16.05 24.435L27.435 13.05C28.02 12.465 28.02 11.52 27.435 10.935C26.85 10.35 25.905 10.35 25.32 10.935L15 21.255L10.665 16.935C10.08 16.35 9.135 16.35 8.55 16.935C8.26912 17.2152 8.11127 17.5957 8.11127 17.9925C8.11127 18.3893 8.26912 18.7698 8.55 19.05Z" fill="#3FAF67"/>
<path id="cancel-filled" fill-rule="evenodd" clip-rule="evenodd" d="M3 18C3 9.705 9.705 3 18 3C26.295 3 33 9.705 33 18C33 26.295 26.295 33 18 33C9.705 33 3 26.295 3 18ZM22.335 24.45C22.92 25.035 23.865 25.035 24.45 24.45C25.02 23.865 25.02 22.905 24.45 22.335L20.115 18L24.45 13.665C25.035 13.08 25.035 12.135 24.45 11.55C23.865 10.965 22.92 10.965 22.335 11.55L18 15.885L13.665 11.55C13.08 10.965 12.135 10.965 11.55 11.55C11.2691 11.8302 11.1113 12.2107 11.1113 12.6075C11.1113 13.0043 11.2691 13.3848 11.55 13.665L15.885 18L11.55 22.335C11.2691 22.6152 11.1113 22.9957 11.1113 23.3925C11.1113 23.7893 11.2691 24.1698 11.55 24.45C12.135 25.035 13.08 25.035 13.665 24.45L18 20.115L22.335 24.45Z" fill="#E9202A"/>
<path id="sad-face-1" d="M24 4C12.972 4 4 12.972 4 24C4 35.028 12.972 44 24 44C35.028 44 44 35.028 44 24C44 12.972 35.028 4 24 4ZM24 40C15.178 40 8 32.822 8 24C8 15.178 15.178 8 24 8C32.822 8 40 15.178 40 24C40 32.822 32.822 40 24 40Z" fill="#484848"/>
<path id="sad-face-2" d="M17 24C18.6569 24 20 22.6569 20 21C20 19.3431 18.6569 18 17 18C15.3431 18 14 19.3431 14 21C14 22.6569 15.3431 24 17 24Z" fill="#484848"/>
<path id="sad-face-3" d="M30.986 23.972C32.6351 23.972 33.972 22.6351 33.972 20.986C33.972 19.3369 32.6351 18 30.986 18C29.3369 18 28 19.3369 28 20.986C28 22.6351 29.3369 23.972 30.986 23.972Z" fill="#484848"/>
<path id="sad-face-4" d="M24 28C18 28 16 34 16 34H32C32 34 30 28 24 28Z" fill="#484848"/>
<path id="arrow-back" d="M18.7915 11.0065H7.62148L12.5015 6.12655C12.8915 5.73655 12.8915 5.09655 12.5015 4.70655C12.3147 4.5193 12.061 4.41406 11.7965 4.41406C11.532 4.41406 11.2783 4.5193 11.0915 4.70655L4.50148 11.2965C4.11148 11.6865 4.11148 12.3165 4.50148 12.7065L11.0915 19.2965C11.4815 19.6865 12.1115 19.6865 12.5015 19.2965C12.8915 18.9065 12.8915 18.2765 12.5015 17.8865L7.62148 13.0065H18.7915C19.3415 13.0065 19.7915 12.5565 19.7915 12.0065C19.7915 11.4565 19.3415 11.0065 18.7915 11.0065Z" fill="black"/>
<path id="share-icon" d="M12.5 10.746C11.9933 10.746 11.54 10.946 11.1933 11.2594L6.44 8.49271C6.47333 8.33937 6.5 8.18604 6.5 8.02604C6.5 7.86604 6.47333 7.71271 6.44 7.55937L11.14 4.81937C11.5 5.15271 11.9733 5.35937 12.5 5.35937C13.6067 5.35937 14.5 4.46604 14.5 3.35937C14.5 2.25271 13.6067 1.35938 12.5 1.35938C11.3933 1.35938 10.5 2.25271 10.5 3.35937C10.5 3.51937 10.5267 3.67271 10.56 3.82604L5.86 6.56604C5.5 6.23271 5.02667 6.02604 4.5 6.02604C3.39333 6.02604 2.5 6.91937 2.5 8.02604C2.5 9.13271 3.39333 10.026 4.5 10.026C5.02667 10.026 5.5 9.81937 5.86 9.48604L10.6067 12.2594C10.5733 12.3994 10.5533 12.546 10.5533 12.6927C10.5533 13.766 11.4267 14.6394 12.5 14.6394C13.5733 14.6394 14.4467 13.766 14.4467 12.6927C14.4467 11.6194 13.5733 10.746 12.5 10.746Z" fill="#144B84"/>
<path id="upload-icon-1" d="M19.5 28.5V22.5H24L18 15L12 22.5H16.5V28.5H19.5Z" fill="#144B84"/>
<path id="upload-icon-2" d="M10.5 28.5H13.5V25.5H10.5C8.019 25.5 6 23.481 6 21C6 18.894 7.7985 16.866 10.0095 16.4775L10.881 16.3245L11.169 15.4875C12.2235 12.411 14.8425 10.5 18 10.5C22.1355 10.5 25.5 13.8645 25.5 18V19.5H27C28.6545 19.5 30 20.8455 30 22.5C30 24.1545 28.6545 25.5 27 25.5H22.5V28.5H27C30.309 28.5 33 25.809 33 22.5C33 19.68 31.0425 17.307 28.416 16.668C27.7605 11.505 23.34 7.5 18 7.5C13.866 7.5 10.275 9.9165 8.6355 13.725C5.4135 14.688 3 17.73 3 21C3 25.1355 6.3645 28.5 10.5 28.5Z" fill="#144B84"/>
<path id="whatsapp-logo" fill-rule="evenodd" clip-rule="evenodd" d="M18.403 5.633C16.708 3.936 14.454 3.001 12.053 3C7.105 3 3.077 7.027 3.075 11.977C3.075 13.559 3.488 15.103 4.273 16.465L3 21.116L7.759 19.867C9.071 20.582 10.547 20.959 12.049 20.96H12.053C17 20.96 21.028 16.933 21.03 11.983C21.03 9.585 20.098 7.33 18.403 5.633ZM12.053 19.445H12.05C10.711 19.444 9.398 19.085 8.252 18.404L7.98 18.242L5.156 18.983L5.909 16.23L5.732 15.948C4.985 14.76 4.591 13.387 4.591 11.977C4.593 7.863 7.94 4.516 12.056 4.516C14.049 4.517 15.922 5.294 17.331 6.704C18.739 8.115 19.515 9.989 19.514 11.983C19.512 16.097 16.165 19.445 12.053 19.445ZM16.146 13.856C15.921 13.743 14.819 13.201 14.613 13.126C14.408 13.051 14.259 13.014 14.109 13.238C13.959 13.462 13.529 13.967 13.398 14.117C13.267 14.267 13.136 14.285 12.912 14.173C12.688 14.061 11.965 13.824 11.108 13.06C10.441 12.465 9.991 11.731 9.86 11.506C9.729 11.281 9.846 11.16 9.959 11.048C10.06 10.948 10.183 10.786 10.295 10.655C10.407 10.524 10.444 10.431 10.519 10.281C10.594 10.131 10.557 10 10.5 9.888C10.444 9.775 9.995 8.671 9.808 8.222C9.627 7.787 9.442 7.845 9.304 7.839C9.174 7.833 9.024 7.831 8.875 7.831C8.725 7.831 8.482 7.887 8.276 8.111C8.07 8.336 7.491 8.878 7.491 9.982C7.491 11.086 8.295 12.153 8.407 12.303C8.519 12.453 9.989 14.718 12.239 15.69C12.775 15.921 13.193 16.059 13.518 16.163C14.055 16.334 14.544 16.309 14.931 16.252C15.362 16.188 16.258 15.71 16.445 15.186C16.632 14.662 16.632 14.213 16.576 14.119C16.52 14.025 16.369 13.968 16.146 13.856Z" fill="#666666"/>
<path id="calendar-icon" fill-rule="evenodd" clip-rule="evenodd" d="M12.6668 1.99984H13.3335C14.0668 1.99984 14.6668 2.59984 14.6668 3.33317V13.9998C14.6668 14.7332 14.0668 15.3332 13.3335 15.3332H2.66683C1.9335 15.3332 1.3335 14.7332 1.3335 13.9998V3.33317C1.3335 2.59984 1.9335 1.99984 2.66683 1.99984H3.3335V1.33317C3.3335 0.966504 3.6335 0.666504 4.00016 0.666504C4.36683 0.666504 4.66683 0.966504 4.66683 1.33317V1.99984H11.3335V1.33317C11.3335 0.966504 11.6335 0.666504 12.0002 0.666504C12.3668 0.666504 12.6668 0.966504 12.6668 1.33317V1.99984ZM3.3335 13.9998H12.6668C13.0335 13.9998 13.3335 13.6998 13.3335 13.3332V5.33317H2.66683V13.3332C2.66683 13.6998 2.96683 13.9998 3.3335 13.9998Z" fill="black" fill-opacity="0.54"/>
</defs>
</svg>
