<svg width="220" height="176" viewBox="0 0 237 176" fill="none" xmlns="http://www.w3.org/2000/svg">
<path d="M212.602 161.979H196.984V162.097H212.602V161.979Z" fill="#EBEBEB"/>
<path d="M156.637 163.262H152.539V163.38H156.637V163.262Z" fill="#EBEBEB"/>
<path d="M196.512 157.603H187.463V157.72H196.512V157.603Z" fill="#EBEBEB"/>
<path d="M45.5487 158.396H25.1816V158.513H45.5487V158.396Z" fill="#EBEBEB"/>
<path d="M52.7355 158.396H49.7505V158.513H52.7355V158.396Z" fill="#EBEBEB"/>
<path d="M106.617 160.385H62.4404V160.503H106.617V160.385Z" fill="#EBEBEB"/>
<path d="M112.205 133.36H21.1499C20.4365 133.358 19.7529 133.074 19.2489 132.569C18.745 132.064 18.4619 131.38 18.4619 130.667V2.66908C18.4681 1.95985 18.7539 1.28171 19.2572 0.781964C19.7605 0.282214 20.4406 0.00121494 21.1499 0H112.205C112.919 0 113.604 0.28369 114.109 0.788661C114.614 1.29363 114.898 1.97852 114.898 2.69266V130.667C114.898 131.381 114.614 132.066 114.109 132.571C113.604 133.076 112.919 133.36 112.205 133.36ZM21.1499 0.0943141C20.4678 0.0955633 19.8141 0.367383 19.3323 0.85011C18.8504 1.33284 18.5798 1.98703 18.5798 2.66908V130.667C18.5798 131.349 18.8504 132.003 19.3323 132.486C19.8141 132.969 20.4678 133.241 21.1499 133.242H112.205C112.888 133.241 113.542 132.969 114.024 132.486C114.507 132.004 114.779 131.349 114.78 130.667V2.66908C114.779 1.98659 114.507 1.33241 114.024 0.849822C113.542 0.36723 112.888 0.0955607 112.205 0.0943141H21.1499Z" fill="#EBEBEB"/>
<path d="M214.21 133.36H123.15C122.436 133.358 121.752 133.074 121.248 132.57C120.743 132.065 120.459 131.381 120.458 130.667V2.66908C120.465 1.95942 120.752 1.28129 121.256 0.781669C121.76 0.282049 122.44 0.00120169 123.15 0H214.21C214.919 0.00245428 215.597 0.284002 216.1 0.783619C216.602 1.28324 216.887 1.96067 216.893 2.66908V130.667C216.893 131.38 216.611 132.063 216.108 132.568C215.605 133.072 214.923 133.357 214.21 133.36ZM123.15 0.0943141C122.468 0.0955607 121.814 0.36723 121.331 0.849822C120.848 1.33241 120.577 1.98659 120.575 2.66908V130.667C120.577 131.349 120.848 132.004 121.331 132.486C121.814 132.969 122.468 133.241 123.15 133.242H214.21C214.893 133.241 215.547 132.969 216.029 132.486C216.512 132.004 216.784 131.349 216.785 130.667V2.66908C216.784 1.98659 216.512 1.33241 216.029 0.849822C215.547 0.36723 214.893 0.0955607 214.21 0.0943141H123.15Z" fill="#EBEBEB"/>
<path d="M236.228 154.392H0.443359V154.509H236.228V154.392Z" fill="#EBEBEB"/>
<path d="M215.319 7.71973H181.719V121.703H215.319V7.71973Z" fill="#FAFAFA"/>
<path d="M216.172 48.0674H174.165V120.708H216.172V48.0674Z" fill="#E0E0E0"/>
<path d="M182.233 37.9189V56.1356H185.549H204.793H208.108V37.9189H182.233Z" fill="#E0E0E0"/>
<path d="M182.233 50.7598H176.857V56.1356H182.233V50.7598Z" fill="#FAFAFA"/>
<path d="M192.65 50.7598H187.274V56.1356H192.65V50.7598Z" fill="#FAFAFA"/>
<path d="M203.067 50.7598H197.691V56.1356H203.067V50.7598Z" fill="#FAFAFA"/>
<path d="M213.489 50.7598H208.108V56.1356H213.489V50.7598Z" fill="#F0F0F0"/>
<path d="M182.233 60.5303H176.857V65.9109H182.233V60.5303Z" fill="#F0F0F0"/>
<path d="M192.65 60.5303H187.274V65.9109H192.65V60.5303Z" fill="#F0F0F0"/>
<path d="M203.067 60.5303H197.691V65.9109H203.067V60.5303Z" fill="#FAFAFA"/>
<path d="M213.489 60.5303H208.108V65.9109H213.489V60.5303Z" fill="#FAFAFA"/>
<path d="M182.233 70.3018H176.857V75.6776H182.233V70.3018Z" fill="#F0F0F0"/>
<path d="M192.65 70.3018H187.274V75.6776H192.65V70.3018Z" fill="#FAFAFA"/>
<path d="M203.067 70.3018H197.691V75.6776H203.067V70.3018Z" fill="#FAFAFA"/>
<path d="M192.65 42.3096H187.274V47.6855H192.65V42.3096Z" fill="#FAFAFA"/>
<path d="M203.067 42.3096H197.691V47.6855H203.067V42.3096Z" fill="#F0F0F0"/>
<path d="M213.489 70.3018H208.108V75.6776H213.489V70.3018Z" fill="#F0F0F0"/>
<path d="M182.233 80.0723H176.857V85.4481H182.233V80.0723Z" fill="#FAFAFA"/>
<path d="M192.65 80.0723H187.274V85.4481H192.65V80.0723Z" fill="#F0F0F0"/>
<path d="M203.067 80.0723H197.691V85.4481H203.067V80.0723Z" fill="#F0F0F0"/>
<path d="M213.489 80.0723H208.108V85.4481H213.489V80.0723Z" fill="#FAFAFA"/>
<path d="M182.233 89.8477H176.857V95.2283H182.233V89.8477Z" fill="#F0F0F0"/>
<path d="M192.65 89.8477H187.274V95.2283H192.65V89.8477Z" fill="#FAFAFA"/>
<path d="M203.067 89.8477H197.691V95.2283H203.067V89.8477Z" fill="#FAFAFA"/>
<path d="M213.489 89.8477H208.108V95.2283H213.489V89.8477Z" fill="#F0F0F0"/>
<path d="M182.233 99.6191H176.857V104.995H182.233V99.6191Z" fill="#F0F0F0"/>
<path d="M192.65 99.6191H187.274V104.995H192.65V99.6191Z" fill="#FAFAFA"/>
<path d="M203.067 99.6191H197.691V104.995H203.067V99.6191Z" fill="#F0F0F0"/>
<path d="M213.489 99.6191H208.108V104.995H213.489V99.6191Z" fill="#FAFAFA"/>
<path d="M182.233 109.39H176.857V114.77H182.233V109.39Z" fill="#FAFAFA"/>
<path d="M192.65 109.39H187.274V114.77H192.65V109.39Z" fill="#FAFAFA"/>
<path d="M203.067 109.39H197.691V114.77H203.067V109.39Z" fill="#F0F0F0"/>
<path d="M213.489 109.39H208.108V114.77H213.489V109.39Z" fill="#F0F0F0"/>
<path opacity="0.1" d="M215.253 7.71973H181.653V121.703H215.253V7.71973Z" fill="white"/>
<g opacity="0.3">
<path opacity="0.3" d="M211.966 7.71973H201.252L189.533 121.703H200.243L211.966 7.71973Z" fill="white"/>
</g>
<path d="M215.601 6.27637H181.436V9.16709H215.601V6.27637Z" fill="#E0E0E0"/>
<path d="M215.601 120.707H181.436V123.598H215.601V120.707Z" fill="#EBEBEB"/>
<path d="M216.926 126.065H179.889V3.45703H216.926V126.065ZM182.714 123.235H214.106V6.28644H182.714V123.235Z" fill="#EBEBEB"/>
<path d="M178.668 7.71973H145.069V121.703H178.668V7.71973Z" fill="#FAFAFA"/>
<path d="M176.126 85.8447H147.394V121.104H176.126V85.8447Z" fill="#E6E6E6"/>
<path d="M173.627 89.7539H166.94H165.101H163.262V93.4321H165.101H166.94H173.627V89.7539Z" fill="#E6E6E6"/>
<path d="M173.627 96.8789H166.94H165.101H163.262V100.557H165.101H166.94H173.627V96.8789Z" fill="#FAFAFA"/>
<path d="M173.627 104.005H166.94H165.101H163.262V107.683H165.101H166.94H173.627V104.005Z" fill="#E6E6E6"/>
<path d="M173.627 111.13H166.94H164.101H163.262V114.808H164.101H166.94H173.627V111.13Z" fill="#FAFAFA"/>
<path d="M160.258 89.7539H153.576H151.737H149.897V93.4321H151.737H153.576H160.258V89.7539Z" fill="#FAFAFA"/>
<path d="M160.258 96.8789H153.576H150.982H149.897V100.557H150.982H153.576H160.258V96.8789Z" fill="#FAFAFA"/>
<path d="M160.258 104.005H153.576H151.737H149.897V107.683H151.737H153.576H160.258V104.005Z" fill="#E6E6E6"/>
<path d="M160.258 111.13H153.576H151.737H149.897V114.808H151.737H153.576H160.258V111.13Z" fill="#FAFAFA"/>
<path opacity="0.1" d="M178.56 7.71973H144.96V121.703H178.56V7.71973Z" fill="white"/>
<g opacity="0.3">
<path opacity="0.3" d="M175.315 7.71973H164.606L152.883 121.703H163.597L175.315 7.71973Z" fill="white"/>
</g>
<path d="M178.951 6.27637H144.786V9.16709H178.951V6.27637Z" fill="#E0E0E0"/>
<path d="M178.951 120.707H144.786V123.598H178.951V120.707Z" fill="#EBEBEB"/>
<path d="M180.281 126.065H143.244V3.45703H180.281V126.065ZM146.064 123.235H177.456V6.28644H146.064V123.235Z" fill="#EBEBEB"/>
<path d="M90.631 7.71973H57.0317V121.703H90.631V7.71973Z" fill="#FAFAFA"/>
<path opacity="0.1" d="M90.5651 7.71973H56.9658V121.703H90.5651V7.71973Z" fill="white"/>
<g opacity="0.3">
<path opacity="0.3" d="M87.2826 7.71973H76.5686L64.8501 121.703H75.5594L87.2826 7.71973Z" fill="white"/>
</g>
<path d="M90.9186 6.27637H56.7534V9.16709H90.9186V6.27637Z" fill="#E0E0E0"/>
<path d="M90.9186 120.707H56.7534V123.598H90.9186V120.707Z" fill="#EBEBEB"/>
<path d="M92.2436 126.065H55.2065V3.45703H92.2436V126.065ZM58.0312 123.235H89.4189V6.28644H58.0312V123.235Z" fill="#EBEBEB"/>
<path d="M54.0324 7.71973H20.4331V121.703H54.0324V7.71973Z" fill="#FAFAFA"/>
<path d="M48.968 55.9893H22.9609V77.8135H48.968V55.9893Z" fill="#E6E6E6"/>
<path d="M27.9548 58.71H24.6255V62.0392H27.9548V58.71Z" fill="#FAFAFA"/>
<path d="M34.4054 58.71H31.0762V62.0392H34.4054V58.71Z" fill="#FAFAFA"/>
<path d="M40.8566 58.71H37.5273V62.0392H40.8566V58.71Z" fill="#FAFAFA"/>
<path d="M47.3029 58.71H43.9736V62.0392H47.3029V58.71Z" fill="#FAFAFA"/>
<path d="M27.9548 64.7607H24.6255V68.09H27.9548V64.7607Z" fill="#FAFAFA"/>
<path d="M34.4054 64.7607H31.0762V68.09H34.4054V64.7607Z" fill="#FAFAFA"/>
<path d="M40.8566 64.7607H37.5273V68.09H40.8566V64.7607Z" fill="#FAFAFA"/>
<path d="M47.3029 64.7607H43.9736V68.09H47.3029V64.7607Z" fill="#E6E6E6"/>
<path d="M27.9548 70.8057H24.6255V74.1349H27.9548V70.8057Z" fill="#E6E6E6"/>
<path d="M34.4054 70.8057H31.0762V74.1349H34.4054V70.8057Z" fill="#E6E6E6"/>
<path d="M40.8566 70.8057H37.5273V74.1349H40.8566V70.8057Z" fill="#FAFAFA"/>
<path d="M47.3029 70.8057H43.9736V74.1349H47.3029V70.8057Z" fill="#E6E6E6"/>
<path d="M48.968 77.54H22.9609V99.3642H48.968V77.54Z" fill="#E6E6E6"/>
<path d="M27.9548 80.2559H24.6255V83.5851H27.9548V80.2559Z" fill="#FAFAFA"/>
<path d="M34.4054 80.2559H31.0762V83.5851H34.4054V80.2559Z" fill="#FAFAFA"/>
<path d="M40.8566 80.2559H37.5273V83.5851H40.8566V80.2559Z" fill="#FAFAFA"/>
<path d="M47.3029 80.2559H43.9736V83.5851H47.3029V80.2559Z" fill="#FAFAFA"/>
<path d="M27.9548 86.3066H24.6255V89.6359H27.9548V86.3066Z" fill="#FAFAFA"/>
<path d="M34.4054 86.3066H31.0762V89.6359H34.4054V86.3066Z" fill="#FAFAFA"/>
<path d="M40.8566 86.3066H37.5273V89.6359H40.8566V86.3066Z" fill="#FAFAFA"/>
<path d="M47.3029 86.3066H43.9736V89.6359H47.3029V86.3066Z" fill="#E6E6E6"/>
<path d="M27.9548 92.3564H24.6255V95.6857H27.9548V92.3564Z" fill="#E6E6E6"/>
<path d="M34.4054 92.3564H31.0762V95.6857H34.4054V92.3564Z" fill="#E6E6E6"/>
<path d="M40.8566 92.3564H37.5273V95.6857H40.8566V92.3564Z" fill="#FAFAFA"/>
<path d="M47.3029 92.3564H43.9736V95.6857H47.3029V92.3564Z" fill="#E6E6E6"/>
<path d="M48.968 99.0859H22.9609V120.91H48.968V99.0859Z" fill="#E6E6E6"/>
<path d="M27.9548 101.807H24.6255V105.136H27.9548V101.807Z" fill="#FAFAFA"/>
<path d="M34.4054 101.807H31.0762V105.136H34.4054V101.807Z" fill="#FAFAFA"/>
<path d="M40.8566 101.807H37.5273V105.136H40.8566V101.807Z" fill="#FAFAFA"/>
<path d="M47.3029 101.807H43.9736V105.136H47.3029V101.807Z" fill="#FAFAFA"/>
<path d="M27.9548 107.857H24.6255V111.187H27.9548V107.857Z" fill="#FAFAFA"/>
<path d="M34.4054 107.857H31.0762V111.187H34.4054V107.857Z" fill="#FAFAFA"/>
<path d="M40.8566 107.857H37.5273V111.187H40.8566V107.857Z" fill="#FAFAFA"/>
<path d="M47.3029 107.857H43.9736V111.187H47.3029V107.857Z" fill="#E6E6E6"/>
<path d="M27.9548 113.907H24.6255V117.237H27.9548V113.907Z" fill="#E6E6E6"/>
<path d="M34.4054 113.907H31.0762V117.237H34.4054V113.907Z" fill="#E6E6E6"/>
<path d="M40.8566 113.907H37.5273V117.237H40.8566V113.907Z" fill="#FAFAFA"/>
<path d="M47.3029 113.907H43.9736V117.237H47.3029V113.907Z" fill="#E6E6E6"/>
<path opacity="0.1" d="M53.589 7.71973H19.9897V121.703H53.589V7.71973Z" fill="white"/>
<g opacity="0.3">
<path opacity="0.3" d="M50.6793 7.71973H39.9699L28.2515 121.703H38.9608L50.6793 7.71973Z" fill="white"/>
</g>
<path d="M54.3199 6.27637H20.1548V9.16709H54.3199V6.27637Z" fill="#E0E0E0"/>
<path d="M54.3199 120.707H20.1548V123.598H54.3199V120.707Z" fill="#EBEBEB"/>
<path d="M55.6454 126.065H18.6084V3.45703H55.6454V126.065ZM21.4331 123.235H52.8207V6.28644H21.4331V123.235Z" fill="#EBEBEB"/>
<path d="M115.28 141.287L114.903 141.334C114.879 141.141 112.587 121.957 117.317 106.282C122.033 90.7207 118.779 80.7706 118.732 80.6763L119.095 80.5537C119.128 80.6527 122.396 90.6971 117.68 106.391C112.974 121.99 115.256 141.098 115.28 141.287Z" fill="#E0E0E0"/>
<path d="M119.42 82.8126C118.597 81.8316 117.479 81.1421 116.232 80.8462L116.322 80.4736C117.648 80.7885 118.837 81.5228 119.713 82.5674L119.42 82.8126Z" fill="#E0E0E0"/>
<path d="M121.038 84.3989L119.95 85.0137L120.138 85.3462L121.226 84.7314L121.038 84.3989Z" fill="#E0E0E0"/>
<path d="M119.01 93.243C118.061 91.0805 116.304 89.3747 114.115 88.4896L114.256 88.1406C116.537 89.0612 118.368 90.8362 119.359 93.0874L119.01 93.243Z" fill="#E0E0E0"/>
<path d="M117.991 105.226H117.609C117.597 104.454 117.414 103.695 117.073 103.003C116.732 102.31 116.242 101.702 115.638 101.222L115.874 100.925C116.522 101.441 117.048 102.094 117.415 102.838C117.781 103.581 117.978 104.397 117.991 105.226Z" fill="#E0E0E0"/>
<path d="M117.143 108.291L116.784 108.155C116.98 107.668 117.273 107.227 117.647 106.859C118.02 106.491 118.465 106.203 118.953 106.014L119.085 106.372C118.647 106.541 118.248 106.799 117.914 107.129C117.579 107.459 117.317 107.855 117.143 108.291Z" fill="#E0E0E0"/>
<path d="M114.671 127.734L114.379 127.494C114.85 126.933 115.195 124.806 115.383 123.665C115.426 123.391 115.464 123.16 115.497 122.99L115.869 123.061C115.841 123.226 115.803 123.457 115.756 123.726C115.478 125.438 115.162 127.145 114.671 127.734Z" fill="#E0E0E0"/>
<path d="M114.455 133.84C114.189 133.093 113.695 132.448 113.042 131.998C112.39 131.548 111.612 131.314 110.819 131.331V130.949C111.695 130.928 112.556 131.185 113.278 131.683C114 132.182 114.545 132.895 114.837 133.722L114.455 133.84Z" fill="#E0E0E0"/>
<path d="M117.365 137.829L114.681 140.832L114.966 141.087L117.65 138.084L117.365 137.829Z" fill="#E0E0E0"/>
<path d="M119.279 118.246C119.887 120.212 115.648 123.961 115.648 123.961C115.648 123.961 110.031 123.258 109.423 121.287C108.814 119.316 110.239 116.1 112.96 115.261C115.681 114.421 118.651 116.279 119.279 118.246Z" fill="#F0F0F0"/>
<path d="M123.966 94.3658C123.428 96.4548 119.411 97.9403 119.411 97.9403C119.411 97.9403 116.61 94.7006 117.147 92.6115C117.685 90.5225 119.906 88.2165 121.787 88.7022C123.669 89.188 124.504 92.2767 123.966 94.3658Z" fill="#EBEBEB"/>
<path d="M107.852 125.593C110.371 126.579 111.917 131.035 111.917 131.035C111.917 131.035 107.763 133.275 105.24 132.294C102.717 131.314 100.053 128.522 100.769 126.697C101.486 124.872 105.33 124.613 107.852 125.593Z" fill="#F5F5F5"/>
<path d="M113.379 101.057C113.888 101.486 114.472 101.817 115.101 102.033C115.418 102.134 115.756 102.148 116.08 102.071C116.404 101.995 116.701 101.832 116.94 101.599C117.482 100.977 117.336 100.015 116.996 99.2649C116.322 97.7795 113.837 95.2613 111.927 95.964C109.173 97.025 112.149 100.147 113.379 101.057Z" fill="#E6E6E6"/>
<path d="M119.019 104.844C118.656 105.292 118.274 105.853 118.472 106.396C118.584 106.626 118.77 106.812 119 106.924C119.229 107.037 119.49 107.07 119.741 107.018C120.239 106.902 120.705 106.674 121.104 106.353C122.075 105.674 124.07 104.259 122.796 102.934C121.523 101.609 119.778 103.896 119.019 104.844Z" fill="#EBEBEB"/>
<path d="M110.88 85.9806C110.67 85.9921 110.469 86.0693 110.306 86.2014C110.143 86.3334 110.025 86.5136 109.97 86.7163C109.89 87.1879 110.29 87.6217 110.677 87.9188C111.644 88.6639 114.544 90.6728 115.195 88.7346C115.808 86.9049 112.163 85.825 110.88 85.9806Z" fill="#E0E0E0"/>
<path d="M116.233 79.6056C115.634 79.6621 115.035 79.4452 114.436 79.483C113.837 79.5207 113.167 80.0017 113.304 80.5911C113.441 81.1806 114.101 81.3126 114.653 81.3504C115.601 81.4069 116.552 81.3403 117.482 81.1523C117.702 81.1325 117.906 81.0296 118.053 80.8646C118.298 80.5063 117.911 80.0253 117.496 79.9215C117.069 79.8666 116.649 79.7671 116.242 79.6244L116.233 79.6056Z" fill="#E6E6E6"/>
<path d="M122.108 83.7268C122.712 83.7268 123.292 83.4863 123.895 83.4863C124.499 83.4863 125.192 83.9202 125.098 84.5144C125.004 85.1085 124.348 85.2924 123.796 85.3632C122.857 85.4877 121.906 85.4877 120.967 85.3632C120.744 85.3583 120.532 85.269 120.373 85.1132C120.109 84.769 120.462 84.2691 120.844 84.1135C121.269 84.0313 121.683 83.9032 122.08 83.7315L122.108 83.7268Z" fill="#F0F0F0"/>
<path d="M121.49 128.036C121.627 127.894 121.809 127.804 122.004 127.781C122.133 127.796 122.253 127.853 122.345 127.944C122.437 128.034 122.497 128.153 122.514 128.281C122.541 128.538 122.509 128.798 122.419 129.04C122.009 130.403 117.435 140.283 116.379 138.509C115.756 137.458 117.289 133.987 117.741 133.002C118.612 131.092 119.892 129.396 121.49 128.036Z" fill="#F0F0F0"/>
<path d="M118.755 79.9779C119.051 79.1414 119.556 78.3945 120.222 77.8087C120.943 77.2853 122.108 77.2476 122.627 77.9691C123.216 78.7754 122.627 80.0015 121.726 80.4306C120.826 80.8598 119.774 80.7277 118.784 80.591C118.784 80.4448 118.784 80.2986 118.76 80.1524L118.755 79.9779Z" fill="#E6E6E6"/>
<path d="M121.952 154.463C117.052 155.298 112.046 155.298 107.145 154.463L101.387 137.486H127.715L121.952 154.463Z" fill="#F0F0F0"/>
<path d="M118.614 27.3413C124.013 27.3413 128.39 22.9646 128.39 17.5657C128.39 12.1667 124.013 7.79004 118.614 7.79004C113.215 7.79004 108.838 12.1667 108.838 17.5657C108.838 22.9646 113.215 27.3413 118.614 27.3413Z" fill="#E0E0E0"/>
<path d="M127.611 18.7274C128.476 13.3983 124.857 8.37684 119.528 7.5118C114.198 6.64675 109.177 10.2656 108.312 15.5948C107.447 20.924 111.066 25.9454 116.395 26.8104C121.724 27.6755 126.746 24.0566 127.611 18.7274Z" fill="#EBEBEB"/>
<path opacity="0.8" d="M125.8 17.2219C125.8 18.7739 125.34 20.291 124.478 21.5814C123.616 22.8718 122.39 23.8776 120.956 24.4715C119.522 25.0654 117.945 25.2208 116.422 24.918C114.9 24.6153 113.502 23.8679 112.405 22.7705C111.307 21.6731 110.56 20.2749 110.257 18.7528C109.954 17.2306 110.11 15.6529 110.704 14.219C111.298 12.7852 112.303 11.5597 113.594 10.6974C114.884 9.83522 116.401 9.375 117.953 9.375C120.034 9.375 122.03 10.2017 123.502 11.6733C124.974 13.1449 125.8 15.1408 125.8 17.2219Z" fill="white"/>
<path d="M117.529 17.9616C117.381 17.812 117.298 17.6096 117.298 17.3988C117.299 17.188 117.383 16.986 117.532 16.8369C117.681 16.6879 117.883 16.604 118.094 16.6035C118.304 16.6031 118.507 16.6862 118.656 16.8346C118.731 16.9085 118.79 16.9964 118.831 17.0932C118.871 17.19 118.892 17.2939 118.892 17.3988C118.892 17.5037 118.872 17.6077 118.832 17.7047C118.792 17.8017 118.733 17.8898 118.659 17.964C118.585 18.0382 118.496 18.097 118.4 18.1371C118.303 18.1771 118.199 18.1976 118.094 18.1974C117.989 18.1972 117.885 18.1763 117.788 18.1358C117.691 18.0953 117.603 18.0361 117.529 17.9616Z" fill="#E0E0E0"/>
<path d="M117.954 17.1278L122.584 16.9863L122.599 17.4673L118.402 17.5947L117.949 24.8945L117.473 24.8662L117.954 17.1278Z" fill="#E0E0E0"/>
<path d="M118.335 175.428C168.832 175.428 209.768 173.038 209.768 170.09C209.768 167.142 168.832 164.752 118.335 164.752C67.8385 164.752 26.9028 167.142 26.9028 170.09C26.9028 173.038 67.8385 175.428 118.335 175.428Z" fill="#F5F5F5"/>
<path d="M203.383 145.201L205.779 107.07C205.989 103.716 205.511 100.355 204.372 97.1937C203.234 94.0324 201.459 91.1378 199.159 88.6885C196.859 86.2393 194.081 84.2873 190.997 82.9531C187.913 81.6188 184.589 80.9305 181.229 80.9307C174.946 80.9315 168.901 83.3367 164.335 87.6527C159.769 91.9687 157.028 97.8683 156.674 104.141L154.175 148.676H199.681C200.624 148.676 201.532 148.316 202.219 147.671C202.907 147.025 203.323 146.142 203.383 145.201Z" fill="#144B84"/>
<path opacity="0.1" d="M203.468 143.828L205.779 107.079C205.989 103.725 205.511 100.364 204.372 97.2025C203.234 94.0412 201.459 91.1466 199.159 88.6973C196.859 86.2481 194.081 84.2961 190.997 82.9618C187.913 81.6276 184.589 80.9393 181.229 80.9395C174.946 80.9403 168.901 83.3454 164.335 87.6615C159.769 91.9775 157.028 97.8771 156.674 104.15L154.175 148.676H198.309C199.623 148.671 200.886 148.168 201.844 147.269C202.801 146.369 203.382 145.139 203.468 143.828Z" fill="black"/>
<path d="M195.998 148.676L198.611 107.07C198.821 103.716 198.341 100.356 197.203 97.1945C196.064 94.0334 194.29 91.1391 191.99 88.69C189.689 86.2409 186.912 84.2889 183.828 82.9544C180.745 81.6199 177.421 80.9312 174.061 80.9307C167.777 80.9304 161.732 83.3351 157.166 87.6514C152.6 91.9676 149.859 97.8679 149.506 104.141L146.993 148.676H195.998Z" fill="#144B84"/>
<path d="M196.781 155.839H197.408C197.577 155.83 197.737 155.761 197.86 155.644C197.983 155.527 198.06 155.371 198.078 155.202L199.021 148.681H195.201L196.144 155.202C196.162 155.365 196.234 155.517 196.35 155.633C196.466 155.749 196.618 155.822 196.781 155.839Z" fill="#144B84"/>
<path opacity="0.7" d="M196.781 155.839H197.408C197.577 155.83 197.737 155.761 197.86 155.644C197.983 155.527 198.06 155.371 198.078 155.202L199.021 148.681H195.201L196.144 155.202C196.162 155.365 196.234 155.517 196.35 155.633C196.466 155.749 196.618 155.822 196.781 155.839Z" fill="white"/>
<path d="M135.171 155.839H135.736C135.897 155.823 136.046 155.749 136.158 155.633C136.269 155.516 136.336 155.364 136.345 155.202L137.198 148.681H133.728L134.572 155.202C134.581 155.362 134.645 155.513 134.755 155.63C134.865 155.746 135.012 155.82 135.171 155.839Z" fill="#144B84"/>
<path opacity="0.5" d="M135.171 155.839H135.736C135.897 155.823 136.046 155.749 136.158 155.633C136.269 155.516 136.336 155.364 136.345 155.202L137.198 148.681H133.728L134.572 155.202C134.581 155.362 134.645 155.513 134.755 155.63C134.865 155.746 135.012 155.82 135.171 155.839Z" fill="white"/>
<path d="M152.906 155.839H153.477C153.637 155.823 153.787 155.749 153.898 155.633C154.01 155.516 154.076 155.364 154.085 155.202L154.925 148.681H151.458L152.288 155.202C152.298 155.365 152.366 155.519 152.479 155.636C152.592 155.752 152.744 155.825 152.906 155.839Z" fill="#144B84"/>
<path opacity="0.7" d="M152.906 155.839H153.477C153.637 155.823 153.787 155.749 153.898 155.633C154.01 155.516 154.076 155.364 154.085 155.202L154.925 148.681H151.458L152.288 155.202C152.298 155.365 152.366 155.519 152.479 155.636C152.592 155.752 152.744 155.825 152.906 155.839Z" fill="white"/>
<path d="M177.682 155.839H178.309C178.479 155.829 178.639 155.76 178.762 155.643C178.886 155.527 178.964 155.371 178.984 155.202L179.927 148.681H176.103L177.046 155.202C177.062 155.366 177.135 155.518 177.251 155.634C177.367 155.75 177.519 155.823 177.682 155.839Z" fill="#144B84"/>
<path opacity="0.5" d="M177.682 155.839H178.309C178.479 155.829 178.639 155.76 178.762 155.643C178.886 155.527 178.964 155.371 178.984 155.202L179.927 148.681H176.103L177.046 155.202C177.062 155.366 177.135 155.518 177.251 155.634C177.367 155.75 177.519 155.823 177.682 155.839Z" fill="white"/>
<path d="M156.919 132.982H140.15L139.042 116.817L138.801 113.346L138.693 111.747C138.662 111.328 138.607 110.911 138.528 110.498C138.528 110.408 138.49 110.309 138.471 110.219C138.461 110.152 138.444 110.085 138.419 110.021C137.967 108.374 137.087 106.875 135.868 105.678C134.461 104.289 132.602 103.452 130.629 103.32H146.403C146.573 103.32 146.747 103.32 146.922 103.32C149.06 103.33 151.11 104.176 152.632 105.678C153.853 106.875 154.735 108.373 155.188 110.021C155.213 110.085 155.23 110.152 155.24 110.219C155.351 110.723 155.425 111.233 155.462 111.747L155.57 113.346L156.919 132.982Z" fill="#144B84"/>
<path opacity="0.1" d="M156.919 132.982H140.15L139.042 116.817L138.801 113.346L138.693 111.747C138.662 111.328 138.607 110.911 138.528 110.498C138.528 110.408 138.49 110.309 138.471 110.219C138.461 110.152 138.444 110.085 138.419 110.021C137.967 108.374 137.087 106.875 135.868 105.678C134.461 104.289 132.602 103.452 130.629 103.32H146.403C146.573 103.32 146.747 103.32 146.922 103.32C149.06 103.33 151.11 104.176 152.632 105.678C153.853 106.875 154.735 108.373 155.188 110.021C155.213 110.085 155.23 110.152 155.24 110.219C155.351 110.723 155.425 111.233 155.462 111.747L155.57 113.346L156.919 132.982Z" fill="black"/>
<g opacity="0.1">
<path opacity="0.1" d="M170.208 124.353H176.942C178.583 124.353 179.908 125.39 179.908 126.668V130.648C179.908 131.931 178.583 132.963 176.942 132.963H170.208V124.353Z" fill="black"/>
</g>
<path d="M142.711 132.963H172.372C173.784 132.963 174.928 131.819 174.928 130.407V126.903C174.928 125.492 173.784 124.347 172.372 124.347H142.711C141.299 124.347 140.155 125.492 140.155 126.903V130.407C140.155 131.819 141.299 132.963 142.711 132.963Z" fill="#144B84"/>
<path d="M212.649 112.832C212.653 115.087 211.86 117.27 210.409 118.996C208.959 120.722 206.944 121.88 204.722 122.264L203.001 145.243C202.85 147.195 201.431 148.69 199.733 148.69H181.238C182.936 148.69 184.351 147.195 184.502 145.243L185.445 132.982L186.242 122.249C187.695 122 189.071 121.416 190.26 120.543C191.449 119.671 192.419 118.534 193.094 117.222C193.186 117.056 193.27 116.884 193.343 116.708C193.888 115.489 194.168 114.168 194.164 112.832C194.163 112.178 194.097 111.526 193.966 110.885C193.914 110.63 193.848 110.375 193.777 110.125C193.441 109.002 192.905 107.949 192.193 107.018C191.3 105.855 190.153 104.914 188.839 104.264C187.525 103.615 186.08 103.276 184.615 103.273H203.11C204.592 103.268 206.054 103.614 207.377 104.283C208.671 104.926 209.8 105.857 210.678 107.004C211.962 108.675 212.655 110.725 212.649 112.832Z" fill="#144B84"/>
<path opacity="0.1" d="M212.649 112.832C212.653 115.087 211.86 117.27 210.409 118.996C208.959 120.722 206.944 121.88 204.722 122.264L203.001 145.243C202.85 147.195 201.431 148.69 199.733 148.69H181.238C182.936 148.69 184.351 147.195 184.502 145.243L185.445 132.982L186.242 122.249C187.695 122 189.071 121.416 190.26 120.543C191.449 119.671 192.419 118.534 193.094 117.222C193.186 117.056 193.27 116.884 193.343 116.708C193.888 115.489 194.168 114.168 194.164 112.832C194.163 112.178 194.097 111.526 193.966 110.885C193.914 110.63 193.848 110.375 193.777 110.125C193.441 109.002 192.905 107.949 192.193 107.018C191.3 105.855 190.153 104.914 188.839 104.264C187.525 103.615 186.08 103.276 184.615 103.273H203.11C204.592 103.268 206.054 103.614 207.377 104.283C208.671 104.926 209.8 105.857 210.678 107.004C211.962 108.675 212.655 110.725 212.649 112.832Z" fill="black"/>
<path d="M194.169 112.837C194.169 117.552 191.061 121.48 186.982 122.268L185.407 145.243C185.27 147.195 183.992 148.695 182.445 148.695H133.053C131.516 148.695 130.224 147.195 130.092 145.243L128.512 122.225C124.513 121.386 121.49 117.51 121.49 112.851C121.481 110.895 122.036 108.977 123.089 107.329C123.886 106.072 124.983 105.033 126.281 104.306C127.464 103.641 128.797 103.292 130.153 103.292C132.292 103.305 134.343 104.15 135.868 105.65C137.087 106.845 137.968 108.342 138.42 109.988C138.444 110.055 138.462 110.125 138.472 110.196C138.583 110.697 138.657 111.206 138.693 111.719L138.806 113.318L140.15 132.982H175.348L176.805 111.761C177.013 108.762 178.475 106.263 180.502 105.079C181.784 104.054 183.349 103.446 184.987 103.339C185.159 103.322 185.333 103.314 185.506 103.316C186.823 103.308 188.12 103.633 189.278 104.259C189.314 104.275 189.349 104.294 189.382 104.315C190.578 104.979 191.604 105.91 192.381 107.036C193.552 108.744 194.175 110.767 194.169 112.837Z" fill="#144B84"/>
<path opacity="0.1" d="M174.532 148.681H133.034C131.497 148.681 130.205 147.181 130.073 145.229L128.493 122.212C124.494 121.372 121.471 117.496 121.471 112.837C121.462 110.881 122.017 108.964 123.07 107.315C123.867 106.058 124.964 105.019 126.262 104.292C127.445 103.627 128.778 103.278 130.134 103.278C132.273 103.291 134.323 104.137 135.849 105.636C137.068 106.831 137.949 108.328 138.401 109.975C138.425 110.042 138.442 110.111 138.453 110.182C138.564 110.684 138.638 111.193 138.674 111.705L138.787 113.304L140.15 132.982H175.348L174.532 148.681Z" fill="white"/>
<path d="M169.152 83.3355C168.331 83.8071 167.582 84.1985 166.794 84.5993C166.007 85.0002 165.233 85.368 164.436 85.7358C162.852 86.4573 161.248 87.1505 159.598 87.7494C157.934 88.3682 156.241 88.9033 154.524 89.3528C152.738 89.8328 150.914 90.1594 149.072 90.3289L148.681 90.3666H148.497C146.833 90.1733 145.357 89.8951 143.876 89.565C142.395 89.2349 140.928 88.9095 139.476 88.5369C138.024 88.1644 136.581 87.7824 135.138 87.3675C133.695 86.9525 132.266 86.5233 130.837 86.0376L131.492 82.7649C134.459 82.9536 137.42 83.2365 140.353 83.543L144.734 83.9816C146.177 84.1231 147.653 84.2457 148.945 84.2928H148.375C149.854 84.0291 151.314 83.6604 152.741 83.1894C154.217 82.7178 155.693 82.1802 157.169 81.5483C158.645 80.9164 160.107 80.2656 161.56 79.5724C162.305 79.2329 163.026 78.8745 163.734 78.5208C164.441 78.1671 165.195 77.7899 165.841 77.4551L169.152 83.3355Z" fill="#263238"/>
<path opacity="0.1" d="M169.152 83.3355C168.331 83.8071 167.582 84.1985 166.794 84.5993C166.007 85.0002 165.233 85.368 164.436 85.7358C162.852 86.4573 161.248 87.1505 159.598 87.7494C157.934 88.3682 156.241 88.9033 154.524 89.3528C152.738 89.8328 150.914 90.1594 149.072 90.3289L148.681 90.3666H148.497C146.833 90.1733 145.357 89.8951 143.876 89.565C142.395 89.2349 140.928 88.9095 139.476 88.5369C138.024 88.1644 136.581 87.7824 135.138 87.3675C133.695 86.9525 132.266 86.5233 130.837 86.0376L131.492 82.7649C134.459 82.9536 137.42 83.2365 140.353 83.543L144.734 83.9816C146.177 84.1231 147.653 84.2457 148.945 84.2928H148.375C149.854 84.0291 151.314 83.6604 152.741 83.1894C154.217 82.7178 155.693 82.1802 157.169 81.5483C158.645 80.9164 160.107 80.2656 161.56 79.5724C162.305 79.2329 163.026 78.8745 163.734 78.5208C164.441 78.1671 165.195 77.7899 165.841 77.4551L169.152 83.3355Z" fill="black"/>
<path d="M130.893 80.9684C130.196 80.4791 129.426 80.1035 128.611 79.8555L127.39 84.623L131.049 86.1603L131.464 85.6511C131.745 85.3109 131.955 84.917 132.079 84.4933C132.203 84.0697 132.239 83.6252 132.186 83.187C132.132 82.7488 131.99 82.3261 131.768 81.9446C131.546 81.5632 131.248 81.231 130.893 80.9684Z" fill="#FFC3BD"/>
<path d="M127.39 84.6224L128.611 79.8549L125.197 77.9922L124.169 81.3498L127.39 84.6224Z" fill="#FFC3BD"/>
<path opacity="0.2" d="M157.669 88.1829H157.801H157.858C159.659 87.9895 164.955 87.0983 168.784 83.321C168.213 82.2175 167.43 81.364 166.473 81.1707C163.832 80.6708 160.597 82.5618 157.669 88.1829Z" fill="black"/>
<path d="M160.777 112.832C165.294 100.632 162.324 89.4134 162.889 83.2029C163.029 81.672 163.662 80.228 164.695 79.0895C165.728 77.9511 167.104 77.1801 168.614 76.8933C171.698 76.2991 175.513 75.6295 179.149 75.1391C180.165 74.9988 181.199 75.08 182.181 75.377C183.163 75.6741 184.069 76.18 184.836 76.8599C185.604 77.5399 186.216 78.378 186.629 79.3165C187.043 80.2551 187.248 81.272 187.232 82.2975C186.916 100.689 181.021 112.832 181.021 112.832L171.496 112.789L160.777 112.832Z" fill="#144B84"/>
<path opacity="0.8" d="M160.777 112.832C165.294 100.632 162.324 89.4134 162.889 83.2029C163.029 81.672 163.662 80.228 164.695 79.0895C165.728 77.9511 167.104 77.1801 168.614 76.8933C171.698 76.2991 175.513 75.6295 179.149 75.1391C180.165 74.9988 181.199 75.08 182.181 75.377C183.163 75.6741 184.069 76.18 184.836 76.8599C185.604 77.5399 186.216 78.378 186.629 79.3165C187.043 80.2551 187.248 81.272 187.232 82.2975C186.916 100.689 181.021 112.832 181.021 112.832L171.496 112.789L160.777 112.832Z" fill="white"/>
<path d="M124.635 154.457L123.428 162.394H127.262L129.78 154.457H124.635Z" fill="#FFC3BD"/>
<path d="M122.938 160.625L128.064 160.503C128.104 160.498 128.144 160.502 128.183 160.514C128.221 160.526 128.257 160.546 128.287 160.573C128.317 160.6 128.342 160.632 128.358 160.669C128.375 160.706 128.384 160.745 128.384 160.786V164.558C128.361 164.767 128.263 164.961 128.108 165.102C127.952 165.244 127.75 165.324 127.54 165.327C125.758 165.327 124.909 165.261 122.655 165.327C120.255 165.319 117.858 165.162 115.478 164.855C113.653 164.544 114.148 162.832 114.973 162.804C118.698 162.667 120.783 161.889 122.122 160.918C122.355 160.735 122.641 160.633 122.938 160.625Z" fill="#263238"/>
<path opacity="0.2" d="M124.15 157.64L124.636 154.457H129.78L128.545 158.428L124.15 157.64Z" fill="black"/>
<path d="M158.419 109.974C158.419 109.974 127.224 110.285 126.739 120.165C126.05 134.368 123.65 156.004 123.65 156.004L129.53 157.621C129.53 157.621 137.924 136.151 138.25 125.055C147.026 123.31 169.581 125.055 172.231 119.292C173.526 116.359 173.876 113.096 173.231 109.955L158.419 109.974Z" fill="#144B84"/>
<path opacity="0.6" d="M158.419 109.974C158.419 109.974 127.224 110.285 126.739 120.165C126.05 134.368 123.65 156.004 123.65 156.004L129.53 157.621C129.53 157.621 137.924 136.151 138.25 125.055C147.026 123.31 169.581 125.055 172.231 119.292C173.526 116.359 173.876 113.096 173.231 109.955L158.419 109.974Z" fill="black"/>
<path d="M152.081 157.527L154.16 162.913H158.367L156.919 157.249L152.081 157.527Z" fill="#FFC3BD"/>
<path opacity="0.2" d="M157.311 158.777L156.495 154.632L151.18 155.292L152.543 158.895L157.311 158.777Z" fill="black"/>
<path d="M153.019 161.13H158.391C158.477 161.123 158.563 161.151 158.63 161.208C158.696 161.264 158.737 161.345 158.744 161.432L159.004 165.454C158.999 165.672 158.908 165.879 158.752 166.03C158.596 166.182 158.387 166.267 158.169 166.265C156.283 166.232 155.406 166.128 153.043 166.128C151.595 166.128 148.662 166.27 146.658 166.27C144.654 166.27 144.71 164.384 145.554 164.237C149.374 163.474 150.85 162.422 152.194 161.408C152.433 161.231 152.722 161.133 153.019 161.13Z" fill="#263238"/>
<path d="M166.808 109.973C166.808 109.973 138.514 111.893 139.211 121.763C139.971 132.571 151.302 157.635 151.302 157.635H157.004C157.004 157.635 153.231 134.896 151.496 123.88C159.475 123.88 177.965 125.083 180.625 119.306C181.915 116.371 182.261 113.109 181.615 109.969L166.808 109.973Z" fill="#144B84"/>
<path opacity="0.5" d="M166.808 109.973C166.808 109.973 138.514 111.893 139.211 121.763C139.971 132.571 151.302 157.635 151.302 157.635H157.004C157.004 157.635 153.231 134.896 151.496 123.88C159.475 123.88 177.965 125.083 180.625 119.306C181.915 116.371 182.261 113.109 181.615 109.969L166.808 109.973Z" fill="black"/>
<path d="M171.095 69.9901C171.746 72.5083 171.948 75.6489 168.43 76.9457C167.454 78.5019 166.978 80.143 170.736 79.5582C173.728 79.1714 176.451 77.6317 178.324 75.2669C176.075 73.2958 176.485 67.2503 177.055 63.8408L171.095 69.9901Z" fill="#FFC3BD"/>
<path d="M170.68 74.5732C167.449 75.125 164.795 77.6243 163.37 80.5716C161.946 83.5189 161.602 86.8765 161.63 90.1539C161.659 93.4313 162.031 96.6945 161.942 99.9672C161.843 103.74 160.932 106.414 159.631 109.969C159.631 110.813 160.909 111.29 161.989 111.511C164.243 106.593 165.724 101.887 165.568 96.4823C165.45 92.5589 165.398 88.0884 166.039 84.2215C166.681 80.3547 171.307 75.3042 171.085 74.6063L170.68 74.5732Z" fill="#263238"/>
<path opacity="0.3" d="M173.839 71.839C173.5 72.0904 173.115 72.2709 172.705 72.3698C172.295 72.4686 171.869 72.4838 171.453 72.4143C171.461 71.8018 171.416 71.1897 171.321 70.5846L175.225 67.3779C175.311 67.7947 175.366 68.217 175.39 68.6417C175.433 69.2636 175.312 69.8857 175.04 70.4465C174.767 71.0073 174.354 71.4873 173.839 71.839Z" fill="black"/>
<path d="M168.001 55.0979C163.875 57.4322 163.833 64.0295 165.106 67.8303C165.427 68.8276 166.016 69.7175 166.809 70.4026C167.602 71.0877 168.568 71.5417 169.601 71.715C170.634 71.8883 171.695 71.7741 172.668 71.3851C173.641 70.9961 174.488 70.3471 175.117 69.5091C177.136 66.9579 176.843 64.3831 176.744 59.9504C176.645 55.5176 172.132 52.7684 168.001 55.0979Z" fill="#FFC3BD"/>
<path opacity="0.2" d="M169.331 66.9624C168.001 67.533 166.544 68.2734 165.2 68.113C165.561 69.0687 166.173 69.9099 166.97 70.5488C167.768 71.1878 168.722 71.601 169.733 71.7455C170.745 71.89 171.777 71.7605 172.721 71.3704C173.665 70.9803 174.488 70.344 175.103 69.5277C176.767 67.434 177.281 66.0193 176.81 62.209C174.226 65.2365 172.174 65.7363 169.331 66.9624Z" fill="black"/>
<path d="M173.32 56.5881C172.892 57.2842 172.701 58.1007 172.777 58.9146C172.853 59.7285 173.191 60.4958 173.74 61.101C174.113 61.4924 174.57 61.7942 174.928 62.195C175.487 62.8239 175.778 63.6463 175.74 64.4868C175.823 63.9461 176.093 63.4513 176.501 63.0874C176.91 62.7235 177.433 62.513 177.979 62.4921C177.42 64.2243 176.86 65.9534 176.301 67.6794C177.408 67.1627 178.366 66.3717 179.082 65.3814C179.798 64.3911 180.25 63.2343 180.394 62.0205C180.752 58.6724 176.621 51.4998 173.32 56.5881Z" fill="#263238"/>
<path d="M163.691 56.819C163.375 57.1696 163.15 57.5922 163.035 58.0498C162.98 58.2765 162.996 58.5146 163.08 58.7321C163.164 58.9497 163.313 59.1361 163.507 59.2664C163.864 59.4103 164.259 59.4302 164.629 59.323L168.402 58.6675C170.562 58.2903 172.721 57.9177 174.853 57.4037C175.796 57.1774 176.885 56.8143 177.263 55.9089C178.484 52.9615 173.268 52.5796 171.524 52.6597C168.553 52.8154 165.549 54.5224 163.691 56.819Z" fill="#263238"/>
<path d="M177.414 61.7372C176.178 62.0154 175.65 63.7932 175.683 64.9344C175.683 66.2312 176.626 67.0753 177.72 66.2925C178.533 65.6886 179.086 64.7986 179.267 63.8026C179.489 62.5813 178.654 61.4589 177.414 61.7372Z" fill="#FFC3BD"/>
<path d="M168.685 66.2406C168.498 66.3653 168.285 66.4473 168.063 66.4807C167.84 66.5141 167.613 66.4982 167.397 66.4339C167.869 65.3682 167.812 65.6087 167.959 63.7979L168.685 66.2406Z" fill="#ED847E"/>
<path d="M170.859 60.3604C170.505 59.9642 169.538 59.8133 169.015 59.8888C168.962 59.8957 168.909 59.8819 168.865 59.8502C168.822 59.8186 168.793 59.7716 168.784 59.719C168.777 59.6625 168.791 59.6053 168.825 59.559C168.858 59.5126 168.907 59.4805 168.963 59.4691C169.623 59.3701 170.722 59.5681 171.17 60.0633C171.209 60.1029 171.231 60.1563 171.231 60.2118C171.231 60.2674 171.209 60.3207 171.17 60.3604C171.144 60.3877 171.111 60.4087 171.076 60.4217C171.038 60.4334 170.997 60.4339 170.958 60.423C170.92 60.4122 170.885 60.3904 170.859 60.3604Z" fill="#263238"/>
<path d="M164.757 61.2427C164.712 61.2121 164.682 61.1655 164.671 61.1127C164.66 61.0599 164.671 61.0051 164.7 60.9598C164.865 60.6622 165.097 60.4072 165.378 60.2149C165.659 60.0225 165.98 59.8982 166.317 59.8516C166.343 59.851 166.369 59.8555 166.393 59.865C166.417 59.8744 166.439 59.8885 166.457 59.9066C166.476 59.9246 166.49 59.9461 166.5 59.9699C166.51 59.9936 166.516 60.0192 166.516 60.045C166.518 60.1022 166.498 60.1583 166.461 60.2014C166.423 60.2445 166.37 60.2712 166.313 60.276C166.047 60.3185 165.794 60.4208 165.574 60.5752C165.353 60.7296 165.17 60.932 165.039 61.1673C165.022 61.198 164.998 61.224 164.968 61.243C164.939 61.2619 164.905 61.2732 164.87 61.2758C164.829 61.2791 164.789 61.2673 164.757 61.2427Z" fill="#263238"/>
<path d="M168.322 68.1599C168.775 68.7372 169.193 69.342 169.571 69.9708L169.864 69.8482C171.194 69.2728 171.571 68.4712 171.59 67.7591C171.574 67.1926 171.399 66.642 171.085 66.1699C170.614 66.9857 169.421 67.6365 168.77 67.9525C168.492 68.0892 168.322 68.1599 168.322 68.1599Z" fill="#2E353A"/>
<path d="M168.76 67.9525L168.954 68.2165C169.007 68.2874 169.082 68.3384 169.167 68.3615C169.253 68.3846 169.344 68.3784 169.425 68.3438C170.406 67.8723 171.057 67.4007 171.311 66.8678C171.335 66.8176 171.347 66.7629 171.347 66.7075C171.347 66.6521 171.335 66.5974 171.311 66.5472C171.248 66.4163 171.176 66.2902 171.095 66.1699C170.599 66.9857 169.411 67.6365 168.76 67.9525Z" fill="white"/>
<path d="M169.854 69.8488C171.184 69.2735 171.562 68.4718 171.58 67.7598C171.075 67.9928 170.627 68.3322 170.265 68.7548C170.016 69.0668 169.872 69.4499 169.854 69.8488Z" fill="#DE5753"/>
<path d="M166.27 62.7188C166.039 62.7612 165.912 63.0913 165.978 63.445C166.044 63.7986 166.294 64.0533 166.525 64.0061C166.756 63.959 166.883 63.6383 166.817 63.2846C166.751 62.931 166.501 62.7188 166.27 62.7188Z" fill="#263238"/>
<path d="M170.316 62.0672C170.085 62.1096 169.958 62.435 170.024 62.7934C170.09 63.1518 170.34 63.4017 170.571 63.3546C170.802 63.3074 170.929 62.982 170.863 62.6284C170.797 62.2747 170.547 62.0248 170.316 62.0672Z" fill="#263238"/>
<path opacity="0.9" d="M164.488 64.6325L167.463 63.9629L167.515 65.2267L164.747 65.8869L164.488 64.6325Z" fill="white"/>
<g opacity="0.8">
<path opacity="0.9" d="M168.369 63.7653L168.722 64.9254L172.542 64.1049L172.316 62.7656L168.369 63.7653Z" fill="white"/>
</g>
<path d="M167.482 64.4305L167.463 63.9637L168.369 63.7656L168.501 64.2042L167.482 64.4305Z" fill="#263238"/>
<path d="M166.398 112.289C166.398 112.289 171.769 114.369 173 114.774C174.415 115.328 175.904 115.67 177.419 115.788C178.187 115.84 178.957 115.727 179.678 115.458C180.399 115.189 181.055 114.77 181.601 114.227C182.884 112.86 183.285 110.785 183.62 108.837C184.601 103.119 185.585 97.4002 186.572 91.6817C187.043 88.8523 188.283 84.6081 188.18 83.0095C187.986 80.0386 186.095 76.5302 181.281 74.6015C179.394 73.8517 177.56 74.1299 175.985 76.0162C175.042 77.1385 172.297 79.8453 171.623 84.6129C171.085 88.4326 170.246 93.3793 170.298 97.2603C170.359 102.363 168.322 108.795 166.398 112.289Z" fill="#263238"/>
<path d="M187.915 81.4395C188.462 86.4099 185.713 98.9395 185.185 99.694C182.931 106.961 176.739 103.042 175.843 102.707C174.282 102.132 172.693 101.005 171.208 100.255C168.326 98.8404 165.596 97.6709 162.917 95.8931L164.426 92.9128C167.364 93.9125 175.678 96.0629 177.05 96.3977C177.645 96.5533 179.96 97.7653 179.936 96.1666C180.262 95.6338 180.714 85.2545 181.709 81.5857C181.823 81.174 182.02 80.7903 182.29 80.4587L182.379 80.3455C182.742 79.8903 183.224 79.5436 183.77 79.3433C184.317 79.143 184.908 79.0968 185.48 79.2097C186.051 79.3226 186.58 79.5903 187.01 79.9835C187.439 80.3767 187.753 80.8804 187.915 81.4395Z" fill="#263238"/>
<path opacity="0.1" d="M187.915 81.4395C188.462 86.4099 185.713 98.9395 185.185 99.694C182.931 106.961 176.739 103.042 175.843 102.707C174.282 102.132 172.693 101.005 171.208 100.255C168.326 98.8404 165.596 97.6709 162.917 95.8931L164.426 92.9128C167.364 93.9125 175.678 96.0629 177.05 96.3977C177.645 96.5533 179.96 97.7653 179.936 96.1666C180.262 95.6338 180.714 85.2545 181.709 81.5857C181.823 81.174 182.02 80.7903 182.29 80.4587L182.379 80.3455C182.742 79.8903 183.224 79.5436 183.77 79.3433C184.317 79.143 184.908 79.0968 185.48 79.2097C186.051 79.3226 186.58 79.5903 187.01 79.9835C187.439 80.3767 187.753 80.8804 187.915 81.4395Z" fill="white"/>
<path d="M163.248 100.208H149.289L147.695 81.9961H161.654L163.248 100.208Z" fill="#263238"/>
<path opacity="0.5" d="M163.248 100.208H149.289L147.695 81.9961H161.654L163.248 100.208Z" fill="white"/>
<path d="M162.753 100.118H148.794L147.2 81.9062H161.159L162.753 100.118Z" fill="#144B84"/>
<path opacity="0.8" d="M162.753 100.118H148.794L147.2 81.9062H161.159L162.753 100.118Z" fill="white"/>
<path d="M157.216 83.0433H151.345L151.147 80.7656H157.013L157.216 83.0433Z" fill="#144B84"/>
<path d="M151.147 80.7654L151.722 80.5674H157.801L157.886 81.5341L157.433 82.0575L157.405 82.8498L157.216 83.0431L157.013 80.7654H151.147Z" fill="#144B84"/>
<path opacity="0.5" d="M151.147 80.7654L151.722 80.5674H157.801L157.886 81.5341L157.433 82.0575L157.405 82.8498L157.216 83.0431L157.013 80.7654H151.147Z" fill="black"/>
<path d="M165.54 93.8982L165.856 95.6005C165.101 97.567 160.777 97.0482 160.777 97.0482V92.0166L164.592 92.9031C164.828 92.961 165.044 93.0854 165.212 93.2618C165.38 93.4382 165.493 93.659 165.54 93.8982Z" fill="#FFC3BD"/>
<path d="M160.767 92.0166L160.786 97.0577L156.957 97.152L156.08 92.7192L160.767 92.0166Z" fill="#FFC3BD"/>
<path d="M175.348 132.982L176.805 111.761C177.013 108.762 178.475 106.263 180.502 105.079C181.784 104.054 183.349 103.447 184.987 103.339C185.159 103.322 185.332 103.314 185.506 103.316C186.822 103.308 188.12 103.633 189.278 104.259C189.314 104.275 189.349 104.294 189.382 104.315C190.578 104.979 191.604 105.911 192.381 107.036C193.557 108.748 194.182 110.779 194.173 112.855C194.173 117.571 191.065 121.499 186.986 122.287L185.407 145.243C185.27 147.195 183.992 148.695 182.445 148.695H174.532L175.348 132.982Z" fill="#144B84"/>
<path opacity="0.1" d="M175.348 132.982L176.805 111.761C177.013 108.762 178.475 106.263 180.502 105.079C181.784 104.054 183.349 103.447 184.987 103.339C185.159 103.322 185.332 103.314 185.506 103.316C186.822 103.308 188.12 103.633 189.278 104.259C189.314 104.275 189.349 104.294 189.382 104.315C190.578 104.979 191.604 105.911 192.381 107.036C193.557 108.748 194.182 110.779 194.173 112.855C194.173 117.571 191.065 121.499 186.986 122.287L185.407 145.243C185.27 147.195 183.992 148.695 182.445 148.695H174.532L175.348 132.982Z" fill="white"/>
<path d="M84.4772 29.6045H80.6245V30.0761H84.4772V29.6045Z" fill="#144B84"/>
<path d="M66.4633 35.1594H65.9917V32.8346C65.9929 31.9762 66.3348 31.1534 66.9422 30.5468C67.5497 29.9403 68.373 29.5996 69.2314 29.5996H77.8281V30.0712H69.2219C68.489 30.0724 67.7863 30.3638 67.2676 30.8816C66.7489 31.3995 66.4563 32.1016 66.4538 32.8346L66.4633 35.1594Z" fill="#144B84"/>
<path d="M93.7057 46.8263C93.5008 46.8275 93.2978 46.7863 93.1096 46.7053C92.9214 46.6242 92.7519 46.5051 92.612 46.3554C92.472 46.2057 92.3645 46.0286 92.2963 45.8354C92.2281 45.6421 92.2006 45.4368 92.2156 45.2324C92.7201 39.484 97.2755 38.9559 97.8461 32.4199C98.0112 30.5336 97.3227 29.8263 96.007 29.8263C94.6913 29.8263 93.8802 30.5384 93.7152 32.4199L93.6208 33.4951C93.5783 33.9808 93.3552 34.433 92.9954 34.7622C92.6357 35.0913 92.1656 35.2736 91.678 35.2729C91.4081 35.2726 91.1412 35.2163 90.8942 35.1074C90.6473 34.9985 90.4256 34.8394 90.2434 34.6403C90.0612 34.4413 89.9223 34.2065 89.8356 33.9509C89.7489 33.6953 89.7163 33.4244 89.7398 33.1556L89.7823 32.684C90.1501 28.4776 92.4278 26.082 96.4503 26.082C100.473 26.082 102.326 28.487 101.958 32.684C101.359 39.4982 96.3842 40.5545 95.9598 45.3598C95.9622 45.3833 95.9622 45.407 95.9598 45.4305C95.9382 45.8117 95.772 46.1703 95.4951 46.4332C95.2182 46.6961 94.8515 46.8434 94.4697 46.8452L93.7057 46.8263ZM95.7476 50.8252C95.7051 51.3198 95.4784 51.7803 95.1125 52.1156C94.7466 52.451 94.2681 52.6367 93.7717 52.6361C93.4967 52.6365 93.2246 52.5796 92.9727 52.4691C92.7209 52.3585 92.4948 52.1967 92.3089 51.994C92.123 51.7912 91.9814 51.552 91.8931 51.2915C91.8047 51.031 91.7716 50.755 91.7959 50.481C91.8385 49.9857 92.0658 49.5245 92.4327 49.189C92.7996 48.8536 93.2793 48.6684 93.7765 48.6702C94.0509 48.6711 94.3222 48.729 94.5731 48.8401C94.8241 48.9511 95.0493 49.113 95.2345 49.3156C95.4198 49.5181 95.561 49.7568 95.6493 50.0166C95.7376 50.2765 95.7711 50.5518 95.7476 50.8252Z" fill="#144B84"/>
<path d="M88.3913 42.2095H77.5452C77.2951 42.2095 77.0552 42.1102 76.8783 41.9333C76.7014 41.7564 76.6021 41.5165 76.6021 41.2664C76.6021 41.0162 76.7014 40.7764 76.8783 40.5995C77.0552 40.4226 77.2951 40.3232 77.5452 40.3232H88.3913C88.6414 40.3232 88.8813 40.4226 89.0582 40.5995C89.235 40.7764 89.3344 41.0162 89.3344 41.2664C89.3344 41.5165 89.235 41.7564 89.0582 41.9333C88.8813 42.1102 88.6414 42.2095 88.3913 42.2095Z" fill="#144B84"/>
<path d="M86.8914 45.9449H77.5637C77.3136 45.9449 77.0737 45.8455 76.8969 45.6686C76.72 45.4918 76.6206 45.2519 76.6206 45.0017C76.6206 44.7516 76.72 44.5117 76.8969 44.3348C77.0737 44.158 77.3136 44.0586 77.5637 44.0586H86.8914C87.1415 44.0586 87.3814 44.158 87.5583 44.3348C87.7351 44.5117 87.8345 44.7516 87.8345 45.0017C87.8345 45.2519 87.7351 45.4918 87.5583 45.6686C87.3814 45.8455 87.1415 45.9449 86.8914 45.9449Z" fill="#144B84"/>
<path d="M85.3918 49.6744H77.5637C77.3136 49.6744 77.0737 49.575 76.8969 49.3981C76.72 49.2213 76.6206 48.9814 76.6206 48.7312C76.6206 48.4811 76.72 48.2412 76.8969 48.0643C77.0737 47.8875 77.3136 47.7881 77.5637 47.7881H85.3918C85.6419 47.7881 85.8818 47.8875 86.0587 48.0643C86.2356 48.2412 86.3349 48.4811 86.3349 48.7312C86.3349 48.9814 86.2356 49.2213 86.0587 49.3981C85.8818 49.575 85.6419 49.6744 85.3918 49.6744Z" fill="#144B84"/>
<path d="M63.2 126.62H56.3103C54.6316 126.62 53.2734 127.681 53.2734 128.978V133.052C53.2734 134.363 54.6316 135.41 56.3103 135.41H63.2V126.62Z" fill="#144B84"/>
<path d="M31.1803 145.808L28.7847 107.677C28.5741 104.324 29.0526 100.964 30.1909 97.8031C31.3291 94.6423 33.1029 91.7483 35.4028 89.2995C37.7027 86.8506 40.4799 84.899 43.5632 83.565C46.6465 82.231 49.9704 81.5428 53.3299 81.543C59.6136 81.5426 65.6593 83.9472 70.2262 88.2633C74.7931 92.5795 77.535 98.4798 77.8892 104.754L80.3979 149.289H34.868C33.9265 149.284 33.0218 148.923 32.3371 148.276C31.6524 147.63 31.2389 146.748 31.1803 145.808Z" fill="#144B84"/>
<path opacity="0.1" d="M31.0954 144.427L28.7847 107.677C28.5741 104.324 29.0526 100.964 30.1909 97.8031C31.3291 94.6423 33.1029 91.7483 35.4028 89.2995C37.7027 86.8506 40.4799 84.899 43.5632 83.565C46.6465 82.231 49.9704 81.5428 53.3299 81.543C59.6136 81.5426 65.6593 83.9472 70.2262 88.2633C74.7931 92.5795 77.535 98.4798 77.8892 104.754L80.3979 149.289H36.2827C34.9615 149.291 33.6891 148.79 32.7251 147.886C31.7612 146.983 31.1783 145.745 31.0954 144.427Z" fill="black"/>
<path d="M38.5652 149.289L35.9527 107.677C35.742 104.324 36.2207 100.963 37.3592 97.802C38.4977 94.6409 40.2719 91.7466 42.5724 89.2977C44.8728 86.8489 47.6506 84.8973 50.7344 83.5636C53.8182 82.2298 57.1427 81.5422 60.5026 81.543C66.7855 81.5438 72.83 83.949 77.3959 88.265C81.9618 92.581 84.703 98.4806 85.0571 104.754L87.5706 149.289H38.5652Z" fill="#144B84"/>
<path d="M37.7823 156.452H37.1551C36.9854 156.441 36.8249 156.371 36.7017 156.254C36.5784 156.137 36.5003 155.98 36.4807 155.811L35.5376 149.289H39.362L38.4189 155.811C38.4025 155.975 38.3303 156.128 38.2144 156.244C38.0984 156.361 37.9459 156.435 37.7823 156.452Z" fill="#144B84"/>
<path opacity="0.7" d="M37.7823 156.452H37.1551C36.9854 156.441 36.8249 156.371 36.7017 156.254C36.5784 156.137 36.5003 155.98 36.4807 155.811L35.5376 149.289H39.362L38.4189 155.811C38.4025 155.975 38.3303 156.128 38.2144 156.244C38.0984 156.361 37.9459 156.435 37.7823 156.452Z" fill="white"/>
<path d="M99.3928 156.452H98.8222C98.6613 156.435 98.5119 156.36 98.4005 156.243C98.2891 156.126 98.223 155.972 98.2139 155.811L97.3745 149.289H100.841L100.001 155.811C99.9921 155.972 99.9259 156.126 99.8146 156.243C99.7032 156.36 99.5537 156.435 99.3928 156.452Z" fill="#144B84"/>
<path opacity="0.5" d="M99.3928 156.452H98.8222C98.6613 156.435 98.5119 156.36 98.4005 156.243C98.2891 156.126 98.223 155.972 98.2139 155.811L97.3745 149.289H100.841L100.001 155.811C99.9921 155.972 99.9259 156.126 99.8146 156.243C99.7032 156.36 99.5537 156.435 99.3928 156.452Z" fill="white"/>
<path d="M81.6571 156.452H81.0818C80.9209 156.435 80.7715 156.36 80.6601 156.243C80.5487 156.126 80.4826 155.972 80.4735 155.811L79.6294 149.289H83.1001L82.2607 155.811C82.2509 155.971 82.1852 156.124 82.0749 156.241C81.9646 156.358 81.8168 156.433 81.6571 156.452Z" fill="#144B84"/>
<path opacity="0.7" d="M81.6571 156.452H81.0818C80.9209 156.435 80.7715 156.36 80.6601 156.243C80.5487 156.126 80.4826 155.972 80.4735 155.811L79.6294 149.289H83.1001L82.2607 155.811C82.2509 155.971 82.1852 156.124 82.0749 156.241C81.9646 156.358 81.8168 156.433 81.6571 156.452Z" fill="white"/>
<path d="M56.8809 156.452H56.2537C56.0837 156.442 55.9227 156.372 55.7993 156.255C55.6759 156.137 55.598 155.98 55.5794 155.811L54.6362 149.289H58.4607L57.5175 155.811C57.5011 155.975 57.4289 156.128 57.313 156.244C57.1971 156.361 57.0445 156.435 56.8809 156.452Z" fill="#144B84"/>
<path opacity="0.5" d="M56.8809 156.452H56.2537C56.0837 156.442 55.9227 156.372 55.7993 156.255C55.6759 156.137 55.598 155.98 55.5794 155.811L54.6362 149.289H58.4607L57.5175 155.811C57.5011 155.975 57.4289 156.128 57.313 156.244C57.1971 156.361 57.0445 156.435 56.8809 156.452Z" fill="white"/>
<path d="M77.644 133.572H94.413L95.5212 117.42L95.757 113.95L95.8702 112.351C95.8992 111.932 95.9527 111.514 96.0305 111.101C96.0305 111.012 96.0729 110.917 96.0918 110.828C96.1019 110.759 96.1192 110.691 96.1437 110.625C96.5957 108.979 97.476 107.482 98.6949 106.287C100.1 104.898 101.958 104.061 103.929 103.929H88.1553C87.9808 103.929 87.8111 103.929 87.6366 103.929C85.4969 103.939 83.446 104.785 81.9212 106.287C80.7023 107.482 79.822 108.979 79.37 110.625C79.3455 110.691 79.3282 110.759 79.3181 110.828C79.2073 111.329 79.1333 111.838 79.0965 112.351L78.988 113.95L77.644 133.572Z" fill="#144B84"/>
<path opacity="0.1" d="M77.644 133.572H94.413L95.5212 117.42L95.757 113.95L95.8702 112.351C95.8992 111.932 95.9527 111.514 96.0305 111.101C96.0305 111.012 96.0729 110.917 96.0918 110.828C96.1019 110.759 96.1192 110.691 96.1437 110.625C96.5957 108.979 97.476 107.482 98.6949 106.287C100.1 104.898 101.958 104.061 103.929 103.929H88.1553C87.9808 103.929 87.8111 103.929 87.6366 103.929C85.4969 103.939 83.446 104.785 81.9212 106.287C80.7023 107.482 79.822 108.979 79.37 110.625C79.3455 110.691 79.3282 110.759 79.3181 110.828C79.2073 111.329 79.1333 111.838 79.0965 112.351L78.988 113.95L77.644 133.572Z" fill="black"/>
<g opacity="0.1">
<path opacity="0.1" d="M64.3554 124.965H57.6167C55.9804 124.965 54.6553 126.002 54.6553 127.28V131.265C54.6553 132.543 55.9804 133.58 57.6167 133.58H64.3554V124.965Z" fill="black"/>
</g>
<path d="M91.8523 124.961H62.1907C60.7791 124.961 59.6348 126.105 59.6348 127.517V131.021C59.6348 132.432 60.7791 133.577 62.1907 133.577H91.8523C93.2639 133.577 94.4082 132.432 94.4082 131.021V127.517C94.4082 126.105 93.2639 124.961 91.8523 124.961Z" fill="#144B84"/>
<path d="M21.8999 113.445C21.8959 115.699 22.6895 117.883 24.1402 119.609C25.5909 121.335 27.6052 122.492 29.827 122.876L31.5671 145.837C31.718 147.789 33.1327 149.289 34.8303 149.289H53.33C51.6323 149.289 50.2176 147.789 50.0667 145.837L49.1236 133.576L48.3125 122.867C46.8611 122.613 45.4881 122.026 44.3011 121.153C43.114 120.281 42.145 119.145 41.47 117.835C41.3804 117.665 41.3003 117.491 41.2248 117.316C40.6777 116.099 40.3964 114.779 40.3996 113.445C40.3997 112.789 40.4677 112.135 40.6023 111.492C40.6542 111.238 40.7202 110.983 40.7862 110.738C41.1246 109.613 41.663 108.559 42.3754 107.626C43.2568 106.482 44.3852 105.551 45.6764 104.905C46.9933 104.243 48.4466 103.897 49.9205 103.896H31.4539C30.4945 103.895 29.5406 104.04 28.6245 104.325C26.7379 104.907 25.0786 106.06 23.8758 107.626C22.5927 109.294 21.8979 111.34 21.8999 113.445Z" fill="#144B84"/>
<path opacity="0.1" d="M21.8999 113.445C21.8959 115.699 22.6895 117.883 24.1402 119.609C25.5909 121.335 27.6052 122.492 29.827 122.876L31.5671 145.837C31.718 147.789 33.1327 149.289 34.8303 149.289H53.33C51.6323 149.289 50.2176 147.789 50.0667 145.837L49.1236 133.576L48.3125 122.867C46.8611 122.613 45.4881 122.026 44.3011 121.153C43.114 120.281 42.145 119.145 41.47 117.835C41.3804 117.665 41.3003 117.491 41.2248 117.316C40.6777 116.099 40.3964 114.779 40.3996 113.445C40.3997 112.789 40.4677 112.135 40.6023 111.492C40.6542 111.238 40.7202 110.983 40.7862 110.738C41.1246 109.613 41.663 108.559 42.3754 107.626C43.2568 106.482 44.3852 105.551 45.6764 104.905C46.9933 104.243 48.4466 103.897 49.9205 103.896H31.4539C30.4945 103.895 29.5406 104.04 28.6245 104.325C26.7379 104.907 25.0786 106.06 23.8758 107.626C22.5927 109.294 21.8979 111.34 21.8999 113.445Z" fill="black"/>
<path d="M40.3947 113.445C40.3947 118.161 43.5023 122.094 47.5814 122.877L49.1564 145.856C49.2932 147.813 50.5711 149.308 52.1179 149.308H101.51C103.047 149.308 104.339 147.813 104.471 145.856L106.051 122.844C110.045 122.004 113.068 118.128 113.068 113.464C113.079 111.508 112.526 109.591 111.474 107.942C110.675 106.685 109.577 105.646 108.277 104.919C107.095 104.259 105.764 103.911 104.41 103.91C102.27 103.92 100.219 104.766 98.6947 106.268C97.475 107.463 96.5932 108.96 96.1388 110.606C96.1181 110.673 96.1024 110.741 96.0917 110.809C95.9786 111.31 95.9045 111.82 95.87 112.332L95.7569 113.931L94.4129 133.567H59.215L57.7578 112.347C57.5456 109.347 56.0885 106.848 54.0607 105.664C52.7771 104.643 51.213 104.036 49.5761 103.924C49.4016 103.924 49.2319 103.924 49.0574 103.924C47.7406 103.917 46.4432 104.241 45.2848 104.867C45.2469 104.881 45.2106 104.898 45.1764 104.919C43.9834 105.587 42.9578 106.518 42.1772 107.64C41.0055 109.349 40.3836 111.374 40.3947 113.445Z" fill="#144B84"/>
<path opacity="0.1" d="M60.0264 149.289H101.524C103.062 149.289 104.354 147.794 104.486 145.837L106.066 122.824C110.06 121.985 113.083 118.108 113.083 113.445C113.094 111.489 112.54 109.572 111.489 107.923C110.69 106.666 109.591 105.627 108.292 104.9C107.11 104.239 105.779 103.892 104.425 103.891C102.285 103.9 100.233 104.747 98.7092 106.248C97.4895 107.444 96.6077 108.941 96.1533 110.587C96.1326 110.653 96.1169 110.721 96.1062 110.79C95.9931 111.291 95.919 111.8 95.8845 112.313L95.7713 113.911L94.4274 133.548H59.2153L60.0264 149.289Z" fill="white"/>
<path d="M72.6548 157.404L76.6773 158.517L80.2895 149.062L76.267 147.949L72.6548 157.404Z" fill="#FFC3BD"/>
<path d="M78.4787 157.263C78.1613 156.851 77.7026 156.572 77.1913 156.48L73.0651 155.673C72.9688 155.645 72.8654 155.656 72.7772 155.704C72.689 155.752 72.623 155.832 72.5936 155.928L71.3156 159.701C71.279 159.803 71.2631 159.912 71.2687 160.02C71.2743 160.129 71.3013 160.235 71.3482 160.334C71.3951 160.432 71.4609 160.52 71.5419 160.592C71.6229 160.665 71.7175 160.721 71.8202 160.757H71.8485C73.3764 161.36 74.4091 161.153 76.7952 161.615C78.2712 161.898 81.36 162.879 83.4255 162.794C85.491 162.709 85.4862 160.667 84.6186 160.516C81.5534 160.045 79.1955 158.196 78.4787 157.263Z" fill="#263238"/>
<g opacity="0.2">
<path opacity="0.2" d="M80.2895 149.067L78.4268 153.943L74.4043 152.821L76.2623 147.949L80.2895 149.067Z" fill="black"/>
</g>
<path d="M66.8644 113.176C66.8644 113.176 91.0842 113.044 90.3296 121.155C89.8203 126.635 87.189 132.392 85.1424 137.952C82.1668 146.011 79.5873 153.042 79.5873 153.042L74.07 151.133C74.07 151.133 79.0261 127.828 82.3648 125.441H61.8846C55.1082 125.441 52.1797 118 58.777 109.323C62.8089 109.337 66.8644 113.176 66.8644 113.176Z" fill="#144B84"/>
<path opacity="0.6" d="M66.8644 113.176C66.8644 113.176 91.0842 113.044 90.3296 121.155C90.7022 126.196 79.5826 153.033 79.5826 153.033L74.0652 151.123C74.0652 151.123 79.0214 127.818 82.3601 125.432H61.8846C55.1082 125.432 52.1797 117.99 58.777 109.313C62.8089 109.337 66.8644 113.176 66.8644 113.176Z" fill="black"/>
<path d="M83.9444 98.449C80.9641 101.17 75.1119 94.7283 74.1688 93.9644C72.1505 92.3139 66.2181 86.7777 66.5294 84.8537C67.4725 79.1949 76.753 87.2115 79.4362 92.7383L83.9444 98.449Z" fill="#263238"/>
<path d="M57.8618 81.4202C56.3669 81.7362 54.7494 81.1986 53.6978 82.3068C52.6462 83.4149 52.2077 84.9711 52.0568 86.4896C51.924 88.611 52.0348 90.7407 52.3869 92.8369C52.7013 95.3928 53.0298 97.9471 53.3725 100.5C53.5851 102.602 53.5041 104.724 53.132 106.805C53.0927 107.026 53.1279 107.254 53.232 107.452C53.3361 107.651 53.5033 107.81 53.7073 107.904C53.7073 107.904 65.3032 108.3 68.6749 108.172C70.4668 108.106 69.236 103.391 69.7878 100.627C69.9104 100.014 71.1082 97.496 71.2874 96.8547C72.1173 93.813 71.5656 91.7193 70.8158 88.6635C70.2546 86.4424 70.0236 83.2405 68.8918 83.0047C66.8546 82.585 62.021 80.5337 57.8618 81.4202Z" fill="#144B84"/>
<path opacity="0.8" d="M57.8618 81.4202C56.3669 81.7362 54.7494 81.1986 53.6978 82.3068C52.6462 83.4149 52.2077 84.9711 52.0568 86.4896C51.924 88.611 52.0348 90.7407 52.3869 92.8369C52.7013 95.3928 53.0298 97.9471 53.3725 100.5C53.5851 102.602 53.5041 104.724 53.132 106.805C53.0927 107.026 53.1279 107.254 53.232 107.452C53.3361 107.651 53.5033 107.81 53.7073 107.904C53.7073 107.904 65.3032 108.3 68.6749 108.172C70.4668 108.106 69.236 103.391 69.7878 100.627C69.9104 100.014 71.1082 97.496 71.2874 96.8547C72.1173 93.813 71.5656 91.7193 70.8158 88.6635C70.2546 86.4424 70.0236 83.2405 68.8918 83.0047C66.8546 82.585 62.021 80.5337 57.8618 81.4202Z" fill="white"/>
<path d="M56.2063 83.5989C56.0506 83.3631 51.9621 79.9301 51.2312 83.896C50.1985 89.4181 52.3347 94.8505 52.3347 94.8505C52.3347 94.8505 52.8063 100.825 54.5605 101.424C56.3147 102.023 57.9464 102.169 58.5311 101.146C58.9092 100.348 59.1088 99.4776 59.1158 98.5948C59.1158 98.5948 58.9178 87.711 56.2063 83.5989Z" fill="#263238"/>
<path d="M59.0314 73.8428C59.4511 76.3845 59.8048 81.0295 57.9893 82.6658C57.9893 82.6658 62.4267 84.9907 65.341 89.0462C65.9881 88.5632 66.4666 87.8887 66.7087 87.1184C66.9508 86.3481 66.9442 85.5212 66.6897 84.7549C66.5436 84.2713 66.3012 83.8224 65.977 83.435C65.6528 83.0476 65.2536 82.7298 64.8034 82.5008C63.0822 81.5576 63.2472 79.7751 63.7188 78.1058L59.0314 73.8428Z" fill="#E8BFBF"/>
<path opacity="0.2" d="M59.6113 78.1572L61.2665 78.7938C61.9752 79.0678 62.7335 79.1899 63.4923 79.1522C63.3743 79.6706 63.3743 80.2089 63.4923 80.7273C62.8989 80.8896 62.2711 80.8761 61.6852 80.6886C61.0993 80.5011 60.5803 80.1476 60.1914 79.671C59.9238 79.198 59.7284 78.6878 59.6113 78.1572Z" fill="black"/>
<path d="M100.699 149.274H105.207L100.487 137.971L97.4312 143.158L100.699 149.274Z" fill="#FFC3BD"/>
<path d="M104.834 148.204L99.5482 147.001C99.4576 146.979 99.3617 146.991 99.2796 147.035C99.1975 147.08 99.1352 147.154 99.1049 147.242L97.6289 151.307C97.5993 151.409 97.5903 151.517 97.6023 151.623C97.6143 151.729 97.6471 151.831 97.6988 151.925C97.7505 152.018 97.82 152.1 97.9035 152.166C97.987 152.233 98.0828 152.282 98.1853 152.311C100.039 152.698 100.949 152.783 103.274 153.316C104.688 153.641 108.329 154.594 110.305 155.042C112.281 155.49 112.799 153.556 112.012 153.188C108.484 151.557 106.575 149.996 105.551 148.666C105.373 148.434 105.119 148.271 104.834 148.204Z" fill="#263238"/>
<g opacity="0.2">
<path opacity="0.2" d="M100.487 137.971L102.496 142.785L98.4403 145.049L97.4312 143.163L100.487 137.971Z" fill="black"/>
</g>
<path d="M53.0425 107.956L52.5709 109.493C52.5096 109.611 52.6464 109.733 52.8444 109.743L70.2925 110.271C70.4528 110.271 70.5801 110.205 70.5943 110.106L70.7971 108.559C70.7971 108.455 70.6745 108.361 70.5094 108.352L53.3443 107.833C53.2876 107.824 53.2296 107.831 53.1764 107.852C53.1232 107.874 53.0769 107.91 53.0425 107.956Z" fill="#263238"/>
<path d="M74.8669 120.57C69.1279 123.017 62.9031 125.46 59.5173 125.46C52.7361 125.46 46.7142 120.565 53.1322 109.427C57.1689 109.427 64.1811 109.54 64.1811 109.54C64.1811 109.54 77.385 105.767 86.9956 106.88C89.2729 107.146 91.4075 108.127 93.0927 109.681C94.7779 111.236 95.927 113.285 96.3751 115.533C98.8084 127.794 102.557 141.055 102.557 141.055L97.7332 144.356C97.7332 144.356 90.2117 128.544 85.8827 116.005C83.5909 116.727 79.3798 118.646 74.8669 120.57Z" fill="#144B84"/>
<path opacity="0.5" d="M96.375 115.533C95.9287 113.283 94.7803 111.232 93.095 109.676C91.4096 108.119 89.2741 107.137 86.9955 106.871C77.4038 105.777 64.181 109.53 64.181 109.53C64.181 109.53 57.1687 109.403 53.1321 109.417C46.6103 120.509 52.736 125.451 59.5171 125.451C62.903 125.451 69.1277 123.008 74.8667 120.56C79.3796 118.636 83.5907 116.717 85.8826 115.981C90.2116 128.535 97.7331 144.351 97.7331 144.351L102.557 141.05C102.557 141.05 98.8083 127.794 96.375 115.533Z" fill="black"/>
<path d="M90.3294 121.192C90.1761 122.768 89.94 124.334 89.622 125.884C89.5985 125.833 89.5796 125.785 89.5607 125.734C89.5419 125.682 89.5607 125.71 89.5607 125.696C89.5452 125.644 89.5247 125.593 89.4994 125.545C88.2168 122.357 86.9624 119.089 85.9014 116.01H85.9344C88.6789 117.175 90.551 118.834 90.3294 121.192Z" fill="#144B84"/>
<path opacity="0.6" d="M90.3294 121.192C90.1761 122.768 89.94 124.334 89.622 125.884C89.5985 125.833 89.5796 125.785 89.5607 125.734C89.5419 125.682 89.5607 125.71 89.5607 125.696C89.5452 125.644 89.5247 125.593 89.4994 125.545C88.2168 122.357 86.9624 119.089 85.9014 116.01H85.9344C88.6789 117.175 90.551 118.834 90.3294 121.192Z" fill="black"/>
<path d="M55.9377 71.4002C57.3524 75.385 57.8711 77.1015 60.5213 78.5964C64.5155 80.8505 69.0897 78.2286 68.8917 73.8807C68.7125 69.9903 66.4254 64.1239 61.9926 63.6524C61.0147 63.5423 60.0248 63.6844 59.1173 64.065C58.2098 64.4456 57.4147 65.0521 56.8078 65.8268C56.2009 66.6015 55.8024 67.5186 55.6501 68.4909C55.4977 69.4631 55.5968 70.4582 55.9377 71.3814V71.4002Z" fill="#E8BFBF"/>
<path d="M63.1007 70.8806C63.1997 71.2249 63.4496 71.4276 63.6666 71.3522C63.8835 71.2767 63.9684 70.9749 63.8835 70.6401C63.7986 70.3053 63.5392 70.0931 63.3176 70.1686C63.096 70.244 63.0064 70.5505 63.1007 70.8806Z" fill="#263238"/>
<path d="M66.8026 69.7117C66.9016 70.0606 67.1515 70.2634 67.3685 70.1832C67.5854 70.1031 67.6703 69.806 67.5854 69.4712C67.5005 69.1364 67.2364 68.9242 67.0242 68.9996C66.812 69.0751 66.7083 69.3863 66.8026 69.7117Z" fill="#263238"/>
<path d="M66.9351 69.0516L67.6613 68.5801C67.6613 68.5801 67.4302 69.3204 66.9351 69.0516Z" fill="#263238"/>
<path d="M65.4775 70.4658C65.9878 71.1356 66.5876 71.7322 67.2601 72.2389C67.125 72.4058 66.9549 72.541 66.7617 72.6347C66.5686 72.7284 66.3571 72.7784 66.1425 72.7812L65.4775 70.4658Z" fill="#ED847E"/>
<path d="M53.3348 74.0355C53.6245 74.753 53.844 75.4968 53.9903 76.2566C54.0304 77.0207 53.7846 77.7724 53.3008 78.3652C52.8169 78.958 52.1297 79.3495 51.373 79.4633C52.032 79.6388 52.7314 79.5812 53.3527 79.3002C53.9741 79.0192 54.4792 78.532 54.7825 77.9212C54.422 78.8812 53.7085 79.6673 52.7878 80.1187C53.4458 80.1259 54.0967 79.9812 54.6897 79.6957C55.2827 79.4103 55.8018 78.9918 56.2066 78.473C55.985 79.0483 55.7351 79.6189 55.537 80.1942C56.6567 79.5161 57.5762 78.5526 58.2014 77.4025C58.4513 76.9309 58.6399 76.3179 58.3098 75.9029C57.9797 75.4879 57.4563 75.5162 56.9753 75.5068C56.4943 75.4974 55.9143 75.3842 55.7398 74.9362C55.5653 74.4882 55.886 74.0402 56.2349 73.7337C56.5839 73.4272 57.0036 73.1442 57.1309 72.6962C57.1913 72.3721 57.1686 72.0379 57.0649 71.7248C56.848 70.8571 56.6342 69.9879 56.4235 69.117C56.3663 68.8096 56.2562 68.5145 56.0982 68.2446C55.155 66.8299 54.1034 68.9048 53.7403 69.6075C53.0606 70.9821 52.9161 72.5603 53.3348 74.0355Z" fill="#263238"/>
<path d="M55.6597 75.3047C56.1938 75.9989 56.98 76.4546 57.8478 76.5732C59.0031 76.7146 59.4087 75.63 58.9466 74.6445C58.5269 73.739 57.4234 72.5837 56.3341 72.8902C55.2447 73.1967 55.009 74.437 55.6597 75.3047Z" fill="#E8BFBF"/>
<path d="M63.1619 68.0331C63.1542 68.077 63.1335 68.1176 63.1023 68.1496C63.0712 68.1816 63.0311 68.2034 62.9874 68.2123C62.0443 68.3914 61.4972 69.5279 61.4972 69.5374C61.4736 69.5888 61.4307 69.6289 61.3778 69.6492C61.325 69.6694 61.2663 69.6682 61.2143 69.6458C61.1641 69.6222 61.1251 69.5799 61.1057 69.5279C61.0863 69.4759 61.088 69.4183 61.1106 69.3676C61.153 69.3252 61.7377 68.0189 62.9072 67.7926C62.9621 67.7841 63.018 67.797 63.0636 67.8286C63.1093 67.8602 63.141 67.908 63.1524 67.9623C63.1625 67.9844 63.1658 68.0091 63.1619 68.0331Z" fill="#263238"/>
<path d="M65.6806 67.0897C65.6491 67.0848 65.6169 67.0864 65.5861 67.0945C65.5553 67.1026 65.5264 67.117 65.5014 67.1368C65.4496 67.1934 65.2751 67.2925 65.3741 67.3443C65.9494 67.6367 66.7464 68.1177 67.3594 68.0187C67.4632 68.0187 67.7084 67.9102 67.6565 67.8348C67.6211 67.7967 67.5764 67.7685 67.5268 67.7528C67.4772 67.7371 67.4245 67.7345 67.3736 67.7452C66.902 67.8112 66.2371 67.3538 65.7844 67.118C65.7511 67.1042 65.7163 67.0947 65.6806 67.0897Z" fill="#263238"/>
<path d="M63.2285 70.2157L63.9594 69.7441C63.9594 69.7441 63.7284 70.4939 63.2285 70.2157Z" fill="#263238"/>
<path d="M63.162 61.9068C61.554 61.6145 61.3465 61.506 59.7148 61.6098C58.0668 61.6613 56.4733 62.2122 55.1453 63.1895C53.9047 64.215 53.0295 65.6146 52.6507 67.179C52.28 68.7377 52.2383 70.3566 52.5281 71.9324C52.5802 72.6851 52.9055 73.3928 53.443 73.9224C53.4977 73.075 53.6416 72.2357 53.8721 71.4184C54.1125 70.5933 54.6077 69.8654 55.2868 69.3388C55.5865 69.1767 55.8448 68.9475 56.0413 68.6691C56.1434 68.3939 56.2007 68.1042 56.2111 67.8109C56.3589 67.1506 56.7537 66.5719 57.3145 66.1934C57.8715 65.8237 58.4678 65.5169 59.0924 65.2786C61.0777 64.425 63.2422 63.9346 65.0719 62.784C64.4732 62.4152 63.8319 62.1206 63.162 61.9068Z" fill="#263238"/>
<path d="M54.9335 68.2167C55.3653 68.7411 55.9563 69.1103 56.617 69.2683C57.3998 69.4475 59.3568 69.4004 59.4747 69.1976C59.5926 68.9948 58.8946 66.7973 58.1024 66.6653C58.6489 67.1929 59.3016 67.598 60.017 67.8536C60.8264 68.0155 61.6598 68.0155 62.4691 67.8536C62.8841 67.7593 61.9551 66.0428 61.2808 65.5524C63.3132 65.9768 65.4636 66.4625 66.9396 67.9102C68.4156 69.3579 69.0522 71.6497 68.9768 73.7859C69.3226 73.5073 69.6005 73.1536 69.7892 72.7516C69.978 72.3496 70.0727 71.9099 70.0661 71.4658C70.4221 72.5704 70.5526 73.7353 70.4497 74.8913C70.3468 76.0472 70.0127 77.1708 69.4672 78.1951C71.627 76.422 72.4334 73.3238 71.8675 70.5887C71.3016 67.8536 69.5097 65.4722 67.3357 63.7227C65.4495 62.2278 63.2048 61.1102 60.8139 61.0536C57.678 60.9593 51.8683 64.5243 54.9335 68.2167Z" fill="#263238"/>
<path d="M57.4752 80.8263C57.4752 80.6707 57.513 80.4632 57.5318 80.2463C57.573 79.7483 57.428 79.2527 57.1248 78.8555C56.8217 78.4583 56.382 78.1876 55.8908 78.0959C55.7449 78.0699 55.6087 78.0055 55.496 77.9093C55.3833 77.8132 55.2982 77.6888 55.2494 77.5489C54.8863 76.4926 54.7448 76.1719 54.3959 75.1345C53.4528 74.9034 52.3163 75.2571 51.3307 75.3608C51.0574 76.5443 51.0381 77.7722 51.2741 78.9636C51.3119 79.2301 51.4157 79.483 51.5759 79.6993C52.4708 80.4325 53.4606 81.0416 54.5185 81.5101C55.3673 81.7695 56.5604 80.9065 57.4752 80.8263Z" fill="#E8BFBF"/>
<path d="M54.6173 81.5337C54.6173 81.5337 52.0189 98.2979 54.6974 100.868C56.2678 102.368 57.6259 101.538 58.47 100.599C58.7794 100.249 59.0122 99.8389 59.1535 99.3939C59.2948 98.9488 59.3415 98.4791 59.2905 98.015L57.4655 80.8404C57.4655 80.8404 55.6736 79.7794 54.6173 81.5337Z" fill="#E8BFBF"/>
<path d="M82.534 96.6709C83.6009 95.7398 84.366 94.5117 84.7315 93.1436C84.8149 92.661 84.8465 92.171 84.8258 91.6817C84.8022 88.6448 83.944 83.0756 83.944 83.0756L81.4777 82.2598C81.4777 82.2598 80.709 86.5039 80.5345 88.824C80.5015 89.2956 80.4496 89.819 80.3931 90.3896C80.2846 91.4271 80.1526 92.5683 80.0347 93.5161L82.534 96.6709Z" fill="#E8BFBF"/>
<path d="M83.9443 98.4493C84.7035 97.7561 84.8308 96.9167 85.2222 95.1483C85.5948 93.4601 85.1751 91.3758 84.8261 91.6917C84.7825 91.7314 84.75 91.7818 84.7318 91.8379C84.1329 93.2526 81.8033 92.0124 81.1432 91.305C80.8588 91.0347 80.6086 90.7307 80.3981 90.3996C80.3115 90.2733 80.2652 90.1237 80.2652 89.9705C80.2652 89.8173 80.3115 89.6677 80.3981 89.5414C79.6813 89.2443 79.106 92.0643 79.4549 92.7575L79.6341 93.2809C79.9182 94.1301 80.3562 94.9198 80.9262 95.6105L82.223 97.1714L83.9443 98.4493Z" fill="#263238"/>
<path d="M81.412 82.6138L81.1196 78.3037C81.8824 78.6667 82.6704 78.974 83.4775 79.2233C84.6753 79.6335 86.3069 78.912 85.9296 79.6948C85.3281 80.8595 84.6573 81.987 83.9207 83.0713L81.412 82.6138Z" fill="#E8BFBF"/>
<path d="M81.1196 78.3031L82.9682 73.9883L85.3826 75.4643C86.0475 76.9073 85.9674 79.7084 85.9674 79.7084C85.9674 79.7084 82.6098 79.8405 81.1196 78.3031Z" fill="#E8BFBF"/>
<path d="M65.1948 74.9794C65.2561 75.2859 65.4777 75.5029 65.6663 75.451C65.855 75.3991 65.9729 75.1256 65.9068 74.8191C65.8408 74.5126 65.6239 74.2956 65.4353 74.3475C65.2466 74.3994 65.1287 74.6918 65.1948 74.9794Z" fill="#263238"/>
<path d="M59.2151 133.572L57.758 112.351C57.5458 109.352 56.0886 106.853 54.0609 105.669C52.7773 104.647 51.2131 104.04 49.5763 103.929C49.4018 103.929 49.232 103.929 49.0576 103.929C47.7408 103.922 46.4434 104.246 45.285 104.872C45.2471 104.885 45.2108 104.903 45.1765 104.924C43.9835 105.592 42.958 106.522 42.1774 107.645C40.9996 109.356 40.3742 111.387 40.3854 113.464C40.3854 118.18 43.493 122.113 47.5721 122.895L49.1472 145.875C49.2839 147.832 50.5619 149.327 52.1086 149.327H60.0168L59.2151 133.572Z" fill="#144B84"/>
<path opacity="0.1" d="M59.2151 133.572L57.758 112.351C57.5458 109.352 56.0886 106.853 54.0609 105.669C52.7773 104.647 51.2131 104.04 49.5763 103.929C49.4018 103.929 49.232 103.929 49.0576 103.929C47.7408 103.922 46.4434 104.246 45.285 104.872C45.2471 104.885 45.2108 104.903 45.1765 104.924C43.9835 105.592 42.958 106.522 42.1774 107.645C40.9996 109.356 40.3742 111.387 40.3854 113.464C40.3854 118.18 43.493 122.113 47.5721 122.895L49.1472 145.875C49.2839 147.832 50.5619 149.327 52.1086 149.327H60.0168L59.2151 133.572Z" fill="white"/>
<path d="M115.582 172.344C124.317 172.344 131.398 170.533 131.398 168.298C131.398 166.063 124.317 164.252 115.582 164.252C106.846 164.252 99.7651 166.063 99.7651 168.298C99.7651 170.533 106.846 172.344 115.582 172.344Z" fill="#263238"/>
<path opacity="0.3" d="M115.582 170.995C124.317 170.995 131.398 169.486 131.398 167.624C131.398 165.762 124.317 164.252 115.582 164.252C106.846 164.252 99.7651 165.762 99.7651 167.624C99.7651 169.486 106.846 170.995 115.582 170.995Z" fill="white"/>
<path d="M116.888 167.619H114.275L111.257 135.071H119.906L116.888 167.619Z" fill="#263238"/>
<path d="M119.906 135.072C119.906 136.015 117.972 136.788 115.582 136.788C113.191 136.788 111.257 136.02 111.257 135.072C111.257 134.124 113.195 133.355 115.582 133.355C117.968 133.355 119.906 134.124 119.906 135.072Z" fill="#263238"/>
<path opacity="0.7" d="M119.906 135.072C119.906 136.015 117.972 136.788 115.582 136.788C113.191 136.788 111.257 136.02 111.257 135.072C111.257 134.124 113.195 133.355 115.582 133.355C117.968 133.355 119.906 134.124 119.906 135.072Z" fill="white"/>
<path opacity="0.7" d="M62.6904 135.581C62.7023 135.386 62.753 135.196 62.8397 135.021C62.9263 134.846 63.0472 134.69 63.195 134.562C66.8497 138.241 90.0367 141.075 118.095 141.075C146.153 141.075 169.34 138.245 173 134.562C173.148 134.69 173.268 134.846 173.355 135.021C173.442 135.196 173.493 135.386 173.504 135.581C173.504 139.736 148.695 143.126 118.095 143.126C87.4949 143.126 62.6904 139.736 62.6904 135.581Z" fill="white"/>
<path opacity="0.7" d="M63.2139 136.519C66.8685 132.841 90.0556 130.012 118.114 130.012C146.172 130.012 169.359 132.841 173.019 136.519C169.359 140.198 146.172 143.032 118.114 143.032C90.0556 143.032 66.8685 140.198 63.2139 136.519Z" fill="white"/>
<path opacity="0.7" d="M62.6904 135.435C62.6904 131.276 87.4949 127.89 118.095 127.89C148.695 127.89 173.504 131.257 173.504 135.435C173.493 135.629 173.442 135.819 173.356 135.993C173.269 136.167 173.148 136.322 173 136.449C169.34 132.77 146.153 129.941 118.095 129.941C90.0367 129.941 66.8497 132.77 63.195 136.449C63.0469 136.322 62.9258 136.167 62.8391 135.993C62.7524 135.819 62.7018 135.629 62.6904 135.435Z" fill="white"/>
<path d="M139.485 131.771L116.303 131.332C116.24 131.326 116.18 131.307 116.125 131.277C116.069 131.247 116.021 131.206 115.982 131.157C115.943 131.107 115.914 131.051 115.897 130.99C115.88 130.93 115.875 130.867 115.883 130.804C115.878 130.742 115.885 130.678 115.905 130.619C115.925 130.559 115.956 130.504 115.997 130.456C116.039 130.409 116.089 130.37 116.146 130.342C116.202 130.315 116.264 130.298 116.326 130.295L139.509 130.733C139.572 130.739 139.633 130.758 139.688 130.788C139.744 130.818 139.793 130.858 139.833 130.908C139.872 130.957 139.902 131.014 139.919 131.074C139.936 131.135 139.941 131.199 139.933 131.262C139.938 131.325 139.931 131.388 139.911 131.448C139.891 131.508 139.859 131.564 139.817 131.611C139.775 131.659 139.724 131.697 139.667 131.725C139.61 131.752 139.548 131.768 139.485 131.771Z" fill="#263238"/>
<path opacity="0.2" d="M139.485 131.771L116.303 131.332C116.24 131.326 116.18 131.307 116.125 131.277C116.069 131.247 116.021 131.206 115.982 131.157C115.943 131.107 115.914 131.051 115.897 130.99C115.88 130.93 115.875 130.867 115.883 130.804C115.878 130.742 115.885 130.678 115.905 130.619C115.925 130.559 115.956 130.504 115.997 130.456C116.039 130.409 116.089 130.37 116.146 130.342C116.202 130.315 116.264 130.298 116.326 130.295L139.509 130.733C139.572 130.739 139.633 130.758 139.688 130.788C139.744 130.818 139.793 130.858 139.833 130.908C139.872 130.957 139.902 131.014 139.919 131.074C139.936 131.135 139.941 131.199 139.933 131.262C139.938 131.325 139.931 131.388 139.911 131.448C139.891 131.508 139.859 131.564 139.817 131.611C139.775 131.659 139.724 131.697 139.667 131.725C139.61 131.752 139.548 131.768 139.485 131.771Z" fill="white"/>
<path d="M150.742 130.078L139.66 131.752C139.539 131.752 139.423 131.706 139.335 131.622C139.247 131.539 139.195 131.425 139.189 131.304C139.169 131.177 139.198 131.048 139.268 130.941C139.339 130.833 139.446 130.756 139.57 130.724L150.652 129.05C150.773 129.05 150.89 129.096 150.978 129.179C151.066 129.263 151.118 129.377 151.124 129.498C151.143 129.625 151.115 129.754 151.044 129.861C150.974 129.968 150.866 130.045 150.742 130.078Z" fill="#263238"/>
<path d="M150.643 129.05H127.215L116.327 130.295L138.877 130.719L150.643 129.05Z" fill="#263238"/>
<path opacity="0.6" d="M150.643 129.05H127.215L116.327 130.295L138.877 130.719L150.643 129.05Z" fill="white"/>
<path opacity="0.5" d="M150.742 130.078L139.66 131.752C139.539 131.752 139.423 131.706 139.335 131.622C139.247 131.539 139.195 131.425 139.189 131.304C139.169 131.177 139.198 131.048 139.268 130.941C139.339 130.833 139.446 130.756 139.57 130.724L150.652 129.05C150.773 129.05 150.89 129.096 150.978 129.179C151.066 129.263 151.118 129.377 151.124 129.498C151.143 129.625 151.115 129.754 151.044 129.861C150.974 129.968 150.866 130.045 150.742 130.078Z" fill="white"/>
<path d="M138.877 130.719L117.261 130.313C116.853 130.261 116.479 130.062 116.208 129.752C115.938 129.443 115.791 129.045 115.794 128.634L115.143 115.581C115.096 114.671 115.686 113.94 116.445 113.954L138.062 114.365C138.47 114.415 138.845 114.613 139.116 114.923C139.387 115.233 139.533 115.632 139.528 116.043L140.184 129.092C140.226 130.002 139.641 130.733 138.877 130.719Z" fill="#144B84"/>
<path opacity="0.2" d="M138.877 130.719L117.261 130.313C116.853 130.261 116.479 130.062 116.208 129.752C115.938 129.443 115.791 129.045 115.794 128.634L115.143 115.581C115.096 114.671 115.686 113.94 116.445 113.954L138.062 114.365C138.47 114.415 138.845 114.613 139.116 114.923C139.387 115.233 139.533 115.632 139.528 116.043L140.184 129.092C140.226 130.002 139.641 130.733 138.877 130.719Z" fill="white"/>
<path d="M138.245 130.653L116.629 130.243C116.22 130.192 115.845 129.993 115.574 129.683C115.302 129.374 115.154 128.975 115.157 128.564L114.507 115.534C114.459 114.624 115.049 113.893 115.813 113.907L137.425 114.313C137.833 114.364 138.209 114.563 138.48 114.872C138.751 115.182 138.899 115.58 138.896 115.992L139.556 129.026C139.594 129.936 139.005 130.667 138.245 130.653Z" fill="#144B84"/>
<path opacity="0.6" d="M138.245 130.653L116.629 130.243C116.22 130.192 115.845 129.993 115.574 129.683C115.302 129.374 115.154 128.975 115.157 128.564L114.507 115.534C114.459 114.624 115.049 113.893 115.813 113.907L137.425 114.313C137.833 114.364 138.209 114.563 138.48 114.872C138.751 115.182 138.899 115.58 138.896 115.992L139.556 129.026C139.594 129.936 139.005 130.667 138.245 130.653Z" fill="white"/>
<path d="M124.164 122.056C124.228 122.677 124.517 123.254 124.976 123.676C125.436 124.098 126.035 124.337 126.659 124.348C126.952 124.353 127.244 124.296 127.513 124.18C127.783 124.063 128.025 123.891 128.223 123.675C128.421 123.458 128.57 123.201 128.662 122.922C128.753 122.643 128.784 122.348 128.753 122.056C128.684 121.439 128.393 120.867 127.934 120.448C127.475 120.029 126.879 119.791 126.258 119.779C125.966 119.774 125.676 119.831 125.407 119.946C125.139 120.061 124.898 120.232 124.7 120.447C124.502 120.663 124.352 120.917 124.26 121.195C124.168 121.472 124.135 121.765 124.164 122.056Z" fill="white"/>
</svg>
