<svg width="372" height="356" viewBox="0 0 372 356" fill="none" xmlns="http://www.w3.org/2000/svg">
<path d="M209.436 354.123C194.948 347.266 189.174 330.962 187.132 315.776C186.787 313.255 186.065 310.633 186.888 308.212C187.712 305.792 190.25 303.817 192.687 304.498C194.712 305.061 195.897 307.095 197.25 308.7C199.05 310.865 201.428 312.474 204.108 313.339C205.856 313.902 207.932 314.078 209.369 312.935C211.336 311.364 211.05 308.321 210.646 305.817C209.823 301.172 209.016 296.528 208.226 291.883C207.657 289.405 207.489 286.851 207.73 284.32C208.1 281.798 209.453 279.277 211.722 278.235C213.991 277.193 217.176 278.042 218.092 280.412C218.363 281.431 218.565 282.467 218.697 283.513C218.941 284.547 219.622 285.614 220.656 285.74C221.689 285.866 222.589 284.984 223.219 284.118C225.37 281.151 226.58 277.596 227.673 274.075C228.765 270.554 229.791 266.965 231.673 263.805C233.556 260.646 236.43 257.923 239.985 257.082C243.54 256.242 247.742 257.839 249.229 261.209C250.717 264.579 249.28 268.52 247.548 271.764C244.919 276.567 241.61 280.966 237.724 284.824C236.949 285.441 236.39 286.289 236.127 287.244C235.867 289.009 237.733 290.404 239.489 290.673C241.456 290.976 243.456 290.438 245.447 290.337C247.439 290.236 249.7 290.74 250.759 292.463C252.213 294.85 250.523 297.901 248.717 300.027C245.087 304.263 240.758 307.844 235.917 310.616C234.186 311.599 232.346 312.523 231.077 314.07C229.808 315.616 229.295 318.02 230.488 319.633C231.682 321.247 234.094 321.423 235.959 320.734C237.825 320.045 239.38 318.709 241.103 317.709C244.33 315.826 248.817 315.305 251.532 317.91C252.379 318.821 253.002 319.916 253.354 321.109C253.705 322.302 253.775 323.56 253.557 324.785C253.11 327.224 252.176 329.548 250.809 331.617C246.457 339.099 240.199 345.293 232.673 349.568C225.152 353.686 217.874 355.695 209.445 354.132" fill="#F5F5F5"/>
<path d="M211.73 343.988C212.845 335.339 214.456 326.761 216.554 318.297L218.168 311.633C218.697 309.439 219.227 307.271 219.849 305.187C221.105 301.187 222.581 297.259 224.269 293.421C225.858 289.74 227.496 286.295 229.051 283.093C230.606 279.891 232.127 276.933 233.623 274.302C235.958 270.13 238.622 266.151 241.59 262.402C242.64 261.074 243.489 260.074 244.069 259.402C244.346 259.082 244.573 258.83 244.733 258.637C244.893 258.444 244.968 258.385 244.977 258.393C244.916 258.49 244.848 258.583 244.775 258.671L244.136 259.461C243.582 260.15 242.758 261.141 241.733 262.511C238.83 266.297 236.214 270.294 233.909 274.47C232.438 277.109 230.942 280.067 229.396 283.269C227.849 286.471 226.236 289.917 224.664 293.598C222.991 297.436 221.532 301.364 220.294 305.363C219.647 307.439 219.126 309.565 218.613 311.784L217 318.457C214.906 326.904 213.287 335.461 212.151 344.089" fill="#E0E0E0"/>
<path d="M219.992 305.153C219.81 304.827 219.666 304.48 219.564 304.12C219.312 303.456 218.984 302.439 218.597 301.254C217.824 298.817 216.866 295.413 215.824 291.665C214.782 287.917 213.782 284.53 212.967 282.118C212.563 280.908 212.227 279.925 211.992 279.261C211.851 278.916 211.741 278.558 211.664 278.193C211.867 278.507 212.033 278.842 212.16 279.193C212.454 279.841 212.832 280.807 213.278 282C214.177 284.404 215.227 287.774 216.278 291.539C217.328 295.304 218.211 298.598 218.917 301.153C219.244 302.313 219.513 303.288 219.757 304.069C219.867 304.423 219.946 304.786 219.992 305.153Z" fill="#E0E0E0"/>
<path d="M251.213 293.674C250.807 293.843 250.385 293.97 249.953 294.052C249.112 294.262 247.961 294.565 246.515 294.985C243.616 295.825 239.658 297.069 235.347 298.666C231.035 300.263 227.195 301.885 224.421 303.128C223.043 303.742 221.942 304.271 221.177 304.633C220.793 304.842 220.391 305.016 219.976 305.154C220.323 304.886 220.698 304.655 221.093 304.465C221.833 304.053 222.917 303.481 224.278 302.784C226.993 301.456 230.825 299.784 235.145 298.178C238.832 296.799 242.588 295.612 246.398 294.623C247.86 294.237 249.053 293.985 249.885 293.825C250.322 293.733 250.767 293.683 251.213 293.674Z" fill="#E0E0E0"/>
<path d="M212.025 343.342C211.917 343.231 211.821 343.11 211.739 342.98L210.991 341.913C210.344 340.972 209.445 339.602 208.361 337.887C206.176 334.458 203.318 329.626 200.234 324.248C197.15 318.869 194.351 314.02 192.225 310.557L189.704 306.448L189.031 305.33C188.943 305.206 188.872 305.071 188.821 304.927C188.821 304.927 188.931 305.036 189.107 305.28C189.284 305.523 189.561 305.918 189.855 306.355C190.502 307.288 191.401 308.658 192.494 310.381C194.67 313.81 197.536 318.634 200.621 324.012C203.705 329.391 206.503 334.24 208.621 337.711L211.142 341.812C211.411 342.257 211.638 342.652 211.815 342.93C211.905 343.056 211.976 343.195 212.025 343.342Z" fill="#E0E0E0"/>
<path d="M252.515 322.289C252.397 322.392 252.264 322.477 252.12 322.541L250.952 323.163L246.616 325.424C242.952 327.34 237.926 330.038 232.379 332.987C226.833 335.937 221.782 338.635 218.093 340.467C216.244 341.383 214.731 342.148 213.689 342.593L212.428 343.148C212.29 343.221 212.143 343.278 211.991 343.316C212.111 343.215 212.244 343.13 212.386 343.064L213.563 342.442L217.899 340.173C221.555 338.265 226.581 335.567 232.127 332.609C237.674 329.651 242.733 326.97 246.414 325.138C248.263 324.222 249.776 323.457 250.818 323.012L252.028 322.457C252.181 322.376 252.345 322.32 252.515 322.289Z" fill="#E0E0E0"/>
<path d="M104.353 173.731C104.353 173.731 94.3692 175.118 99.9746 196.985C105.58 218.852 110.337 230.13 110.337 230.13C110.337 230.13 111.085 235.08 107.093 234.929C103.101 234.778 94.9574 231.567 92.1925 235.845C89.3351 240.316 91.8395 245.694 98.0753 251.334C104.311 256.973 117.606 269.822 118.8 270.991C119.993 272.159 120.867 274.562 118.127 274.89C115.388 275.218 95.9575 272.94 95.4365 282.227C94.9154 291.513 114.942 304.354 117.102 305.8C119.262 307.245 119.623 308.372 119.119 309.632C118.615 310.893 112.177 309.506 106.622 309.078C101.067 308.649 94.5456 309.145 94.6885 314.523C94.8314 319.902 105.353 333.516 136.028 343.635L150.558 347.391L161.29 336.819C182.889 312.792 185.25 295.757 182.704 291.017C180.157 286.277 174.3 289.093 169.644 292.219C164.988 295.345 160.114 299.783 159.072 298.942C158.03 298.102 157.761 296.942 158.92 294.614C160.08 292.286 171.081 271.192 166.005 263.393C160.929 255.594 145.197 267.209 142.675 268.276C140.154 269.343 139.7 266.805 140.154 265.225C140.608 263.645 145.734 245.896 148.373 237.87C151.012 229.844 150.508 223.945 145.802 221.491C141.264 219.129 135.809 225.987 132.414 228.105C129.019 230.223 127.22 225.584 127.22 225.584C127.22 225.584 125.741 213.44 119.741 191.673C113.74 169.907 104.168 173.806 104.168 173.806" fill="#EBEBEB"/>
<path d="M150.549 351.005C146.205 335.038 138.952 306.464 132.607 281.933C126.262 257.401 120.497 235.282 116.227 219.264C114.093 211.263 112.362 204.792 111.185 200.296C110.597 198.069 110.134 196.329 109.815 195.136L109.462 193.791C109.387 193.489 109.361 193.329 109.361 193.329C109.361 193.329 109.42 193.472 109.513 193.775C109.605 194.077 109.731 194.539 109.899 195.111C110.244 196.304 110.74 198.027 111.361 200.246C112.622 204.708 114.404 211.171 116.572 219.171C120.917 235.139 126.741 257.334 133.086 281.815C139.431 306.296 146.625 334.895 150.894 350.913" fill="#E0E0E0"/>
<path d="M103.403 240.837C103.739 240.975 104.06 241.147 104.361 241.35C104.958 241.703 105.815 242.24 106.883 242.913C108.975 244.266 111.824 246.207 114.925 248.401L122.842 254.048L125.254 255.729C125.558 255.918 125.84 256.141 126.094 256.393C125.755 256.256 125.431 256.084 125.128 255.88C124.531 255.527 123.674 254.989 122.606 254.309C120.531 252.939 117.707 250.947 114.606 248.762L106.647 243.173L104.227 241.492C103.93 241.304 103.654 241.084 103.403 240.837Z" fill="#E0E0E0"/>
<path d="M127.313 255.696C127.204 255.629 130.943 249.586 135.658 242.199C140.373 234.812 144.297 228.879 144.407 228.946C144.516 229.013 140.776 235.064 136.053 242.451C131.33 249.838 127.422 255.746 127.313 255.696Z" fill="#E0E0E0"/>
<path d="M135.363 293.749C135.596 293.459 135.864 293.199 136.162 292.976L138.422 290.993C140.33 289.312 142.961 286.993 145.767 284.32C148.574 281.648 151.045 279.152 152.81 277.328C153.65 276.487 154.34 275.74 154.903 275.168C155.157 274.886 155.439 274.63 155.743 274.403C155.557 274.725 155.331 275.021 155.071 275.286C154.617 275.832 153.936 276.605 153.079 277.546C151.398 279.437 148.944 281.984 146.12 284.656C143.297 287.329 140.641 289.631 138.674 291.245C137.683 292.085 136.876 292.69 136.305 293.119C136.015 293.363 135.699 293.575 135.363 293.749Z" fill="#E0E0E0"/>
<path d="M110.782 285.067C111.121 285.108 111.454 285.19 111.774 285.311L114.438 286.151C116.673 286.866 119.758 287.883 123.153 289.026C126.548 290.169 129.616 291.244 131.826 292.043L134.44 293.001C134.765 293.103 135.078 293.241 135.372 293.413C135.033 293.378 134.699 293.299 134.381 293.177L131.717 292.337C129.481 291.623 126.397 290.606 123.002 289.454C119.606 288.303 116.539 287.236 114.329 286.446L111.715 285.479C111.387 285.384 111.073 285.246 110.782 285.067Z" fill="#E0E0E0"/>
<path d="M113.622 319.566C114.055 319.631 114.48 319.738 114.891 319.886L118.303 320.928C121.177 321.827 125.136 323.096 129.506 324.533C133.876 325.97 137.817 327.281 140.666 328.265L144.028 329.441C144.446 329.575 144.853 329.741 145.246 329.937C144.811 329.873 144.383 329.766 143.969 329.618L140.557 328.576C137.683 327.676 133.724 326.407 129.354 324.97C124.984 323.533 121.043 322.214 118.202 321.239L114.841 320.054C114.421 319.928 114.013 319.765 113.622 319.566Z" fill="#E0E0E0"/>
<path d="M144.558 329.475C144.853 329.111 145.183 328.776 145.541 328.474L148.323 325.861C150.667 323.651 153.894 320.583 157.365 317.095C160.836 313.608 163.904 310.372 166.106 308.019L168.711 305.229C169.017 304.873 169.352 304.541 169.711 304.237C169.466 304.633 169.185 305.004 168.87 305.347C168.299 306.044 167.442 307.027 166.349 308.238C164.206 310.658 161.181 313.936 157.693 317.423C154.205 320.911 150.97 323.953 148.55 326.105C147.339 327.172 146.356 328.037 145.659 328.626C145.316 328.939 144.948 329.223 144.558 329.475Z" fill="#E0E0E0"/>
<path d="M60.9877 43.3266L52.7854 40.8054C52.7854 40.8054 50.634 47.6967 43.4401 45.5872C42.0474 45.2037 40.8084 44.3968 39.8944 43.2781C38.9805 42.1594 38.4369 40.7843 38.3389 39.3431C38.2312 38.1277 38.4152 36.9042 38.8757 35.7743C39.3361 34.6444 40.0597 33.6407 40.9862 32.8468C43.0956 30.9811 46.7933 29.8465 52.0122 32.5442L57.7858 14.0554L49.6759 11.5342L46.3143 22.367C46.3143 22.367 34.0108 21.7535 30.103 34.2839C26.3632 46.2764 36.2463 52.4197 40.8517 53.8568C44.3478 54.9493 56.626 57.8403 60.9877 43.3266Z" fill="#F5F5F5"/>
<path d="M50.7748 7.68547L59.0059 10.2539L61.4041 2.56834L53.173 -9.23118e-05L50.7748 7.68547Z" fill="#F5F5F5"/>
<path d="M83.6197 22.4502L86.9057 21.6098C86.8054 21.2366 86.7811 20.8471 86.8344 20.4643C86.8876 20.0816 87.0173 19.7135 87.2156 19.3818C87.414 19.0502 87.677 18.7618 87.989 18.5339C88.301 18.3059 88.6557 18.143 89.0319 18.0549C89.5794 17.8896 90.1647 17.8987 90.7068 18.0809C91.2489 18.2631 91.7209 18.6094 92.0574 19.0718C92.3431 19.4557 92.5339 19.9018 92.6142 20.3735C92.6945 20.8453 92.6621 21.3294 92.5196 21.7863C92.2087 22.8536 91.2086 24.0133 88.8891 24.2066L90.8472 31.6106L94.0912 30.7702L92.9482 26.4337C94.1784 25.6917 95.1304 24.5657 95.6574 23.2292C96.1843 21.8928 96.2571 20.42 95.8644 19.0381C94.6038 14.231 89.9816 14.2563 88.1579 14.7353C86.746 15.063 82.0314 16.6682 83.6197 22.4502Z" fill="#EBEBEB"/>
<path d="M95.2364 31.8502L91.9268 32.7373L92.7549 35.8269L96.0646 34.9397L95.2364 31.8502Z" fill="#EBEBEB"/>
<path d="M354.91 107.507L358.104 108.659C358.238 108.297 358.443 107.966 358.707 107.685C358.97 107.404 359.288 107.178 359.64 107.021C359.993 106.865 360.373 106.78 360.759 106.773C361.144 106.765 361.527 106.835 361.885 106.978C362.423 107.151 362.895 107.486 363.235 107.937C363.575 108.389 363.767 108.934 363.785 109.499C363.805 109.981 363.71 110.461 363.508 110.899C363.307 111.337 363.004 111.722 362.625 112.02C361.785 112.718 360.28 113.096 358.263 111.936L355.65 119.138L358.81 120.281L360.339 116.079C361.773 116.168 363.197 115.784 364.392 114.985C365.587 114.187 366.487 113.018 366.953 111.659C368.634 106.986 364.844 104.389 363.054 103.742C361.684 103.204 356.894 101.851 354.91 107.507Z" fill="#EBEBEB"/>
<path d="M358.337 121.742L355.129 120.58L354.044 123.575L357.252 124.737L358.337 121.742Z" fill="#EBEBEB"/>
<path d="M15.9929 144.082L22.7161 141.477C22.7161 141.477 20.5311 135.804 26.3887 133.426C27.5097 132.951 28.7503 132.836 29.9394 133.097C31.1286 133.357 32.2076 133.98 33.0278 134.88C33.7257 135.627 34.237 136.529 34.5204 137.512C34.8037 138.495 34.8509 139.531 34.6582 140.536C34.238 142.872 32.3891 145.578 27.5232 146.511L33.406 161.747L40.1292 159.176L36.6836 150.251C36.6836 150.251 45.0876 144.216 41.1461 133.88C37.3223 123.996 27.54 125.123 23.7834 126.576C20.884 127.694 11.2698 132.207 15.9929 144.082Z" fill="#F5F5F5"/>
<path d="M41.4026 162.277L34.6191 164.891L37.0604 171.227L43.8438 168.614L41.4026 162.277Z" fill="#F5F5F5"/>
<path d="M357.541 169.722L352.751 171.563C352.751 171.563 354.297 175.588 350.145 177.269C349.35 177.601 348.473 177.681 347.631 177.498C346.789 177.314 346.024 176.876 345.439 176.244C344.945 175.714 344.583 175.074 344.383 174.377C344.183 173.681 344.15 172.947 344.288 172.235C344.59 170.554 345.901 168.672 349.33 168.033L345.212 157.2L340.472 159.024L342.909 165.352C341.185 166.672 339.941 168.522 339.37 170.617C338.799 172.712 338.932 174.937 339.75 176.95C342.447 183.95 349.355 183.16 352.045 182.126C354.078 181.328 360.886 178.135 357.541 169.722Z" fill="#F5F5F5"/>
<path d="M339.535 156.829L344.342 154.977L342.614 150.491L337.806 152.343L339.535 156.829Z" fill="#F5F5F5"/>
<path d="M371.071 355.56C371.071 355.686 287.997 355.779 185.544 355.779C83.0905 355.779 0 355.686 0 355.56C0 355.434 83.0569 355.342 185.544 355.342C288.031 355.342 371.071 355.443 371.071 355.56Z" fill="#263238"/>
<path d="M53.2901 333.735C54.1305 330.643 52.0547 327.542 49.7856 325.331C47.5166 323.121 44.802 321.087 43.6171 318.121C41.701 313.314 44.2726 307.095 41.0118 303.086C39.0873 300.733 35.6417 299.943 33.9357 297.422C33.1469 296.032 32.6252 294.507 32.3977 292.925C30.5843 284.941 26.657 277.591 21.0271 271.646C20.6476 278.758 22.189 285.841 25.4896 292.152C26.8091 294.673 28.4394 297.127 28.8512 299.943C29.5656 304.506 27.0108 309.187 28.1369 313.692C29.4227 318.818 35.1795 322.255 35.4484 327.533C35.6837 331.996 31.7926 335.937 32.0868 340.375C32.3225 342.275 33.0113 344.091 34.0953 345.669C37.541 351.409 42.617 355.359 50.2983 355.233L59.7108 355.561L53.2901 333.735Z" fill="#FFC100"/>
<g opacity="0.3">
<path opacity="0.3" d="M53.2901 333.735C54.1305 330.643 52.0547 327.542 49.7856 325.331C47.5166 323.121 44.802 321.087 43.6171 318.121C41.701 313.314 44.2726 307.095 41.0118 303.086C39.0873 300.733 35.6417 299.943 33.9357 297.422C33.1469 296.032 32.6252 294.507 32.3977 292.925C30.5843 284.941 26.657 277.591 21.0271 271.646C20.6476 278.758 22.189 285.841 25.4896 292.152C26.8091 294.673 28.4394 297.127 28.8512 299.943C29.5656 304.506 27.0108 309.187 28.1369 313.692C29.4227 318.818 35.1795 322.255 35.4484 327.533C35.6837 331.996 31.7926 335.937 32.0868 340.375C32.3225 342.275 33.0113 344.091 34.0953 345.669C37.541 351.409 42.617 355.359 50.2983 355.233L59.7108 355.561L53.2901 333.735Z" fill="black"/>
</g>
<path d="M61.61 355.753C62.472 355.887 63.3506 355.869 64.2068 355.703C65.2464 355.545 66.2681 355.286 67.2575 354.93C68.6238 354.455 69.9018 353.756 71.0393 352.862C71.7237 352.312 72.2584 351.598 72.594 350.787C72.8752 349.877 73.0224 348.932 73.0311 347.98C73.05 346.962 73.1257 345.947 73.258 344.938C73.435 343.863 73.8235 342.835 74.4009 341.912C75.5102 339.962 77.3591 338.113 77.9474 335.466C78.5357 332.819 78.1323 330.046 77.6953 327.222C77.2583 324.398 76.8549 321.339 77.9138 318.381C78.9727 315.423 80.9897 312.775 82.0234 309.464C83.057 306.153 82.5696 302.506 82.7881 298.951C82.8526 297.145 83.2694 295.369 84.0151 293.723C84.7715 292.043 85.8304 290.488 86.654 288.74C88.3348 285.193 88.6205 281.176 89.0743 277.235C89.3012 275.251 89.5197 273.243 89.7466 271.226C89.8897 269.187 90.2417 267.168 90.7971 265.2C91.4348 263.217 92.1868 261.272 93.0494 259.376C93.4937 258.396 93.859 257.381 94.1419 256.342C94.3003 255.267 94.4013 254.184 94.4445 253.098C94.5447 250.924 94.4604 248.745 94.1924 246.585C93.9402 244.417 93.5453 242.266 93.3099 240.089C93.3099 239.955 93.3099 239.828 93.3099 239.711L93.2595 239.282L92.8813 239.467C90.8943 240.487 89.1689 241.951 87.8389 243.745C86.5346 245.502 85.4849 247.434 84.721 249.485C83.1495 253.527 82.5864 257.763 81.7964 261.805C81.0065 265.847 79.998 269.822 77.9306 273.184C76.8969 274.865 75.6447 276.394 74.569 278.025C73.4009 279.616 72.6027 281.448 72.2327 283.387C71.6696 287.37 73.8631 290.866 73.4092 294.396C73.2045 296.125 72.6313 297.79 71.7284 299.278C70.888 300.783 69.8711 302.178 68.9131 303.573C67.942 304.941 67.0981 306.396 66.3919 307.918C65.7271 309.408 65.3344 311.004 65.2321 312.632C65.0052 315.809 65.4506 318.818 65.2321 321.658C64.9697 324.366 64.1788 326.995 62.9042 329.398C61.7697 331.71 60.5007 333.802 59.4418 335.836C58.9123 336.844 58.4165 337.836 58.0131 338.836C57.6314 339.796 57.3497 340.793 57.1727 341.811C56.8914 343.589 56.8688 345.397 57.1054 347.181C57.3524 349.669 58.2832 352.04 59.7947 354.031C60.0258 354.332 60.2816 354.613 60.5595 354.871C60.7451 355.066 60.9507 355.24 61.173 355.392C61.526 355.653 61.7109 355.77 61.7109 355.77C61.039 355.239 60.4275 354.636 59.8872 353.972C58.4443 351.974 57.5727 349.62 57.366 347.165C57.152 345.403 57.1916 343.62 57.4836 341.87C57.6606 340.877 57.9423 339.905 58.324 338.971C58.7499 337.96 59.2296 336.972 59.7611 336.012C60.8284 333.995 62.1058 331.911 63.2656 329.583C64.5783 327.143 65.3951 324.466 65.6691 321.709C65.9213 318.809 65.4843 315.784 65.7196 312.691C65.8278 311.116 66.2118 309.571 66.8541 308.128C67.5647 306.637 68.4086 305.214 69.3753 303.875C70.3334 302.48 71.3503 301.085 72.2243 299.547C73.1835 298.002 73.797 296.268 74.0227 294.463C74.4765 290.706 72.2999 287.194 72.863 283.487C73.2313 281.633 74.0032 279.883 75.1237 278.361C76.191 276.756 77.4516 275.226 78.4853 273.503C80.6283 270.049 81.662 265.999 82.4436 261.939C83.2251 257.88 83.805 253.678 85.3513 249.712C86.0951 247.718 87.1164 245.839 88.3852 244.131C89.6645 242.409 91.324 241.006 93.2343 240.03L92.8057 239.786C92.8057 239.913 92.8057 240.039 92.8477 240.173C93.083 242.375 93.478 244.526 93.6881 246.678C93.9535 248.804 94.035 250.95 93.9318 253.09C93.8893 254.142 93.794 255.191 93.6461 256.233C93.3745 257.238 93.0203 258.219 92.5872 259.166C91.72 261.082 90.9624 263.047 90.3181 265.049C89.758 267.047 89.4032 269.097 89.2592 271.167C89.0407 273.192 88.8138 275.201 88.5953 277.184C88.1415 281.143 87.8473 285.092 86.2422 288.513C85.4018 290.194 84.3933 291.799 83.6117 293.513C82.8425 295.221 82.4143 297.062 82.3511 298.934C82.141 302.564 82.6116 306.119 81.6284 309.33C80.6451 312.54 78.6029 315.212 77.5692 318.246C76.5355 321.28 76.9137 324.491 77.3675 327.306C77.8213 330.121 78.2752 332.895 77.6701 335.391C77.065 337.887 75.3338 339.752 74.2076 341.752C73.6139 342.715 73.2169 343.787 73.0395 344.904C72.9125 345.924 72.8452 346.951 72.8378 347.98C72.8391 348.908 72.7032 349.831 72.4344 350.719C72.1231 351.489 71.6231 352.168 70.9805 352.694C69.8735 353.587 68.627 354.291 67.2911 354.779C66.3148 355.155 65.3044 355.436 64.2741 355.619C63.6444 355.733 63.0063 355.795 62.3664 355.804C61.8369 355.753 61.61 355.753 61.61 355.753Z" fill="#263238"/>
<path d="M91.3439 244.904C91.299 244.994 91.2678 245.091 91.2514 245.19L91.0497 246.03C90.8648 246.778 90.6379 247.896 90.285 249.291C89.932 250.686 89.0664 252.266 88.3352 254.208C87.4789 256.393 86.7328 258.62 86.0998 260.88C85.377 263.402 84.7467 266.175 84.0744 269.167C83.503 272.353 82.4904 275.445 81.0658 278.352C80.2926 279.882 79.385 281.428 78.7378 283.126C78.0593 284.859 77.6046 286.672 77.3848 288.521C76.9068 292.35 76.2279 296.151 75.351 299.909C73.4685 307.615 71.6701 314.96 70.0313 321.65C68.3925 328.339 66.8462 334.323 65.5688 339.382C64.2913 344.441 63.3249 348.475 62.6189 351.358C62.2912 352.736 62.0307 353.82 61.8458 354.619C61.7701 354.963 61.7029 355.241 61.6525 355.459C61.6432 355.557 61.6432 355.655 61.6525 355.753C61.7013 355.666 61.7381 355.573 61.7617 355.476C61.8206 355.249 61.9046 354.98 62.0055 354.636C62.2156 353.854 62.5097 352.77 62.8879 351.4C63.6442 348.543 64.7115 344.483 66.031 339.483C67.3504 334.483 68.8883 328.432 70.6112 321.784C72.334 315.137 74.082 307.741 75.9813 300.026C76.8526 296.259 77.5147 292.446 77.9647 288.605C78.1794 286.801 78.6199 285.03 79.2757 283.336C79.9396 281.655 80.7884 280.151 81.5616 278.604C83.2424 275.537 83.9063 272.243 84.5702 269.276C85.2341 266.309 85.8224 263.502 86.5116 260.998C87.2007 258.494 87.9234 256.258 88.6462 254.325C89.3689 252.392 90.1673 250.796 90.5119 249.35C90.8564 247.905 91.0161 246.829 91.1674 246.056C91.2234 245.708 91.2738 245.428 91.3187 245.215C91.3439 245.005 91.3607 244.904 91.3439 244.904Z" fill="#263238"/>
<path d="M63.2738 355.796C69.4171 352.14 71.182 341.046 68.6187 334.374C66.0555 327.701 61.5678 321.6 60.8786 314.481C60.3408 309.01 62.1392 303.396 60.8786 298.052C59.1558 290.832 52.1132 285.244 52.1973 277.823C52.2393 273.663 54.6092 269.747 54.416 265.587C54.189 260.494 50.2728 256.443 47.8524 251.956C44.1378 245.073 43.8941 236.946 42.6251 229.265C41.3561 221.583 38.4231 213.297 31.5822 209.507C30.5738 216.054 28.8509 220.541 29.3888 229.408C29.5905 232.593 33.2883 238.652 33.7925 245.669C34.095 249.871 34.2967 254.023 34.5573 258.191C34.8178 262.36 35.0699 266.394 36.5238 270.192C37.6415 273.108 39.4316 275.756 40.2636 278.764C41.8183 284.42 39.7678 290.53 41.0284 296.278C42.0957 301.136 45.4573 305.313 46.1464 310.237C47.1045 317.154 42.6335 324.348 44.9194 330.945C46.0624 334.222 48.7516 336.828 49.5164 340.231C50.1131 342.853 49.466 345.635 50.0038 348.266C50.8442 352.518 58.9625 355.829 63.2906 355.552" fill="#FFC100"/>
<path d="M33.2635 215.97C33.252 216.093 33.252 216.216 33.2635 216.339C33.2635 216.617 33.3475 216.97 33.398 217.415C33.5408 218.365 33.7005 219.752 34.0198 221.55C34.3392 223.348 35.2973 225.382 36.0368 227.836C36.7764 230.29 37.6 233.097 38.2891 236.24C38.9782 239.383 39.5833 242.888 40.1968 246.644C40.8103 250.401 41.4826 254.494 43.3483 258.41C44.1887 260.368 45.1804 262.335 45.8695 264.436C46.5756 266.586 47.0104 268.817 47.1637 271.075C47.5073 275.866 48.1105 280.636 48.9706 285.362C50.8531 295.06 52.6431 304.296 54.2735 312.708C55.9039 321.121 57.5427 328.626 58.8537 334.979C60.1647 341.332 61.2405 346.408 61.9884 349.989L62.8288 354.064C62.9297 354.501 63.0053 354.846 63.0725 355.115C63.0953 355.238 63.129 355.359 63.1734 355.476C63.1882 355.354 63.1882 355.229 63.1734 355.107C63.123 354.829 63.0641 354.485 62.9885 354.039C62.8036 353.064 62.5431 351.686 62.2153 349.938C61.5094 346.35 60.5345 341.223 59.2655 334.895C57.9965 328.567 56.4922 320.978 54.8198 312.599C53.1474 304.22 51.4582 294.951 49.5673 285.261C48.7066 280.535 48.1007 275.765 47.752 270.974C47.5921 268.669 47.1431 266.393 46.4158 264.2C45.6678 262.066 44.6845 260.091 43.8189 258.141C41.97 254.284 41.2977 250.258 40.659 246.518C40.0203 242.779 39.4068 239.266 38.6757 236.106C37.9445 232.946 37.1461 230.122 36.3225 227.702C35.499 225.281 34.5829 223.231 34.2131 221.474C33.8434 219.718 33.6669 218.306 33.4904 217.373C33.4064 216.936 33.3391 216.583 33.2887 216.306C33.2869 216.193 33.2785 216.081 33.2635 215.97Z" fill="#263238"/>
<path d="M329.639 40.4091H326.277C326.28 40.7904 326.205 41.1683 326.059 41.5203C325.913 41.8724 325.697 42.1915 325.425 42.4587C325.153 42.726 324.83 42.9359 324.476 43.0761C324.121 43.2163 323.742 43.2839 323.361 43.2749C322.798 43.2951 322.243 43.1391 321.773 42.8288C321.303 42.5185 320.941 42.0692 320.739 41.5437C320.562 41.106 320.491 40.6327 320.532 40.1624C320.573 39.6921 320.724 39.2381 320.974 38.8376C321.546 37.8963 322.79 37.0475 325.042 37.4425V29.8789H321.739V34.2994C320.384 34.6984 319.197 35.5311 318.36 36.6697C317.524 37.8082 317.084 39.1898 317.108 40.6024C317.108 45.4936 321.495 46.6281 323.378 46.6281C324.815 46.6617 329.706 46.3172 329.639 40.4091Z" fill="#FFC100"/>
<path d="M321.714 28.3496H325.067V25.2149H321.714V28.3496Z" fill="#FFC100"/>
<path d="M347.968 35.9387C347.979 35.796 347.979 35.6527 347.968 35.5101C347.968 35.2075 347.968 34.7957 347.968 34.2663C347.968 33.9973 347.968 33.6864 347.926 33.3502C347.884 33.0141 347.834 32.6443 347.775 32.2577C347.716 31.8711 347.657 31.4173 347.59 30.9719L347.237 29.5432C346.613 27.0828 345.591 24.7409 344.211 22.6099C342.209 19.454 339.509 16.7994 336.32 14.8501C333.131 12.9007 329.537 11.7086 325.815 11.3653C324.697 11.2666 323.574 11.2442 322.453 11.2981C321.89 11.2981 321.31 11.2981 320.773 11.4074L319.041 11.6679C316.666 12.1094 314.367 12.8935 312.217 13.9958C309.973 15.1835 307.91 16.6862 306.091 18.4583C304.228 20.3457 302.672 22.512 301.477 24.879C300.191 27.3193 299.349 29.9684 298.989 32.7031C298.884 33.396 298.825 34.0951 298.813 34.7957C298.757 35.4974 298.743 36.2018 298.771 36.9051C298.954 41.4134 300.363 45.7864 302.847 49.5532V49.2927C301.679 52.2088 300.527 55.0746 299.401 57.8648L299.199 58.3774L299.729 58.2261L308.889 55.7049L308.671 55.6545C311.756 57.9901 315.35 59.5624 319.159 60.2431C320.926 60.5725 322.727 60.6825 324.521 60.5708C325.386 60.5579 326.249 60.4765 327.101 60.3271L328.353 60.1338C328.765 60.0582 329.193 59.9321 329.563 59.8397C335.208 58.4092 340.16 55.0159 343.531 50.2675C344.788 48.5182 345.798 46.6036 346.531 44.578C346.691 44.1326 346.842 43.7376 346.985 43.3006C347.128 42.8636 347.203 42.4602 347.296 42.082C347.388 41.7038 347.489 41.3172 347.573 40.9643C347.657 40.6113 347.682 40.2667 347.733 39.939C347.808 39.2919 347.926 38.7204 347.951 38.2582C347.976 37.796 347.951 37.3505 347.951 36.9976C347.951 36.6446 347.951 36.4261 347.951 36.2328C347.951 36.0395 347.951 35.9723 347.951 35.9723C347.938 36.0587 347.938 36.1465 347.951 36.2328C347.951 36.4261 347.951 36.6782 347.892 36.9976C347.834 37.3169 347.842 37.7623 347.808 38.2498C347.775 38.7372 347.649 39.3087 347.548 39.9306C346.746 44.5819 344.611 48.9003 341.402 52.3615C338.193 55.8226 334.048 58.2774 329.471 59.4279C329.076 59.5203 328.681 59.638 328.277 59.7136L327.042 59.8985C326.209 60.0377 325.366 60.1135 324.521 60.1254C322.76 60.2183 320.994 60.1026 319.26 59.7809C315.54 59.0963 312.031 57.5508 309.015 55.2679L308.915 55.1839H308.788L299.62 57.7051L299.939 58.0664L303.393 49.5028L303.444 49.3683L303.368 49.2422C301.713 46.7385 300.539 43.9484 299.905 41.0147C299.615 39.6536 299.441 38.2704 299.384 36.8799C299.356 36.1934 299.37 35.5058 299.426 34.8209C299.432 34.137 299.488 33.4544 299.594 32.7788C299.917 30.1082 300.711 27.516 301.939 25.1227C303.107 22.8094 304.624 20.6893 306.435 18.8365C308.215 17.0968 310.236 15.6222 312.436 14.458C314.538 13.3647 316.789 12.586 319.117 12.1469L320.798 11.8864C321.361 11.8023 321.924 11.8107 322.479 11.7687C323.574 11.7166 324.672 11.7363 325.765 11.8276C329.425 12.148 332.965 13.2985 336.115 15.1915C339.265 17.0846 341.942 19.6704 343.942 22.7528C345.329 24.8466 346.368 27.1511 347.018 29.5768L347.397 30.9887C347.472 31.4341 347.539 31.8291 347.607 32.2493C347.674 32.6695 347.724 33.0057 347.783 33.3418C347.842 33.678 347.825 33.9805 347.85 34.2495C347.85 34.7705 347.918 35.1823 347.943 35.4849C347.927 35.6365 347.935 35.7897 347.968 35.9387Z" fill="#263238"/>
<path d="M97.3525 135.048H145.886C145.886 135.048 145.886 94.2969 188.233 93.5741C210.227 93.1875 221.631 107.6 226.27 118.635C231.649 131.451 230.018 146.057 222.808 157.949C214.58 171.521 196.848 185.161 164.139 179.396L163.828 287.53H211.824V223.425C211.824 223.425 279.131 206.028 279.131 131.821C279.131 60.8489 221.74 45.52 190.889 44.5283C173.728 43.982 167.509 43.2425 146.281 46.2595C119.228 50.1254 96.781 81.5396 97.3525 135.048Z" fill="#FFC100"/>
<path d="M212.403 310.07H163.693V355.561H212.403V310.07Z" fill="#FFC100"/>
<path opacity="0.1" d="M212.403 310.07H163.693V355.561H212.403V310.07Z" fill="black"/>
<path opacity="0.1" d="M97.3525 135.048H145.886C145.886 135.048 145.886 94.2969 188.233 93.5741C210.227 93.1875 221.631 107.6 226.27 118.635C231.649 131.451 230.018 146.057 222.808 157.949C214.58 171.521 196.848 185.161 164.139 179.396L163.828 287.53H211.824V223.425C211.824 223.425 279.131 206.028 279.131 131.821C279.131 60.8489 221.74 45.52 190.889 44.5283C173.728 43.982 167.509 43.2425 146.281 46.2595C119.228 50.1254 96.781 81.5396 97.3525 135.048Z" fill="black"/>
<path d="M77.2412 135.047H125.783C125.783 135.047 125.783 94.2964 168.131 93.5737C190.124 93.1871 201.528 107.6 206.159 118.634C211.546 131.451 209.915 146.057 202.705 157.948C194.477 171.521 176.434 183.858 143.725 178.118V287.53H191.721V223.424C191.721 223.424 259.028 206.028 259.028 131.82C259.028 60.8484 195.376 44.3682 168.139 44.3682C147.305 44.3934 76.3252 49.4274 77.2412 135.047Z" fill="#FFC100"/>
<path opacity="0.3" d="M77.2412 135.047H125.783C125.783 135.047 125.783 94.2964 168.131 93.5737C190.124 93.1871 201.528 107.6 206.159 118.634C211.546 131.451 209.915 146.057 202.705 157.948C194.477 171.521 176.434 183.858 143.725 178.118V287.53H191.721V223.424C191.721 223.424 259.028 206.028 259.028 131.82C259.028 60.8484 195.376 44.3682 168.139 44.3682C147.305 44.3934 76.3252 49.4274 77.2412 135.047Z" fill="black"/>
<path d="M192.3 310.07H143.591V355.561H192.3V310.07Z" fill="#FFC100"/>
<path opacity="0.3" d="M192.3 310.07H143.591V355.561H192.3V310.07Z" fill="black"/>
<path d="M173.611 93.793C173.37 93.8138 173.128 93.8138 172.888 93.793C172.409 93.793 171.72 93.6333 170.82 93.6249C168.278 93.5 165.729 93.6069 163.206 93.9443C159.465 94.4179 155.783 95.2827 152.222 96.5243C150.123 97.2581 148.079 98.1399 146.104 99.1632C143.97 100.23 141.96 101.529 140.112 103.037C138.276 104.56 136.631 106.298 135.213 108.214C133.868 109.986 132.641 111.845 131.54 113.778C129.702 117.07 128.244 120.56 127.195 124.182C126.484 126.626 125.994 129.129 125.733 131.662C125.632 132.552 125.607 133.258 125.582 133.729C125.582 133.971 125.56 134.213 125.514 134.452C125.493 134.211 125.493 133.969 125.514 133.729C125.514 133.25 125.514 132.544 125.59 131.645C125.783 129.085 126.231 126.552 126.926 124.081C127.937 120.418 129.376 116.886 131.212 113.559C132.315 111.605 133.548 109.727 134.902 107.937C136.332 105.989 137.998 104.225 139.86 102.684C141.731 101.155 143.766 99.8389 145.928 98.7598C147.914 97.7177 149.973 96.819 152.088 96.0705C155.681 94.8336 159.398 93.9883 163.173 93.5493C165.713 93.2372 168.277 93.1781 170.829 93.3728C171.522 93.4171 172.212 93.5013 172.896 93.6249C173.138 93.6641 173.377 93.7203 173.611 93.793Z" fill="#263238"/>
<path d="M246.742 85.1452C246.742 85.1452 246.683 85.0864 246.582 84.9603C246.481 84.8343 246.33 84.6158 246.162 84.372L244.557 82.103C244.212 81.6155 243.843 81.0524 243.406 80.4726L241.893 78.6321L240.162 76.5059C239.531 75.7663 238.792 75.052 238.052 74.2704C237.313 73.4888 236.556 72.6568 235.699 71.8585C234.842 71.0601 233.926 70.2449 232.985 69.4045C232.514 68.9843 232.052 68.5641 231.547 68.1187L229.984 66.8833C228.917 66.0429 227.858 65.2025 226.707 64.3621C221.688 60.7716 216.365 57.6277 210.798 54.9664L206.369 52.9662L201.974 51.2854C200.537 50.6887 199.074 50.2685 197.662 49.7979C196.251 49.3273 194.872 48.8483 193.46 48.5205L189.443 47.47C188.141 47.1254 186.846 46.9153 185.611 46.6296C184.376 46.3439 183.182 46.0917 182.014 45.9489L178.653 45.4614C176.526 45.1001 174.577 45.0244 172.879 44.8564C172.039 44.7891 171.198 44.6967 170.501 44.6631L168.501 44.6126L165.727 44.5202H165.004H164.761C164.841 44.5076 164.924 44.5076 165.004 44.5202H165.727H168.501H170.509C171.24 44.5202 172.039 44.621 172.896 44.6799C174.577 44.8227 176.56 44.8816 178.686 45.2261L182.048 45.6799C183.216 45.8144 184.409 46.117 185.653 46.3439C186.897 46.5708 188.174 46.8061 189.511 47.1843L193.544 48.2264C194.94 48.5457 196.318 49.0668 197.746 49.4954C199.175 49.924 200.629 50.3358 202.066 50.9745L206.487 52.6553L210.941 54.6638C216.537 57.3312 221.882 60.4983 226.908 64.1268C228.068 64.9672 229.127 65.8664 230.194 66.6984L231.758 67.8329C232.262 68.2531 232.724 68.6733 233.195 69.1272L235.901 71.6484C236.741 72.4888 237.497 73.3292 238.245 74.0939C238.993 74.8587 239.708 75.6066 240.338 76.3546L242.019 78.4976L243.515 80.3633C243.943 80.9516 244.305 81.5231 244.641 82.0441C245.296 83.0274 245.809 83.8006 246.17 84.3552L246.565 84.9687C246.632 85.0197 246.691 85.079 246.742 85.1452Z" fill="#263238"/>
<path d="M241.683 189.354C241.583 189.536 241.462 189.706 241.321 189.859L240.162 191.229C239.683 191.842 239.078 192.573 238.33 193.388C237.582 194.204 236.783 195.162 235.808 196.153C234.834 197.145 233.791 198.254 232.607 199.372C231.422 200.49 230.136 201.666 228.766 202.893C222.758 208.138 216.171 212.68 209.134 216.432C207.504 217.273 205.966 218.113 204.478 218.76C202.991 219.407 201.604 220.071 200.327 220.609C199.049 221.147 197.873 221.592 196.847 221.987C195.822 222.382 194.923 222.702 194.183 222.937L192.503 223.483C192.307 223.561 192.105 223.617 191.897 223.651C192.079 223.548 192.27 223.463 192.469 223.399L194.15 222.777C194.881 222.517 195.763 222.181 196.78 221.76C197.797 221.34 198.974 220.92 200.234 220.323C201.495 219.727 202.89 219.164 204.344 218.432C205.798 217.701 207.352 216.928 208.974 216.079C212.176 214.314 215.63 212.247 219.118 209.86C222.606 207.474 225.74 204.961 228.531 202.591C229.9 201.381 231.211 200.246 232.38 199.103C233.548 197.96 234.64 196.926 235.607 195.935C236.573 194.943 237.422 194.027 238.178 193.22C238.935 192.414 239.557 191.708 240.061 191.119L241.237 189.783C241.374 189.628 241.523 189.485 241.683 189.354Z" fill="#263238"/>
<path d="M190.871 283.715C190.745 283.715 190.645 270.218 190.645 253.57C190.645 236.921 190.745 223.416 190.871 223.416C190.998 223.416 191.09 236.913 191.09 253.57C191.09 270.226 190.989 283.715 190.871 283.715Z" fill="#263238"/>
<path d="M192.72 352.476C192.594 352.476 192.502 343.005 192.502 331.323C192.502 319.642 192.594 310.162 192.72 310.162C192.847 310.162 192.939 319.633 192.939 331.323C192.939 343.013 192.838 352.476 192.72 352.476Z" fill="#263238"/>
<path d="M240.498 128.602C239.657 130.283 242.792 131.661 244.599 132.207C246.442 132.66 248.35 132.791 250.238 132.594C252.759 132.46 255.339 132.224 257.516 130.98C259.422 129.8 260.946 128.092 261.903 126.064C262.846 124.043 263.592 121.935 264.13 119.77C264.13 119.77 244.271 121.064 240.498 128.602Z" fill="#FFC100"/>
<g opacity="0.4">
<path opacity="0.4" d="M240.498 128.602C239.657 130.283 242.792 131.661 244.599 132.207C246.442 132.66 248.35 132.791 250.238 132.594C252.759 132.46 255.339 132.224 257.516 130.98C259.422 129.8 260.946 128.092 261.903 126.064C262.846 124.043 263.592 121.935 264.13 119.77C264.13 119.77 244.271 121.064 240.498 128.602Z" fill="black"/>
</g>
<path d="M296.585 123.223C299.859 125.545 303.783 126.775 307.796 126.736C309.72 126.843 311.617 126.246 313.133 125.055C313.78 124.458 314.267 123.702 314.931 123.131C315.385 122.744 315.914 122.45 316.343 122.038C316.569 121.843 316.744 121.595 316.851 121.317C316.958 121.038 316.994 120.737 316.957 120.441C316.791 119.711 316.382 119.059 315.797 118.592C313.519 117.298 310.796 117.349 308.174 117.407C305.55 117.521 302.958 118.028 300.485 118.912C298.451 119.601 296.325 120.593 295.291 122.441" fill="#FFC100"/>
<g opacity="0.4">
<path opacity="0.4" d="M316.957 120.441C316.659 119.732 316.137 119.141 315.469 118.76C313.192 117.466 310.796 117.349 308.174 117.407C305.55 117.521 302.958 118.028 300.485 118.912C298.451 119.601 296.325 120.592 295.291 122.441L296.585 123.223C299.859 125.545 303.783 126.774 307.796 126.736C309.72 126.843 311.617 126.245 313.133 125.055C313.78 124.458 314.267 123.702 314.931 123.13C315.385 122.744 315.914 122.45 316.343 122.038C316.569 121.843 316.744 121.595 316.851 121.317C316.958 121.038 316.994 120.737 316.957 120.441Z" fill="black"/>
</g>
<path d="M257.81 153.386L299.704 153.94C299.789 153.94 299.873 153.92 299.949 153.881C300.025 153.843 300.091 153.787 300.142 153.718C300.192 153.65 300.226 153.57 300.241 153.486C300.255 153.402 300.25 153.316 300.225 153.234L295.308 137.905C295.308 137.905 296.031 130.241 297.031 121.03C298.552 107.037 300.578 89.4478 300.603 89.4982C297.737 81.464 280.828 80.1025 280.828 80.1025L261.558 81.2455L260.885 80.1109L255.339 82.691C254.129 83.2538 252.966 83.9114 251.859 84.6575C248.195 87.1031 239.371 92.7254 237.758 98.9864C234.035 113.483 240.338 129.661 240.338 129.661L244.388 126.493C245.409 125.706 246.481 124.99 247.599 124.35L255.717 146.108C255.234 146.412 254.825 146.821 254.519 147.303C254.214 147.786 254.02 148.331 253.952 148.898C253.885 150.663 254.792 152.78 257.81 153.386Z" fill="#FFC100"/>
<g opacity="0.3">
<path opacity="0.3" d="M275.786 127.736C277.114 120.593 276.416 113.248 275.702 106.021C273.383 111.903 273.467 118.627 271.004 124.459C270.702 125.075 270.482 125.727 270.349 126.4C270.285 126.738 270.301 127.086 270.398 127.417C270.494 127.747 270.667 128.049 270.903 128.3C271.576 128.913 272.584 128.577 273.475 128.476C274.273 128.324 275.049 128.076 275.786 127.736Z" fill="black"/>
</g>
<g opacity="0.4">
<path opacity="0.4" d="M260.33 144.276C263.692 145.444 267.272 143.267 270.827 142.881C273.18 142.628 275.533 143.166 277.869 143.544C282.594 144.309 287.4 144.427 292.156 143.897C292.886 143.857 293.6 143.672 294.257 143.351C294.597 143.12 294.874 142.809 295.066 142.446C295.258 142.082 295.358 141.678 295.358 141.267C287.442 140.427 279.533 139.973 271.617 139.158C269.646 138.821 267.628 138.887 265.684 139.351C263.297 140.09 261.482 141.964 259.801 143.822" fill="black"/>
</g>
<path d="M315.747 117.685C312.326 109.979 300.267 88.666 300.267 88.666L290.93 100.373L293.106 123.358C293.106 123.358 298.039 117.853 311.83 117.744C312.833 117.784 313.813 118.048 314.7 118.516C315.587 118.984 316.358 119.645 316.957 120.45L315.747 117.685Z" fill="#FFC100"/>
<path d="M259.684 113.609C259.018 111.975 258.489 110.288 258.104 108.566C257.582 106.889 257.2 105.172 256.961 103.432C257.617 105.068 258.143 106.754 258.532 108.474C259.055 110.152 259.44 111.869 259.684 113.609Z" fill="#263238"/>
<path d="M290.223 98.8184C290.527 99.0332 290.809 99.2782 291.064 99.5495C291.806 100.267 292.502 101.03 293.148 101.835C295.321 104.492 296.849 107.616 297.61 110.962C298.006 112.812 298.094 114.714 297.871 116.593C297.661 118.316 297.333 119.828 297.115 121.106C296.896 122.383 296.762 123.425 296.694 124.148C296.693 124.524 296.653 124.898 296.577 125.266C296.517 124.891 296.5 124.51 296.526 124.131C296.563 123.101 296.659 122.074 296.812 121.055C296.989 119.77 297.283 118.24 297.476 116.551C297.67 114.715 297.571 112.859 297.182 111.055C296.429 107.771 294.969 104.691 292.904 102.029C291.366 99.9613 290.156 98.8856 290.223 98.8184Z" fill="#263238"/>
<path d="M281.668 151.537C281.376 151.667 281.068 151.757 280.752 151.806C280.393 151.9 280.028 151.971 279.66 152.016C279.231 152.075 278.744 152.167 278.197 152.192C276.917 152.31 275.629 152.31 274.348 152.192C272.782 152.031 271.234 151.722 269.726 151.268C268.226 150.786 266.774 150.164 265.39 149.41C264.267 148.784 263.202 148.061 262.204 147.251C261.767 146.914 261.414 146.561 261.095 146.267C260.82 146.019 260.559 145.755 260.314 145.477C260.08 145.261 259.879 145.012 259.717 144.738C259.776 144.679 260.675 145.687 262.398 147.007C263.404 147.773 264.469 148.458 265.583 149.057C266.951 149.777 268.38 150.375 269.852 150.848C271.334 151.294 272.853 151.609 274.39 151.789C275.646 151.924 276.91 151.963 278.172 151.906C280.332 151.789 281.651 151.469 281.668 151.537Z" fill="#263238"/>
<path d="M294.603 146.763C294.8 147.143 294.912 147.562 294.93 147.99C295.064 149.014 294.987 150.055 294.703 151.049C294.415 152.065 293.829 152.972 293.023 153.654C292.409 154.167 291.938 154.326 291.913 154.284C291.888 154.242 292.283 153.965 292.812 153.444C293.492 152.735 293.986 151.869 294.25 150.923C294.922 148.704 294.443 146.771 294.603 146.763Z" fill="#263238"/>
<path d="M292.325 149.721C292.507 150.585 292.434 151.484 292.115 152.307C291.795 153.131 291.243 153.844 290.526 154.36C290.434 154.267 291.215 153.435 291.703 152.149C292.19 150.864 292.198 149.729 292.325 149.721Z" fill="#263238"/>
<path d="M284.828 122.072C284.383 122.825 283.883 123.544 283.332 124.224C282.898 124.983 282.406 125.708 281.861 126.392C282.023 125.505 282.404 124.673 282.971 123.972C283.419 123.191 284.058 122.538 284.828 122.072Z" fill="#263238"/>
<path d="M256.07 101.717C255.43 101.341 254.81 100.932 254.213 100.49C251.224 98.5269 247.832 97.2603 244.287 96.7843C243.545 96.7303 242.807 96.632 242.077 96.4902C242.822 96.3874 243.577 96.3874 244.321 96.4902C247.962 96.8009 251.449 98.0998 254.406 100.247C255.026 100.657 255.586 101.152 256.07 101.717Z" fill="#263238"/>
<path d="M300.267 88.3887C298.763 89.5999 297.358 90.9292 296.065 92.3638C294.875 93.8949 293.81 95.5193 292.88 97.2213C292.979 96.6489 293.175 96.0976 293.46 95.5909C294.068 94.3308 294.83 93.1508 295.729 92.078C296.63 91.0074 297.664 90.0557 298.805 89.2459C299.239 88.8781 299.734 88.5881 300.267 88.3887Z" fill="#263238"/>
<path d="M282.971 81.4639C283.048 81.5851 283.11 81.7148 283.156 81.8505C283.32 82.2311 283.452 82.6246 283.551 83.027C283.905 84.5247 283.905 86.0843 283.551 87.582C283.028 89.8177 281.831 91.8389 280.122 93.3724C277.965 95.1996 275.217 96.1794 272.391 96.1289C269.562 96.1386 266.805 95.2336 264.533 93.5488C262.722 92.1663 261.253 90.3866 260.238 88.3468C259.555 86.9809 259.074 85.523 258.81 84.0187C258.733 83.6134 258.682 83.2036 258.658 82.7917C258.635 82.647 258.635 82.4994 258.658 82.3547C258.658 82.3547 258.751 82.943 258.986 83.9851C259.313 85.4469 259.83 86.8597 260.524 88.1871C261.549 90.1655 263.005 91.8886 264.785 93.2295C266.975 94.8511 269.624 95.7341 272.349 95.7507C275.073 95.8007 277.724 94.8702 279.82 93.1286C281.471 91.6514 282.641 89.7137 283.181 87.5652C283.555 86.1149 283.607 84.6003 283.333 83.1279C283.173 82.0185 282.921 81.4807 282.971 81.4639Z" fill="#263238"/>
<g opacity="0.3">
<path opacity="0.3" d="M285.912 123.56C285.912 123.14 285.845 122.644 285.475 122.434C285.358 122.375 285.228 122.344 285.097 122.344C284.966 122.344 284.836 122.375 284.719 122.434C284.484 122.561 284.275 122.732 284.105 122.938C283.117 123.966 282.353 125.188 281.861 126.526L285.979 126.165C285.954 125.316 285.937 124.425 285.912 123.56Z" fill="black"/>
</g>
<g opacity="0.3">
<path opacity="0.3" d="M299.586 114.895C299.172 112.538 298.139 110.334 296.594 108.508C298.375 114.323 297.779 117.609 296.779 121.593L296.997 121.038C298.149 118.71 299.897 117.248 299.586 114.895Z" fill="black"/>
</g>
<path d="M291.359 310.255L288.846 347.947L272.458 347.753L269.878 308.565L291.359 310.255Z" fill="#FFBE9D"/>
<path d="M289.308 342.988V344.08C289.308 344.08 307.797 351.509 307.973 355.005L271.256 354.804L271.827 342.593C277.298 345.156 283.021 345.475 289.308 342.988Z" fill="#FFC100"/>
<path d="M275.55 346.51C275.202 346.615 274.904 346.844 274.712 347.153C274.52 347.463 274.448 347.832 274.508 348.191C274.598 348.549 274.823 348.859 275.137 349.055C275.45 349.251 275.827 349.317 276.189 349.241C276.563 349.129 276.882 348.882 277.084 348.548C277.286 348.214 277.356 347.817 277.282 347.434C277.148 347.071 276.879 346.774 276.531 346.607C276.183 346.439 275.783 346.413 275.416 346.535" fill="white"/>
<path d="M271.256 354.804L271.39 351.871L306.553 353.148C306.553 353.148 308.183 353.871 307.99 355.014L271.256 354.804Z" fill="#263238"/>
<path d="M289.442 344.181C289.442 344.358 288.535 344.433 287.652 345.022C286.77 345.61 286.291 346.341 286.131 346.274C285.972 346.207 286.24 345.164 287.325 344.492C288.409 343.82 289.484 343.988 289.442 344.181Z" fill="#263238"/>
<path d="M293.283 345.795C293.325 345.972 292.543 346.266 291.93 347.022C291.316 347.779 291.14 348.577 290.955 348.569C290.77 348.56 290.669 347.543 291.451 346.627C292.232 345.711 293.274 345.669 293.283 345.795Z" fill="#263238"/>
<path d="M295.442 350.417C295.274 350.417 295.031 349.577 295.501 348.577C295.972 347.577 296.804 347.215 296.879 347.358C296.955 347.501 296.434 348.03 296.039 348.846C295.644 349.661 295.627 350.4 295.442 350.417Z" fill="#263238"/>
<path d="M288.366 34.5944C289.316 32.2413 288.165 29.3924 286.122 27.8712C283.97 26.4544 281.346 25.944 278.819 26.451C276.327 26.9736 273.914 27.8212 271.642 28.9722C270.586 27.9068 269.254 27.1561 267.796 26.8037C266.338 26.4514 264.81 26.5113 263.384 26.9768C261.958 27.4424 260.689 28.2951 259.72 29.4399C258.75 30.5848 258.118 31.9765 257.893 33.4599C256.985 33.2312 256.031 33.2542 255.134 33.5265C254.238 33.7988 253.432 34.31 252.804 35.0054C252.176 35.7008 251.749 36.5541 251.57 37.4736C251.39 38.3932 251.464 39.3444 251.784 40.2251L263.146 44.217L275.55 66.0675C277.383 67.6315 279.723 68.4752 282.133 68.441C284.542 68.4069 286.857 67.4973 288.645 65.8819C290.433 64.2666 291.573 62.0559 291.851 59.6622C292.129 57.2685 291.527 54.8554 290.156 52.8732C290.851 52.2551 291.442 51.5286 291.904 50.7218C292.896 50.1356 293.76 49.3582 294.449 48.4349C295.137 47.5115 295.635 46.4606 295.913 45.3432C297.014 40.4773 293.249 35.1659 288.366 34.5944Z" fill="#263238"/>
<path d="M280.845 80.1025C280.139 76.5476 279.651 74.1105 279.66 74.1357C279.668 74.1609 286.383 71.5304 285.895 62.1768C285.66 57.521 283.887 50.1842 282.24 44.2342C280.761 38.8724 275.76 32.9644 270.474 34.6704L254.448 42.4862C252.842 43.0072 252.565 44.5199 252.943 46.1587V46.9991L259.171 72.7658L261.801 84.2793C262.362 86.6435 263.787 88.712 265.797 90.0777C267.807 91.4433 270.255 92.0071 272.659 91.6581C273.972 91.4734 275.234 91.0223 276.366 90.3324C277.499 89.6425 278.479 88.7285 279.245 87.6464C280.012 86.5643 280.549 85.3369 280.824 84.0397C281.099 82.7424 281.106 81.4026 280.845 80.1025Z" fill="#FFBE9D"/>
<path d="M282.181 50.4529C282.249 50.7511 282.199 51.0638 282.043 51.3265C281.887 51.5892 281.635 51.7819 281.341 51.8648C281.193 51.9062 281.037 51.9172 280.884 51.8971C280.731 51.877 280.584 51.8261 280.452 51.7476C280.319 51.6691 280.203 51.5645 280.112 51.4402C280.021 51.316 279.956 51.1745 279.921 51.0244C279.854 50.7273 279.903 50.4157 280.06 50.1544C280.216 49.893 280.468 49.702 280.761 49.6209C280.909 49.5781 281.064 49.5658 281.217 49.5849C281.37 49.604 281.517 49.6539 281.65 49.7318C281.783 49.8096 281.899 49.9137 281.99 50.0377C282.081 50.1617 282.146 50.3029 282.181 50.4529Z" fill="#263238"/>
<path d="M281.45 48.6628C281.332 48.8476 280.315 48.3854 279.071 48.6628C277.828 48.9401 277.038 49.7469 276.869 49.6208C276.701 49.4948 276.869 49.2594 277.214 48.8897C277.676 48.4011 278.278 48.0666 278.937 47.9316C279.587 47.7914 280.265 47.8651 280.87 48.1417C281.34 48.335 281.5 48.5871 281.45 48.6628Z" fill="#263238"/>
<path d="M269.979 53.2095C270.046 53.5066 269.996 53.8182 269.839 54.0795C269.683 54.3409 269.432 54.5319 269.138 54.613C268.993 54.6552 268.841 54.6683 268.691 54.6514C268.541 54.6344 268.395 54.5879 268.263 54.5144C268.131 54.441 268.015 54.342 267.921 54.2233C267.828 54.1047 267.759 53.9686 267.718 53.823C267.65 53.5248 267.7 53.2121 267.856 52.9494C268.013 52.6867 268.264 52.494 268.558 52.4111C268.704 52.369 268.857 52.3564 269.007 52.3738C269.158 52.3913 269.303 52.4385 269.436 52.5128C269.568 52.5871 269.684 52.687 269.777 52.8066C269.87 52.9262 269.939 53.0632 269.979 53.2095Z" fill="#263238"/>
<path d="M269.365 51.6291C269.255 51.814 268.23 51.3434 266.986 51.6291C265.743 51.9149 264.953 52.7049 264.785 52.5872C264.616 52.4695 264.785 52.2258 265.129 51.8476C265.594 51.3634 266.195 51.0322 266.852 50.898C267.501 50.7599 268.178 50.8305 268.785 51.0997C269.23 51.3014 269.424 51.5283 269.365 51.6291Z" fill="#263238"/>
<path d="M275.693 59.5289C276.31 59.189 276.964 58.9238 277.643 58.7389C277.954 58.6381 278.248 58.512 278.257 58.2851C278.213 57.9509 278.069 57.6376 277.845 57.3859L276.391 55.1504C274.357 51.9653 272.811 49.3264 272.937 49.2676C273.063 49.2088 274.819 51.7048 276.853 54.8899L278.273 57.1422C278.552 57.4869 278.704 57.9173 278.702 58.3608C278.677 58.4817 278.626 58.5955 278.551 58.6943C278.477 58.7931 278.382 58.8743 278.273 58.9322C278.109 59.0193 277.934 59.0843 277.752 59.1255C277.088 59.3531 276.395 59.4888 275.693 59.5289Z" fill="#263238"/>
<path d="M279.66 74.1354C275.41 75.0961 270.976 74.8575 266.853 73.4463C266.853 73.4463 271.256 79.1946 280.139 76.4465L279.66 74.1354Z" fill="#EB996E"/>
<path d="M269.575 49.8476C269.491 50.209 268.205 50.2006 266.743 50.562C265.281 50.9234 264.121 51.4696 263.886 51.1839C263.785 51.0494 263.953 50.6964 264.398 50.3435C264.99 49.8449 265.694 49.4961 266.449 49.3266C267.198 49.1489 267.978 49.1489 268.726 49.3266C269.323 49.4358 269.634 49.6796 269.575 49.8476Z" fill="#263238"/>
<path d="M280.971 44.6959C280.77 45.0321 279.694 44.948 278.45 45.1917C277.206 45.4355 276.223 45.8557 275.929 45.6119C275.795 45.4859 275.929 45.1665 276.29 44.7715C276.845 44.3049 277.516 43.997 278.232 43.8807C278.936 43.7389 279.665 43.7912 280.341 44.032C280.854 44.2673 281.055 44.5278 280.971 44.6959Z" fill="#263238"/>
<path d="M258.406 36.4684C258.592 37.3788 258.976 38.237 259.531 38.9822C260.086 39.7274 260.798 40.3412 261.617 40.78C262.437 41.2188 263.342 41.4719 264.27 41.5212C265.198 41.5705 266.125 41.4149 266.986 41.0654C268.314 40.5275 269.692 39.519 271.037 40.0065C272.382 40.4939 272.936 42.41 274.222 43.1244C276.113 44.1833 278.424 42.3512 280.534 42.5361C282.214 42.6789 283.483 43.9648 284.786 45.0573C286.089 46.1498 287.887 46.9734 289.358 46.1834C289.021 44.78 288.522 43.4205 287.87 42.1327C287.213 40.8362 286.126 39.8083 284.794 39.2249C284.055 38.9308 283.256 38.8299 282.551 38.4685C281.029 37.6954 280.349 35.9473 279.248 34.6279C278.525 33.7964 277.614 33.1493 276.591 32.74C275.568 32.3308 274.462 32.1713 273.365 32.2748C271.55 32.4597 269.827 33.3757 267.995 33.3001C266.642 33.2412 265.347 32.6361 263.994 32.6614C261.364 32.6614 259.389 35.0145 257.927 37.2079" fill="#263238"/>
<path d="M267.264 38.3934C266.054 38.3009 263.583 38.0488 262.768 37.1916C261.94 36.2653 260.883 35.5728 259.703 35.1835C258.523 34.7941 257.261 34.7215 256.045 34.9729C254.837 35.3329 253.777 36.071 253.021 37.0786C252.264 38.0862 251.851 39.3101 251.843 40.57C250.372 40.9288 249.026 41.6781 247.946 42.7388C246.866 43.7994 246.093 45.1319 245.708 46.5957C245.317 48.128 245.303 49.7325 245.669 51.271C246.035 52.8096 246.77 54.2362 247.809 55.4283C248.314 56.0596 248.774 56.7251 249.187 57.4201C248.617 58.127 248.116 58.8868 247.691 59.6891C245.767 63.9416 250.985 65.572 250.985 65.572C250.985 68.4293 253.633 68.4125 255.322 68.4041C257.011 68.3957 257.944 72.9087 259.263 72.7322L257.927 58.8067C258.123 58.8828 258.331 58.9227 258.541 58.9244C261.726 58.9832 260.894 52.9491 259.869 51.3608C260.817 50.1794 261.619 48.8869 262.255 47.5117C262.832 45.4095 262.873 43.1962 262.373 41.0742C263.44 40.9398 267.785 38.427 267.264 38.3934Z" fill="#263238"/>
<path d="M258.348 59.5463C258.239 59.1038 258.02 58.696 257.712 58.361C257.403 58.0259 257.014 57.7745 256.582 57.6301C256.15 57.4858 255.688 57.4533 255.24 57.5356C254.792 57.6179 254.372 57.8123 254.02 58.1008C253.179 58.8235 252.734 60.0337 253.238 62.0591C254.599 67.4713 259.751 64.9921 259.717 64.8408C259.684 64.6895 258.936 61.7818 258.348 59.5463Z" fill="#FFBE9D"/>
<path d="M257.549 63.2021C257.549 63.2021 257.473 63.2946 257.33 63.4038C257.131 63.5562 256.881 63.6255 256.633 63.5971C256.011 63.5299 255.296 62.7567 255.027 61.7734C254.899 61.314 254.873 60.8321 254.952 60.3616C254.96 60.1788 255.013 60.0008 255.105 59.8428C255.197 59.6847 255.326 59.5513 255.481 59.4539C255.583 59.3989 255.701 59.3814 255.815 59.4045C255.929 59.4275 256.031 59.4896 256.103 59.58C256.212 59.7061 256.204 59.8237 256.238 59.8321C256.271 59.8405 256.33 59.7061 256.238 59.496C256.173 59.3713 256.07 59.2711 255.943 59.2102C255.766 59.1383 255.567 59.1383 255.389 59.2102C255.178 59.3104 254.995 59.4624 254.859 59.6519C254.722 59.8414 254.636 60.0624 254.607 60.2943C254.498 60.8236 254.518 61.3713 254.666 61.8911C254.76 62.3791 254.996 62.8285 255.344 63.1829C255.692 63.5373 256.138 63.7808 256.624 63.8828C256.782 63.8893 256.94 63.8601 257.085 63.7976C257.231 63.7351 257.36 63.6407 257.465 63.5215C257.574 63.3366 257.574 63.2105 257.549 63.2021Z" fill="#EB996E"/>
<path d="M287.367 51.9906C287.367 51.9906 287.863 51.6124 288.552 50.772C289.503 49.5611 290.086 48.1027 290.233 46.57C290.344 45.5237 290.241 44.4657 289.93 43.4605C289.571 42.3075 288.906 41.2734 288.006 40.4687C286.966 39.5608 285.707 38.9404 284.354 38.6692C283.001 38.3979 281.6 38.4852 280.291 38.9223C280.039 39.0064 279.803 39.1324 279.568 39.2333C279.333 39.3341 279.123 39.4854 278.904 39.6115L278.568 39.7964V39.4266C278.561 38.7756 278.319 38.149 277.887 37.6617C277.445 37.1889 276.902 36.8213 276.299 36.586C275.157 36.1104 273.893 36.016 272.693 36.3171C270.374 36.8465 268.407 37.9055 266.55 38.124C265.094 38.3771 263.595 38.0774 262.348 37.2836C262.019 37.0571 261.734 36.7723 261.508 36.4432C261.373 36.2162 261.306 36.0902 261.323 36.0818C261.627 36.4968 262 36.8576 262.424 37.1491C263.651 37.8574 265.092 38.0991 266.483 37.8298C267.451 37.6477 268.397 37.3661 269.307 36.9894C270.375 36.5625 271.47 36.2059 272.584 35.9221C273.206 35.7718 273.845 35.7067 274.484 35.7288C275.158 35.7644 275.821 35.918 276.442 36.1826C277.084 36.4572 277.658 36.8704 278.122 37.3928C278.619 37.9617 278.899 38.6881 278.912 39.4434L278.576 39.2585L279.274 38.8551C279.534 38.7543 279.778 38.6198 280.047 38.5273C281.427 38.0548 282.907 37.956 284.337 38.2409C285.768 38.5257 287.097 39.1842 288.19 40.1493C289.136 41.005 289.828 42.1039 290.191 43.326C290.568 44.6213 290.619 45.9899 290.339 47.3096C290.058 48.6293 289.456 49.8592 288.585 50.8897C288.309 51.2055 287.996 51.4876 287.653 51.7301C287.568 51.8282 287.472 51.9156 287.367 51.9906Z" fill="#455A64"/>
<path d="M286.274 32.9896C285.722 32.7096 285.134 32.5087 284.526 32.393C283.831 32.298 283.124 32.3641 282.459 32.5862C281.597 32.8498 280.849 33.3942 280.333 34.1326L280.122 34.4267L279.996 34.0906C279.558 33.0575 278.851 32.1601 277.95 31.4909C277.049 30.8217 275.986 30.405 274.87 30.2835C273.117 30.2176 271.39 30.7187 269.945 31.7122C268.714 32.5148 267.405 33.1906 266.037 33.7292C265.095 34.0858 264.079 34.2069 263.079 34.0822C262.813 34.0329 262.551 33.9598 262.298 33.8637C262.129 33.788 262.037 33.746 262.045 33.7292C262.054 33.7124 262.424 33.8384 263.104 33.9057C264.071 33.9661 265.039 33.8081 265.937 33.4435C267.265 32.864 268.539 32.1665 269.744 31.3593C270.487 30.8974 271.276 30.5117 272.097 30.2079C272.999 29.8788 273.964 29.7553 274.92 29.8465C276.112 29.9767 277.247 30.4276 278.203 31.1512C279.159 31.8749 279.901 32.8443 280.349 33.9561H280.022C280.599 33.1663 281.425 32.5924 282.366 32.3257C283.082 32.1183 283.836 32.0809 284.568 32.2165C285.032 32.3045 285.476 32.4753 285.879 32.7207C286.023 32.7911 286.156 32.8816 286.274 32.9896Z" fill="#455A64"/>
<path d="M275.206 62.0165C275.01 61.8524 274.781 61.7316 274.535 61.6621C274.289 61.5925 274.031 61.5758 273.778 61.6131C273.482 61.6763 273.202 61.8009 272.958 61.979C272.713 62.1571 272.508 62.3846 272.357 62.6468C272.357 62.6468 272.315 62.6888 272.307 62.714C272.191 62.9059 272.138 63.1292 272.156 63.3527C272.192 63.5961 272.288 63.8269 272.434 64.0247C272.581 64.2225 272.774 64.3813 272.996 64.4873C273.351 64.6673 273.753 64.7333 274.147 64.6761C274.542 64.619 274.908 64.4415 275.198 64.1679C275.473 63.8776 275.626 63.4935 275.628 63.0938C275.629 62.6942 275.479 62.3089 275.206 62.0165Z" fill="#FFC100"/>
<path d="M275.626 64.6304C275.559 64.6304 275.484 64.3783 275.257 64.0337C274.983 63.5718 274.575 63.2049 274.086 62.9824C273.598 62.76 273.053 62.6928 272.525 62.79C272.113 62.8488 271.861 62.9664 271.836 62.9076C271.811 62.8488 272.004 62.6471 272.458 62.4874C273.052 62.2963 273.696 62.3322 274.265 62.5883C274.839 62.8439 275.293 63.3102 275.534 63.8909C275.71 64.3279 275.685 64.622 275.626 64.6304Z" fill="#263238"/>
<path d="M258.473 65.6727C258.473 65.6727 258.717 66.0929 258.398 66.7316C258.217 67.1138 257.899 67.4138 257.507 67.572C257.262 67.6596 257.001 67.6892 256.742 67.6586C256.484 67.628 256.237 67.5379 256.019 67.3955C255.798 67.261 255.611 67.0773 255.473 66.8586C255.334 66.64 255.248 66.3923 255.221 66.1349C255.196 65.7198 255.318 65.309 255.566 64.9751C256.003 64.4205 256.49 64.4036 256.49 64.4541C256.49 64.5045 256.12 64.6474 255.826 65.1516C255.656 65.4341 255.585 65.7654 255.624 66.0929C255.656 66.2847 255.728 66.4674 255.837 66.6284C255.946 66.7895 256.089 66.925 256.255 67.0257C256.419 67.1306 256.603 67.1998 256.796 67.2288C256.988 67.2578 257.185 67.2458 257.372 67.1938C257.683 67.0827 257.95 66.8769 258.137 66.6055C258.465 66.0845 258.406 65.6727 258.473 65.6727Z" fill="#FFC100"/>
<path d="M255.641 65.3445C255.683 65.3445 255.641 65.6302 255.246 65.8151C255.052 65.8958 254.839 65.9192 254.632 65.8826C254.425 65.846 254.233 65.7509 254.078 65.6087C253.924 65.4664 253.813 65.2828 253.759 65.0796C253.705 64.8765 253.711 64.6622 253.775 64.4621C253.858 64.2348 254.015 64.0422 254.221 63.9158C254.565 63.7057 254.826 63.7898 254.817 63.8402C254.809 63.8906 254.616 63.9494 254.406 64.1595C254.302 64.2887 254.239 64.4455 254.225 64.6103C254.21 64.7751 254.244 64.9405 254.323 65.0859C254.402 65.2313 254.522 65.3501 254.669 65.4275C254.815 65.5049 254.981 65.5374 255.145 65.521C255.431 65.4622 255.582 65.3109 255.641 65.3445Z" fill="#FFC100"/>
<path d="M264.877 139.981C264.877 139.981 285.686 141.191 297.989 141.301C307.511 141.393 311.763 138.863 313.662 132.737C315.259 127.602 311.83 117.744 311.83 117.744C305.385 117.744 301.409 118.669 297.266 120.61L298.367 125.114L264.818 128.005L264.877 139.981Z" fill="#FFBE9D"/>
<path d="M305.359 129.922C304.457 128.748 303.403 127.7 302.225 126.804C300.961 126.03 299.598 125.431 298.174 125.022C298.622 124.958 299.08 124.998 299.51 125.14C300.567 125.39 301.57 125.831 302.468 126.442C303.368 127.056 304.146 127.831 304.763 128.728C305.233 129.417 305.41 129.896 305.359 129.922Z" fill="#EB996E"/>
<path d="M257.264 120.576C257.264 120.576 250.826 122.122 246.095 125.282L251.137 138.947C252.818 143.434 257.953 145.67 262.062 143.317C268.391 139.695 270.626 129.139 270.626 129.139L277.576 98.9856L266.054 91.7666L257.306 120.576" fill="#FFBE9D"/>
<path d="M266.012 91.767L266.483 81.8503L263.903 71.7655C263.76 71.2108 263.693 70.5133 264.147 70.1771C264.372 70.0046 264.65 69.9153 264.933 69.9245C265.216 69.9337 265.488 70.0408 265.701 70.2276C266.399 70.9503 269.76 79.7661 269.76 79.7661C269.76 79.7661 274.862 76.707 275.769 76.5558C276.677 76.4045 277.812 79.1526 277.887 79.3627C277.921 79.9786 277.921 80.5958 277.887 81.2116C277.887 81.2116 281.039 81.304 281.324 81.7326C281.554 82.6082 281.675 83.5085 281.686 84.4135C281.686 84.4135 283.022 84.8421 283.232 85.8506C283.442 86.8591 283.879 88.5231 283.232 88.8929C282.585 89.2627 281.274 89.9854 281.274 89.9854C281.274 89.9854 280.745 95.1287 280.602 95.5993C280.459 96.0699 277.509 98.9609 277.509 98.9609L266.012 91.767Z" fill="#FFBE9D"/>
<path d="M255.288 143.519C255.288 143.519 255.599 143.704 256.255 143.914C257.213 144.215 258.227 144.295 259.221 144.149C260.818 143.922 262.314 143.232 263.524 142.166C265.124 140.715 266.475 139.011 267.524 137.124C268.142 136.014 268.662 134.853 269.079 133.653C269.516 132.332 269.878 130.988 270.163 129.627C270.819 126.795 271.533 123.744 272.289 120.501C273.802 114.021 275.5 106.777 277.332 98.9694V98.9106H277.374C277.954 98.3391 278.534 97.7592 279.113 97.1541C279.399 96.8516 279.685 96.5491 279.954 96.2381C280.088 96.0784 280.231 95.9188 280.34 95.7591C280.426 95.6009 280.474 95.4258 280.483 95.2464C280.71 93.5656 280.887 91.826 281.072 90.0696V89.9603L281.172 89.9099L282.778 89.0107C282.895 88.935 283.08 88.851 283.156 88.7838C283.236 88.7111 283.289 88.6133 283.307 88.5064C283.346 88.2277 283.346 87.9448 283.307 87.666C283.226 87.0497 283.099 86.4402 282.929 85.8424C282.643 85.3196 282.163 84.9301 281.593 84.7582L281.45 84.7078V84.5649C281.45 84.0775 281.399 83.5733 281.341 83.0774C281.318 82.8291 281.281 82.5822 281.231 82.3379C281.212 82.2302 281.178 82.1256 281.13 82.0269C281.13 81.9681 281.13 82.0269 281.08 81.9765C281.034 81.9525 280.986 81.9329 280.937 81.9177C279.926 81.6974 278.896 81.582 277.861 81.5731H277.643V81.3546C277.643 80.8336 277.643 80.2537 277.643 79.6738C277.608 79.476 277.54 79.2856 277.441 79.1107C277.357 78.909 277.256 78.7157 277.155 78.514C276.959 78.1248 276.728 77.7536 276.466 77.4047C276.347 77.2421 276.202 77.1002 276.038 76.9845C275.977 76.933 275.902 76.9007 275.823 76.8917C275.743 76.8828 275.663 76.8975 275.592 76.9341C275.186 77.0898 274.79 77.2723 274.407 77.4804C272.844 78.3208 271.315 79.1612 269.819 80.0688L269.6 80.2032L269.508 79.9679C268.718 77.9762 267.928 76.0096 267.155 74.0851C266.768 73.1187 266.39 72.1522 266.003 71.2026C265.944 70.9898 265.825 70.7981 265.662 70.6495C265.498 70.5009 265.296 70.4013 265.079 70.3622C264.878 70.2955 264.66 70.2991 264.462 70.3724C264.263 70.4457 264.096 70.5843 263.986 70.7655C263.881 70.9458 263.837 71.155 263.86 71.3622C263.86 71.5471 263.978 71.8329 264.028 72.0598C264.163 72.5472 264.289 73.0262 264.415 73.5052C264.667 74.4717 264.911 75.4214 265.163 76.3626C265.656 78.2563 266.14 80.1052 266.617 81.9093V81.9681C266.449 85.4193 266.289 88.7249 266.138 91.8848V91.868L258.482 116.778L256.322 123.711C256.07 124.492 255.876 125.106 255.742 125.535C255.607 125.963 255.523 126.148 255.523 126.148C255.523 126.148 255.565 125.929 255.683 125.518L256.213 123.677C256.7 122.055 257.397 119.711 258.28 116.719C260.095 110.701 262.675 102.113 265.793 91.7588V91.8008C265.939 88.6521 266.087 85.3465 266.239 81.8841V81.9429C265.759 80.136 265.264 78.2871 264.768 76.4046L264.011 73.5473C263.885 73.0682 263.759 72.5808 263.625 72.1018C263.553 71.8502 263.494 71.5949 263.448 71.337C263.417 71.0453 263.479 70.7512 263.625 70.4966C263.78 70.2345 264.02 70.033 264.306 69.9251C264.588 69.8426 264.886 69.8332 265.173 69.8979C265.46 69.9626 265.725 70.0992 265.944 70.2949C266.155 70.4928 266.312 70.7417 266.398 71.0177L267.55 73.9002C268.331 75.8332 269.113 77.7997 269.911 79.783L269.6 79.6738C271.104 78.783 272.617 77.8922 274.214 77.0602C274.618 76.8492 275.033 76.6612 275.458 76.4971C275.59 76.4419 275.735 76.4216 275.878 76.4383C276.022 76.459 276.159 76.5106 276.281 76.5895C276.484 76.7347 276.662 76.9105 276.811 77.1106C277.092 77.4783 277.337 77.8723 277.542 78.2871C277.651 78.4972 277.752 78.6989 277.844 78.909C277.964 79.1316 278.044 79.3733 278.08 79.6234C278.08 80.2201 278.08 80.7747 278.08 81.3042L277.87 81.0773C278.95 81.0845 280.026 81.2085 281.08 81.4471C281.152 81.4723 281.223 81.5032 281.29 81.5395C281.382 81.5898 281.458 81.6657 281.509 81.758C281.574 81.8944 281.622 82.0384 281.651 82.1866C281.702 82.4555 281.736 82.7077 281.769 82.9682C281.82 83.4808 281.853 83.9851 281.878 84.4893L281.727 84.2876C282.071 84.3884 282.39 84.5581 282.666 84.7864C282.942 85.0147 283.169 85.2968 283.332 85.6154C283.516 86.2541 283.651 86.9059 283.736 87.5652C283.794 87.9016 283.794 88.2456 283.736 88.5821C283.699 88.7859 283.592 88.9703 283.433 89.1031C283.295 89.1954 283.152 89.2796 283.005 89.3552L281.408 90.1872L281.517 90.0275C281.324 91.784 281.147 93.5068 280.912 95.2128L280.861 95.5406C280.842 95.6733 280.787 95.7982 280.702 95.902C280.578 96.0859 280.44 96.2601 280.29 96.423C280.004 96.7424 279.719 97.0533 279.45 97.3558C278.87 97.9609 278.29 98.5408 277.702 99.1123L277.76 99.0114C275.912 106.81 274.197 114.055 272.659 120.534C271.894 123.77 271.163 126.82 270.491 129.644C270.203 131.015 269.833 132.368 269.382 133.695C268.949 134.906 268.415 136.078 267.785 137.199C266.711 139.111 265.328 140.832 263.692 142.292C262.446 143.365 260.911 144.049 259.28 144.259C258.264 144.395 257.231 144.291 256.263 143.956C256.017 143.866 255.778 143.756 255.549 143.628L255.288 143.519Z" fill="#EB996E"/>
<path d="M277.895 81.2365C277.895 81.2953 277.61 81.3289 277.164 81.3457C276.599 81.3565 276.036 81.424 275.483 81.5474C274.951 81.6784 274.459 81.9414 274.055 82.3122C273.752 82.5979 273.618 82.8416 273.551 82.8164C273.483 82.7912 273.55 82.4887 273.828 82.1021C274.219 81.6127 274.764 81.2693 275.374 81.1272C275.962 80.9822 276.573 80.9537 277.173 81.0432C277.626 81.102 277.895 81.1776 277.895 81.2365Z" fill="#EB996E"/>
<path d="M275.458 81.3287C275.349 81.2867 275.341 81.0261 275.458 80.7488C275.576 80.4715 275.744 80.2782 275.853 80.3202C275.962 80.3622 275.979 80.6227 275.853 80.9001C275.727 81.1774 275.542 81.3707 275.458 81.3287Z" fill="#EB996E"/>
<path d="M281.828 84.3801C281.012 84.6325 280.161 84.7489 279.307 84.7247C279.038 84.7157 278.771 84.7713 278.529 84.8868C278.286 85.0024 278.074 85.1744 277.912 85.3886C277.693 85.7332 277.769 86.0189 277.702 86.0357C277.635 86.0525 277.433 85.7584 277.643 85.2541C277.759 84.9702 277.97 84.7355 278.24 84.5902C278.551 84.4195 278.894 84.3164 279.248 84.2877C280.106 84.1563 280.982 84.1876 281.828 84.3801Z" fill="#EB996E"/>
<path d="M281.273 87.4054C281.391 87.4054 281.458 88.0273 281.425 88.792C281.391 89.5568 281.265 90.1619 281.147 90.1619C281.03 90.1619 280.954 89.5316 280.988 88.7668C281.021 88.002 281.147 87.397 281.273 87.4054Z" fill="#EB996E"/>
<path d="M284.761 110.037L285.509 107.466C285.543 107.348 285.607 107.241 285.695 107.156C285.783 107.071 285.892 107.01 286.011 106.979C286.129 106.949 286.254 106.95 286.372 106.982C286.491 107.014 286.598 107.077 286.685 107.163L287.669 108.163L288.274 105.734C288.309 105.594 288.387 105.468 288.497 105.374C288.606 105.279 288.742 105.22 288.886 105.206C289.03 105.191 289.175 105.221 289.302 105.292C289.428 105.362 289.53 105.47 289.593 105.6L290.963 108.474L284.761 110.037Z" fill="white"/>
<path d="M290.98 109.575C290.04 110.03 289.042 110.352 288.013 110.533C287.019 110.858 285.983 111.039 284.938 111.071C286.872 110.294 288.906 109.79 290.98 109.575Z" fill="white"/>
<path d="M241.002 95.2295C241.002 95.2295 240.691 95.5488 240.254 96.2296C239.667 97.199 239.281 98.2764 239.119 99.3979C238.88 101.068 238.829 102.759 238.968 104.44C239.06 106.348 239.212 108.432 239.447 110.617C239.845 114.349 240.437 118.057 241.22 121.727C241.514 123.139 241.783 124.249 241.968 125.089C242.052 125.442 242.128 125.736 242.187 125.988C242.246 126.24 242.254 126.308 242.254 126.308C242.254 126.308 242.212 126.207 242.153 126.005C242.094 125.803 242.002 125.45 241.909 125.106C241.699 124.324 241.413 123.198 241.069 121.786C240.252 118.117 239.643 114.405 239.245 110.668C239.01 108.483 238.867 106.39 238.783 104.482C238.656 102.8 238.718 101.108 238.968 99.4399C239.148 98.3038 239.56 97.2168 240.178 96.2464C240.406 95.8719 240.683 95.5299 241.002 95.2295Z" fill="white"/>
<path d="M258.692 83.7828L258.499 83.8837L257.944 84.1526C257.465 84.3795 256.768 84.7157 255.936 85.1779C253.767 86.3875 251.661 87.7058 249.624 89.1278C247.221 90.8086 245.095 92.3381 243.54 93.4474L241.699 94.7501L241.187 95.0946C241.13 95.1403 241.068 95.1798 241.002 95.2123C241.05 95.1558 241.107 95.1076 241.17 95.0694L241.657 94.6996L243.464 93.3466C245.002 92.212 247.12 90.6321 249.524 88.9849C251.563 87.5569 253.685 86.2492 255.877 85.0686C256.717 84.6232 257.423 84.3039 257.919 84.0938L258.482 83.8585C258.65 83.7996 258.65 83.7744 258.692 83.7828Z" fill="white"/>
<path d="M298.771 89.2543C298.718 89.2251 298.67 89.1883 298.628 89.1451L298.25 88.8173C297.782 88.422 297.291 88.0544 296.779 87.7164C295.073 86.6286 293.263 85.7137 291.376 84.9851C289.494 84.2397 287.572 83.6 285.619 83.069C284.862 82.8589 284.257 82.7076 283.829 82.6068L283.35 82.4807C283.291 82.4686 283.235 82.4489 283.182 82.4219H283.358L283.846 82.5143C284.274 82.5984 284.888 82.7328 285.644 82.9261C287.616 83.4239 289.553 84.0499 291.443 84.8002C293.341 85.5286 295.153 86.4643 296.847 87.5904C297.551 88.0674 298.197 88.626 298.771 89.2543Z" fill="white"/>
<path d="M258.927 153.402C258.813 153.382 258.702 153.345 258.599 153.293C258.307 153.165 258.026 153.013 257.759 152.839C257.306 152.568 256.911 152.21 256.597 151.786C256.282 151.362 256.055 150.88 255.927 150.368C255.696 149.335 255.811 148.254 256.254 147.292C256.382 146.994 256.546 146.711 256.742 146.452C256.876 146.275 256.969 146.191 256.977 146.2C256.748 146.558 256.543 146.932 256.364 147.318C255.973 148.262 255.882 149.303 256.103 150.301C256.344 151.286 256.943 152.146 257.784 152.713C258.481 153.217 258.944 153.368 258.927 153.402Z" fill="white"/>
<path d="M256.255 144.301C256.434 144.634 256.566 144.991 256.65 145.36C256.781 145.713 256.861 146.084 256.885 146.461C256.694 146.135 256.558 145.78 256.482 145.41C256.344 145.056 256.267 144.681 256.255 144.301Z" fill="white"/>
<path d="M267.617 332.726L293.25 332.6L292.787 243.98L292.544 153.83L257.81 153.385L251.566 165.15C249.011 169.88 247.382 175.055 246.767 180.395C246.347 184.48 249.406 197.758 250.465 201.12L260.02 231.424L267.617 332.726Z" fill="#263238"/>
<path d="M300.065 153.94L328.235 230.728C329.904 235.675 330.459 240.931 329.858 246.117C329.258 251.304 327.519 256.294 324.764 260.73L292.056 324.601L273.668 301.59L301.031 244.443L276.912 205.322L280.971 154.058L292.333 153.873L300.065 153.94Z" fill="#263238"/>
<path d="M290.207 179.664C290.207 179.664 290.207 179.799 290.207 180.059C290.207 180.32 290.249 180.723 290.283 181.219C290.342 182.253 290.417 183.74 290.518 185.665C290.711 189.556 290.98 195.144 291.358 202.044C291.737 208.944 292.056 217.171 292.476 226.332C292.678 230.903 292.896 235.702 293.115 240.677C293.275 243.198 293.207 245.72 293.232 248.241C293.258 250.762 293.232 253.418 293.232 256.057C293.232 277.176 293.3 296.295 293.325 310.153C293.325 317.061 293.325 322.658 293.325 326.549C293.325 328.474 293.325 329.97 293.325 331.012C293.325 331.499 293.325 331.852 293.325 332.172C293.325 332.491 293.325 332.567 293.325 332.567C293.325 332.567 293.325 332.432 293.325 332.172V331.012C293.325 329.97 293.325 328.491 293.275 326.549C293.275 322.658 293.207 317.07 293.157 310.162C293.098 296.303 293.022 277.184 292.938 256.065C292.938 253.426 292.938 250.821 292.938 248.249C292.938 245.678 292.989 243.14 292.829 240.686C292.619 235.719 292.409 230.92 292.216 226.348C291.829 217.205 291.476 208.977 291.19 202.052C290.905 195.127 290.694 189.564 290.535 185.673C290.468 183.757 290.417 182.261 290.384 181.219C290.384 180.723 290.384 180.378 290.384 180.059C290.384 179.74 290.207 179.664 290.207 179.664Z" fill="#455A64"/>
<path d="M289.56 155.452C289.658 155.723 289.717 156.005 289.736 156.293C289.829 156.83 289.929 157.612 290.047 158.587C290.266 160.528 290.501 163.226 290.635 166.209C290.77 169.193 290.778 171.899 290.736 173.857C290.736 174.832 290.677 175.63 290.635 176.176C290.644 176.46 290.61 176.743 290.534 177.017C290.429 175.967 290.392 174.911 290.425 173.857C290.425 171.899 290.333 169.21 290.198 166.226C290.064 163.243 289.879 160.562 289.736 158.662C289.617 157.597 289.558 156.525 289.56 155.452Z" fill="#455A64"/>
<path d="M283.912 157.184C283.954 157.243 283.475 157.461 283.341 158.142C283.303 158.327 283.313 158.518 283.371 158.698C283.428 158.877 283.531 159.039 283.669 159.167C283.835 159.322 284.042 159.426 284.266 159.466C284.489 159.506 284.719 159.481 284.929 159.394C285.131 159.291 285.299 159.132 285.415 158.938C285.53 158.743 285.589 158.52 285.585 158.293C285.577 158.105 285.521 157.922 285.423 157.762C285.324 157.602 285.186 157.469 285.022 157.377C284.68 157.212 284.299 157.145 283.921 157.184C283.921 157.184 284.005 157.075 284.223 157.008C284.538 156.931 284.87 156.963 285.164 157.1C285.399 157.198 285.602 157.359 285.75 157.565C285.899 157.771 285.987 158.015 286.005 158.268C286.038 158.581 285.973 158.897 285.817 159.17C285.662 159.444 285.425 159.662 285.139 159.794C284.853 159.925 284.533 159.964 284.224 159.905C283.915 159.845 283.633 159.69 283.416 159.462C283.238 159.284 283.111 159.061 283.05 158.816C282.99 158.572 282.997 158.315 283.072 158.075C283.156 157.76 283.346 157.484 283.61 157.293C283.778 157.176 283.904 157.159 283.912 157.184Z" fill="#455A64"/>
<path d="M270.466 155.663C270.59 155.928 270.667 156.212 270.693 156.503C270.828 157.258 270.854 158.028 270.769 158.789C270.648 159.923 270.32 161.026 269.802 162.042C269.176 163.306 268.25 164.396 267.104 165.218C265.958 166.04 264.628 166.569 263.23 166.756C262.112 166.923 260.972 166.881 259.869 166.63C259.122 166.468 258.403 166.199 257.734 165.832C257.481 165.712 257.248 165.553 257.045 165.361C257.974 165.779 258.942 166.103 259.936 166.328C261.131 166.576 262.365 166.574 263.56 166.322C264.754 166.07 265.883 165.572 266.876 164.862C267.869 164.151 268.703 163.242 269.327 162.193C269.951 161.143 270.35 159.976 270.5 158.764C270.599 157.732 270.587 156.693 270.466 155.663Z" fill="#455A64"/>
<path d="M303.443 163.025C302.895 163.088 302.339 163.022 301.821 162.832C300.551 162.432 299.411 161.701 298.518 160.714C297.617 159.731 296.998 158.523 296.728 157.218C296.596 156.685 296.596 156.128 296.728 155.596C296.804 155.596 296.812 156.209 297.064 157.15C297.405 158.367 298.024 159.487 298.873 160.422C299.722 161.357 300.778 162.081 301.955 162.537C302.83 162.882 303.451 162.941 303.443 163.025Z" fill="#455A64"/>
<path d="M313.453 245.804C313.032 246.284 312.528 246.686 311.965 246.989C311.375 247.363 310.732 247.646 310.058 247.829C309.209 248.054 308.314 248.031 307.478 247.762C306.01 247.208 304.752 246.209 303.881 244.905C303.481 244.414 303.15 243.871 302.897 243.291C303.351 243.724 303.762 244.2 304.124 244.711C305.017 245.895 306.222 246.806 307.604 247.342C308.309 247.53 309.045 247.573 309.768 247.467C310.49 247.362 311.184 247.11 311.806 246.728C312.337 246.389 312.887 246.08 313.453 245.804Z" fill="#455A64"/>
<path d="M307.032 250.703C306.039 249.675 305.152 248.548 304.385 247.342C303.501 246.218 302.73 245.011 302.082 243.736C303.082 244.761 303.972 245.888 304.738 247.098C305.629 248.215 306.398 249.423 307.032 250.703Z" fill="#455A64"/>
<path d="M263.97 182.631C263.852 182.673 263.558 182.194 263.298 181.547C263.037 180.9 262.928 180.354 263.037 180.303C263.146 180.253 263.449 180.74 263.701 181.388C263.953 182.035 264.079 182.631 263.97 182.631Z" fill="#FAFAFA"/>
<path d="M280.24 184.968C280.114 184.968 280.021 184.556 280.021 184.043C280.021 183.531 280.114 183.11 280.24 183.11C280.366 183.11 280.459 183.531 280.459 184.043C280.459 184.556 280.358 184.968 280.24 184.968Z" fill="#FAFAFA"/>
<path d="M273.55 193.808C273.432 193.808 273.298 193.304 273.256 192.657C273.214 192.01 273.256 191.489 273.39 191.481C273.525 191.472 273.651 191.985 273.693 192.632C273.735 193.279 273.668 193.8 273.55 193.808Z" fill="#FAFAFA"/>
<path d="M261.33 200.279C261.23 200.355 260.885 200.044 260.431 199.725C259.977 199.405 259.591 199.162 259.591 199.044C259.591 198.926 260.146 198.994 260.658 199.363C261.171 199.733 261.431 200.279 261.33 200.279Z" fill="#FAFAFA"/>
<path d="M282.87 208.523C282.769 208.456 282.87 208.095 283.156 207.683C283.442 207.271 283.702 207.036 283.803 207.103C283.904 207.17 283.803 207.54 283.517 207.944C283.231 208.347 282.971 208.591 282.87 208.523Z" fill="#FAFAFA"/>
<path d="M269.575 210.852C269.457 210.852 269.356 210.155 269.356 209.306C269.356 208.457 269.457 207.751 269.575 207.751C269.693 207.751 269.793 208.448 269.793 209.306C269.793 210.163 269.667 210.852 269.575 210.852Z" fill="#FAFAFA"/>
<path d="M265.221 220.282C265.154 220.374 264.717 220.181 264.247 219.836C263.776 219.492 263.406 219.139 263.515 219.038C263.625 218.937 264.028 219.139 264.499 219.483C264.969 219.828 265.297 220.181 265.221 220.282Z" fill="#FAFAFA"/>
<path d="M278.685 223.559C278.736 223.668 278.467 223.895 278.08 224.072C277.693 224.248 277.341 224.29 277.29 224.181C277.24 224.072 277.517 223.845 277.904 223.668C278.29 223.492 278.643 223.45 278.685 223.559Z" fill="#FAFAFA"/>
<path d="M269.575 238.938C269.474 238.988 269.037 238.341 268.609 237.484C268.18 236.627 267.92 235.887 268.029 235.803C268.138 235.719 268.575 236.4 268.995 237.257C269.415 238.114 269.651 238.845 269.575 238.938Z" fill="#FAFAFA"/>
<path d="M284.425 237.51C284.316 237.451 284.509 236.888 284.845 236.241C285.181 235.594 285.56 235.123 285.686 235.182C285.812 235.241 285.602 235.804 285.257 236.451C284.913 237.098 284.526 237.568 284.425 237.51Z" fill="#FAFAFA"/>
<path d="M277.912 250.527C277.786 250.527 277.802 249.846 277.668 249.056C277.534 248.266 277.332 247.636 277.45 247.577C277.567 247.518 277.971 248.115 278.105 248.989C278.239 249.863 278.029 250.552 277.912 250.527Z" fill="#FAFAFA"/>
<path d="M270.936 257.965C270.852 258.049 270.432 257.729 270.003 257.259C269.575 256.788 269.297 256.343 269.39 256.259C269.482 256.175 269.894 256.494 270.323 256.965C270.751 257.435 271.029 257.881 270.936 257.965Z" fill="#FAFAFA"/>
<path d="M287.862 260.788C287.778 260.704 288.089 260.25 288.56 259.771C289.03 259.292 289.467 258.981 289.56 259.065C289.652 259.149 289.333 259.612 288.871 260.082C288.409 260.553 287.955 260.872 287.862 260.788Z" fill="#FAFAFA"/>
<path d="M278.13 271.924C278.013 271.924 278.013 271.26 278.13 270.487C278.248 269.714 278.433 269.109 278.559 269.125C278.685 269.142 278.677 269.781 278.559 270.554C278.441 271.327 278.248 271.941 278.13 271.924Z" fill="#FAFAFA"/>
<path d="M271.584 277.327C271.474 277.386 271.105 276.949 270.743 276.352C270.382 275.756 270.197 275.226 270.298 275.168C270.399 275.109 270.768 275.537 271.138 276.134C271.508 276.731 271.685 277.26 271.584 277.327Z" fill="#FAFAFA"/>
<path d="M287.358 284.144C287.434 284.244 287.005 284.673 286.4 285.102C285.795 285.53 285.266 285.799 285.19 285.698C285.115 285.597 285.552 285.169 286.148 284.74C286.745 284.312 287.291 284.051 287.358 284.144Z" fill="#FAFAFA"/>
<path d="M274.214 292.993C274.096 292.951 274.214 292.279 274.323 291.438C274.432 290.598 274.365 289.909 274.491 289.892C274.617 289.875 274.836 290.581 274.752 291.48C274.668 292.379 274.323 293.043 274.214 292.993Z" fill="#FAFAFA"/>
<path d="M279.467 305.7C279.366 305.775 279.013 305.49 278.669 305.061C278.324 304.632 278.131 304.221 278.223 304.145C278.316 304.069 278.669 304.355 279.013 304.784C279.358 305.212 279.559 305.624 279.467 305.7Z" fill="#FAFAFA"/>
<path d="M273.727 314.222C273.626 314.289 273.164 313.793 272.693 313.104C272.223 312.415 271.928 311.81 272.021 311.742C272.113 311.675 272.584 312.171 273.055 312.86C273.525 313.549 273.828 314.154 273.727 314.222Z" fill="#FAFAFA"/>
<path d="M289.535 303.523C289.426 303.481 289.434 303.17 289.535 302.834C289.636 302.498 289.863 302.246 289.98 302.288C290.098 302.33 290.081 302.641 289.98 302.985C289.879 303.33 289.653 303.574 289.535 303.523Z" fill="#FAFAFA"/>
<path d="M282.559 323.819C282.45 323.76 282.66 323.163 282.828 322.415C282.996 321.667 283.055 321.037 283.181 321.028C283.307 321.02 283.433 321.701 283.257 322.508C283.081 323.314 282.66 323.886 282.559 323.819Z" fill="#FAFAFA"/>
<path d="M287.097 193.943C286.988 193.993 286.719 193.657 286.501 193.186C286.282 192.716 286.19 192.296 286.299 192.245C286.408 192.195 286.677 192.531 286.896 193.002C287.114 193.472 287.223 193.892 287.097 193.943Z" fill="#FAFAFA"/>
<path d="M275.457 167.773C275.525 167.874 274.936 168.344 274.306 169.017C273.676 169.689 273.247 170.311 273.138 170.252C273.029 170.193 273.314 169.412 273.978 168.722C274.642 168.033 275.373 167.664 275.457 167.773Z" fill="#FAFAFA"/>
<path d="M285.82 167.504C285.694 167.504 285.501 167.025 285.207 166.453C284.913 165.882 284.644 165.411 284.736 165.327C284.829 165.243 285.283 165.613 285.577 166.252C285.871 166.89 285.93 167.437 285.82 167.504Z" fill="#FAFAFA"/>
<path d="M253.465 176C253.356 175.95 253.465 175.395 253.725 174.757C253.986 174.118 254.272 173.622 254.389 173.672C254.507 173.723 254.389 174.269 254.129 174.916C253.868 175.563 253.608 176.042 253.465 176Z" fill="#FAFAFA"/>
<path d="M254.515 188.69C254.431 188.783 253.952 188.514 253.44 188.085C252.927 187.656 252.599 187.245 252.65 187.144C252.7 187.043 253.213 187.32 253.725 187.749C254.238 188.177 254.591 188.598 254.515 188.69Z" fill="#FAFAFA"/>
<path d="M275.743 157.696C275.634 157.696 275.399 157.427 275.231 156.999C275.063 156.57 275.012 156.158 275.121 156.158C275.231 156.158 275.466 156.427 275.634 156.856C275.802 157.284 275.852 157.654 275.743 157.696Z" fill="#FAFAFA"/>
<path d="M296.073 163.899C295.956 163.899 295.964 163.369 296.073 162.773C296.183 162.176 296.401 161.705 296.519 161.73C296.636 161.756 296.628 162.268 296.519 162.865C296.41 163.462 296.191 163.924 296.073 163.899Z" fill="#FAFAFA"/>
<path d="M300.846 173.504C300.737 173.454 300.888 172.832 301.191 172.101C301.493 171.37 301.821 170.824 301.93 170.866C302.039 170.908 301.93 171.538 301.594 172.269C301.258 173 300.964 173.546 300.846 173.504Z" fill="#FAFAFA"/>
<path d="M297.443 181.253C297.333 181.304 296.93 180.724 296.543 179.959C296.157 179.194 295.938 178.513 296.048 178.463C296.157 178.413 296.552 178.992 296.938 179.757C297.325 180.522 297.552 181.194 297.443 181.253Z" fill="#FAFAFA"/>
<path d="M304.72 189.001C304.611 188.959 304.72 188.472 304.905 187.917C305.09 187.363 305.384 186.942 305.502 186.984C305.62 187.026 305.502 187.514 305.317 188.068C305.132 188.623 304.872 189.043 304.72 189.001Z" fill="#FAFAFA"/>
<path d="M298.216 196.59C298.115 196.657 297.855 196.43 297.645 196.094C297.435 195.758 297.334 195.422 297.443 195.355C297.552 195.287 297.796 195.514 298.014 195.859C298.233 196.203 298.317 196.531 298.216 196.59Z" fill="#FAFAFA"/>
<path d="M299.603 212.256C299.519 212.331 298.989 211.92 298.434 211.314C297.88 210.709 297.502 210.163 297.594 210.079C297.686 209.995 298.207 210.415 298.762 211.02C299.317 211.625 299.695 212.172 299.603 212.256Z" fill="#FAFAFA"/>
<path d="M308.133 203.255C308.04 203.331 307.578 202.91 307.107 202.305C306.637 201.7 306.334 201.162 306.427 201.087C306.519 201.011 306.981 201.44 307.452 202.036C307.923 202.633 308.234 203.188 308.133 203.255Z" fill="#FAFAFA"/>
<path d="M312.814 215.668C312.704 215.617 312.898 214.987 313.242 214.264C313.587 213.542 313.948 212.987 314.083 213.037C314.217 213.088 314.007 213.726 313.663 214.449C313.318 215.172 312.923 215.727 312.814 215.668Z" fill="#FAFAFA"/>
<path d="M302.863 225.887C302.754 225.946 302.367 225.484 301.83 224.988C301.292 224.492 300.796 224.147 300.846 224.021C300.897 223.895 301.535 224.122 302.124 224.668C302.712 225.215 302.964 225.828 302.863 225.887Z" fill="#FAFAFA"/>
<path d="M303.485 236.417C303.485 236.534 303.065 236.635 302.552 236.635C302.04 236.635 301.628 236.534 301.628 236.417C301.628 236.299 302.04 236.198 302.552 236.198C303.065 236.198 303.485 236.299 303.485 236.417Z" fill="#FAFAFA"/>
<path d="M313.713 233.475C313.604 233.417 313.822 232.887 313.982 232.232C314.142 231.576 314.209 231.005 314.335 230.996C314.461 230.988 314.595 231.601 314.411 232.332C314.226 233.064 313.805 233.543 313.713 233.475Z" fill="#FAFAFA"/>
<path d="M323.874 237.014C323.764 237.056 323.453 236.459 323.184 235.695C322.915 234.93 322.789 234.274 322.899 234.241C323.008 234.207 323.327 234.787 323.596 235.552C323.865 236.316 323.991 236.972 323.874 237.014Z" fill="#FAFAFA"/>
<path d="M322.251 251.468C322.15 251.41 322.411 250.704 322.831 249.888C323.251 249.073 323.671 248.46 323.798 248.519C323.924 248.577 323.646 249.283 323.218 250.09C322.789 250.897 322.36 251.544 322.251 251.468Z" fill="#FAFAFA"/>
<path d="M312.982 259.948C312.873 259.99 312.528 259.41 312.209 258.646C311.889 257.881 311.73 257.225 311.847 257.175C311.965 257.124 312.301 257.713 312.612 258.478C312.923 259.242 313.091 259.948 312.982 259.948Z" fill="#FAFAFA"/>
<path d="M302.712 263.234C302.712 263.352 302.359 263.453 301.93 263.453C301.502 263.453 301.157 263.352 301.157 263.234C301.157 263.116 301.51 263.016 301.93 263.016C302.351 263.016 302.712 263.116 302.712 263.234Z" fill="#FAFAFA"/>
<path d="M308.595 276.756C308.485 276.756 308.25 276.294 308.074 275.655C307.897 275.016 307.864 274.462 307.981 274.436C308.099 274.411 308.326 274.899 308.502 275.537C308.679 276.176 308.712 276.689 308.595 276.756Z" fill="#FAFAFA"/>
<path d="M301.157 272.218C301.057 272.159 301.157 271.764 301.435 271.335C301.712 270.907 301.989 270.613 302.09 270.672C302.191 270.73 302.09 271.134 301.813 271.562C301.536 271.991 301.267 272.285 301.157 272.218Z" fill="#FAFAFA"/>
<path d="M301.006 287.101C300.889 287.101 300.72 286.538 300.636 285.807C300.552 285.076 300.578 284.479 300.695 284.462C300.813 284.445 300.981 285.025 301.065 285.756C301.149 286.488 301.124 287.084 301.006 287.101Z" fill="#FAFAFA"/>
</svg>
